<?xml version="1.0" standalone="no"?>
<!DOCTYPE svg PUBLIC "-//W3C//DTD SVG 1.1//EN" "http://www.w3.org/Graphics/SVG/1.1/DTD/svg11.dtd" >
<svg xmlns="http://www.w3.org/2000/svg">
<metadata></metadata>
<defs>
<font id="arsenalregular" horiz-adv-x="516" >
<font-face units-per-em="1000" ascent="750" descent="-250" />
<missing-glyph horiz-adv-x="233" />
<glyph unicode="&#x3c;&#x2d;&#x2d;" horiz-adv-x="631" d="M340 504l27 -27l-190 -179l408 3v-47l-408 2l190 -177l-27 -27l-273 226z" />
<glyph unicode="&#x2d;&#x2d;&#x3e;" horiz-adv-x="613" d="M48 254v47l408 -3l-191 179l26 32l274 -231l-274 -231l-26 32l190 177z" />
<glyph unicode="&#x3a;&#x2d;&#x29;" horiz-adv-x="729" d="M242 441q8 8 21 8q12 0 20 -8q9 -9 9 -23t-9 -23q-8 -7 -20 -7q-13 0 -21 7q-9 9 -9 23t9 23zM441 441q8 8 21 8q12 0 20 -8q9 -9 9 -23t-9 -23q-8 -7 -20 -7q-13 0 -21 7q-9 9 -9 23t9 23zM362 200q32 0 55.5 14t30.5 28l8 14l27 -17q-1 -3 -3 -8.5t-11.5 -19t-21.5 -24 t-35 -19t-50 -8.5t-49.5 8t-35 20t-21 23.5t-11.5 19.5l-3 8l26 17l3 -6t9.5 -13.5t17 -17t27 -13.5t37.5 -6zM615 322q0 140 -68.5 220t-184.5 80q-114 0 -181.5 -80t-67.5 -220q0 -139 67 -217t182 -78q116 0 184.5 78t68.5 217zM658 323q0 -156 -78.5 -246.5 t-216.5 -90.5q-137 0 -215.5 90.5t-78.5 246.5t79 248t215 92t215.5 -92t79.5 -248z" />
<glyph unicode="&#x28;&#x2d;&#x3a;" horiz-adv-x="729" d="M227 463q-11 -13 -11 -27q0 -16 11 -27q9 -9 23 -9q15 0 24 9q10 10 10 27q0 16 -10 27q-9 9 -24 9q-14 0 -23 -9zM450 463q-11 -13 -11 -27q0 -16 11 -27q9 -9 24 -9q14 0 24 9q10 10 10 27q0 16 -10 27q-10 9 -24 9q-15 0 -24 -9zM362 192q-36 0 -62.5 16t-35.5 32 l-8 15l-30 -21q1 -4 3.5 -10t12.5 -21.5t24 -27.5t39.5 -21.5t56.5 -9.5t56.5 9.5t39.5 22.5t24 26t13 22l3 10l-30 21q-1 -3 -3 -7t-10.5 -15t-19.5 -19t-30.5 -15t-42.5 -7zM658 323q0 -156 -78.5 -246.5t-216.5 -90.5q-137 0 -215.5 90.5t-78.5 246.5t79 248t215 92 t215.5 -92t79.5 -248z" />
<glyph unicode="&#x2d;&#x2a;&#x2d;" horiz-adv-x="833" d="M394 413q-27 10 -59 10q-74 0 -122 -54q-6 -9 -6 -20q0 -16 14 -26.5t42 -10.5q40 0 74.5 28t56.5 73zM436 78l26 2q0 -19 14.5 -32t37.5 -13q20 0 33.5 10.5t13.5 30.5q0 12 -6 28q-71 1 -122 31t-51 81q0 35 24 58t56 23q41 0 58 -17l2 1q-28 79 -92 116 q-29 -52 -73 -84.5t-96 -32.5q-61 0 -79 40q-15 -36 -15 -85q0 -39 11.5 -69.5t27.5 -46.5t32.5 -26.5t27.5 -13.5l12 -3l-13 -34q-6 1 -16.5 3.5t-36.5 15t-46 31t-36.5 55t-16.5 83.5q0 108 65 168.5t154 60.5q41 0 77 -13q18 48 18 94q0 60 -34 93.5t-92 33.5 q-38 0 -62 -22.5t-24 -50.5q0 -39 44 -48l-4 -27q-41 4 -61.5 24.5t-20.5 49.5q0 40 35 73t90 33q81 0 126.5 -44t45.5 -115q0 -53 -24 -111q68 -40 96 -112l2 1q3 21 24 42.5t54 21.5q50 0 77.5 -32.5t27.5 -85.5q0 -93 -62.5 -173t-144.5 -80q-40 0 -62 19.5t-22 47.5z " />
<glyph unicode="&#xfb00;" horiz-adv-x="587" d="M167 563v-63h201v71q0 72 16 116q-69 27 -111 27q-63 0 -84.5 -31.5t-21.5 -119.5zM585 500v-49h-145v-451h-72v451h-201v-451h-72v451h-52v42l52 6v72q0 98 35.5 143t127.5 45q56 0 145 -38q32 38 96 38q24 0 47.5 -7.5t35.5 -14.5l12 -7l-10 -39q-34 23 -72 23 q-39 0 -55.5 -32t-16.5 -119v-63h145z" />
<glyph unicode="&#xfb01;" horiz-adv-x="525" d="M450 500v-500h-73v500h73zM257 759q83 0 140 -75q7 3 17 3q19 0 30 -10q12 -13 12 -33q0 -18 -12 -32q-14 -11 -30 -11q-18 0 -29 11q-13 13 -13 32q0 10 3 17q-44 52 -104 52q-58 0 -81 -32.5t-23 -117.5v-63h145v-49h-145v-451h-72v451h-52v42l52 6v72q0 97 37 142.5 t125 45.5z" />
<glyph unicode="&#xfb02;" horiz-adv-x="523" d="M447 752v-752h-72v675q-78 39 -131 39q-42 0 -59.5 -33t-17.5 -118v-63h145v-49h-145v-451h-72v451h-52v42l52 6v72q0 188 130 188q65 0 150 -40v29z" />
<glyph unicode="&#x407;&#x407;" horiz-adv-x="548" d="M464 650v-650h-76v650h76zM181 650v-650h-76v650h76zM334 809q12 10 26 10q13 0 26 -10q11 -13 11 -30q0 -16 -11 -29q-13 -10 -26 -10q-14 0 -26 10q-12 12 -12 29q0 18 12 30zM478 809q12 10 26 10q13 0 26 -10q11 -13 11 -30q0 -16 -11 -29q-13 -10 -26 -10 q-14 0 -26 10q-11 11 -11 29q0 19 11 30zM40 809q12 10 26 10q13 0 26 -10q11 -13 11 -30q0 -16 -11 -29q-13 -10 -26 -10q-14 0 -26 10q-11 11 -11 29q0 19 11 30zM184 809q12 10 26 10t27 -10q10 -11 10 -30q0 -18 -10 -29q-13 -10 -27 -10t-26 10q-11 11 -11 29 q0 19 11 30z" />
<glyph unicode="&#x457;&#x457;" horiz-adv-x="438" d="M362 500v-500h-73v500h73zM147 500v-500h-73v500h73zM251 674q12 10 26 10q13 0 26 -10q11 -13 11 -30q0 -16 -11 -29q-13 -10 -26 -10q-14 0 -26 10q-11 11 -11 29q0 19 11 30zM377 674q12 10 26 10q13 0 26 -10q11 -13 11 -30q0 -16 -11 -29q-13 -10 -26 -10 q-14 0 -26 10q-11 11 -11 29q0 19 11 30zM8 674q12 10 26 10q13 0 26 -10q11 -13 11 -30q0 -16 -11 -29q-13 -10 -26 -10q-14 0 -26 10q-11 11 -11 29q0 19 11 30zM134 674q12 10 26 10t27 -10q11 -13 11 -30q0 -16 -11 -29q-13 -10 -27 -10t-26 10q-11 11 -11 29 q0 19 11 30z" />
<glyph unicode="&#x456;&#x457;" horiz-adv-x="438" d="M82 676q11 11 29 11q19 0 30 -10q12 -13 12 -33q0 -18 -12 -32q-14 -11 -30 -11q-18 0 -29 11q-13 13 -13 32t13 32zM362 500v-500h-73v500h73zM147 500v-500h-73v500h73zM235 674q12 10 26 10t26 -10q11 -13 11 -30q0 -16 -11 -29q-12 -10 -26 -10t-26 10q-11 11 -11 29 q0 19 11 30zM377 674q12 10 26 10q13 0 26 -10q11 -13 11 -30q0 -16 -11 -29q-13 -10 -26 -10q-14 0 -26 10q-11 11 -11 29q0 19 11 30z" />
<glyph unicode="ft" horiz-adv-x="596" d="M562 500v-49h-128v-299q0 -65 12.5 -89.5t43.5 -24.5q18 0 34 3t24 5l7 3l5 -40q-28 -19 -93 -19q-54 0 -80 33.5t-26 110.5v317h-194v-451h-72v451h-52v42l52 6v72q0 97 30 142.5t101 45.5q24 0 47.5 -7.5t35.5 -14.5l12 -7l-10 -39q-34 23 -72 23q-39 0 -55.5 -32 t-16.5 -119v-63h194l27 158h46v-158h128z" />
<glyph unicode="tt" horiz-adv-x="586" d="M552 500v-49h-128v-299q0 -65 12.5 -89.5t43.5 -24.5q18 0 34 3t24 5l7 3l5 -40q-28 -19 -93 -19q-54 0 -80 33.5t-26 110.5v317h-186v-299q0 -65 12.5 -89.5t43.5 -24.5q18 0 34 3t23 5l8 3l5 -40q-28 -19 -93 -19q-54 0 -80 33.5t-26 110.5v317h-52v42l52 6l27 159h46 v-158h186l27 158h46v-158h128z" />
<glyph unicode="&#x27;&#x457;" horiz-adv-x="277" d="M204 500v-500h-73v500h73zM216 674q13 10 26 10q14 0 27 -10q10 -11 10 -30q0 -18 -10 -29q-13 -10 -27 -10q-13 0 -26 10q-11 13 -11 29q0 17 11 30zM60 743q11 10 28 10q16 0 27 -10q1 -1 7 -10q7 -13 7 -33q0 -47 -32 -110.5t-74 -97.5l-22 23q33 30 58.5 76t28.5 82 q-17 0 -28 10q-12 12 -12 30t12 30z" />
<glyph unicode="&#x2d;&#x2d;&#x2a;" horiz-adv-x="655" d="M285 401q0 -27 17.5 -47.5t34.5 -27.5l17 -8h178q-20 75 -62 115.5t-102 40.5q-36 0 -59.5 -19t-23.5 -54zM578 237l-32 -9q-4 37 -7 58h-57q-5 -77 -50.5 -119.5t-101.5 -42.5q-43 0 -71.5 23t-28.5 64q0 51 45 78q-107 12 -144 64q-5 -37 -5 -70q0 -109 54 -182 t167 -73q45 0 81.5 11.5t56.5 27.5t33.5 32t17.5 27l5 12l19 -26q-1 -3 -2.5 -7t-8.5 -17t-16 -24.5t-26.5 -25.5t-39 -24t-53.5 -17t-70 -7q-73 0 -128 25.5t-85 68t-44.5 91.5t-14.5 103q0 52 10.5 101.5t20 72.5t15.5 31l47 3q6 3 8 3q-13 -19 -26 -67q0 -39 25.5 -64 t91.5 -35q-28 35 -28 78q0 51 33 80t90 29q96 0 154 -73.5t65 -199.5z" />
<glyph unicode="&#x2d;&#x2d;&#x2d;" horiz-adv-x="1022" d="M369 442q-28 0 -46.5 -16.5t-22.5 -37.5q44 -28 100.5 -77.5t97.5 -90t84 -71t71 -30.5t46 16.5t22 38.5q-54 34 -129.5 104t-132 117t-90.5 47zM58 281h-28q0 64 38 107t109 43q43 0 96 -28q8 39 37 69t75 30q34 0 82 -33t97.5 -79.5t100 -93t103 -79.5t92.5 -33 q48 0 75.5 28.5t27.5 68.5h29q0 -63 -37.5 -106.5t-107.5 -43.5q-48 0 -99 28q-7 -39 -35.5 -69t-74.5 -30q-34 0 -82 32.5t-98 79t-100.5 93.5t-103 79.5t-92.5 32.5q-48 0 -76 -28.5t-28 -67.5z" />
<glyph unicode="&#x2a;&#x2d;&#x2d;" horiz-adv-x="655" d="M301 182h-178q20 -75 62 -115.5t102 -40.5q36 0 59.5 19t23.5 54q0 27 -17 47.5t-35 27.5zM77 264l32 8q1 -30 6 -57h57q6 77 51.5 119t101.5 42q43 0 71.5 -23t28.5 -63q0 -50 -44 -79q106 -12 142 -64q6 33 6 71q0 109 -54 182t-167 73q-45 0 -81.5 -11.5t-56.5 -27.5 t-33.5 -32.5t-18.5 -27.5l-4 -12l-19 26q1 3 2.5 7t8.5 17t16 24.5t26.5 25.5t39 24t53.5 17t70 7q73 0 128 -25t85 -68t44.5 -91.5t14.5 -103.5q0 -52 -10.5 -101t-20 -72t-15.5 -31l-46 -4q-6 -3 -9 -3q9 12 26 66q0 39 -25.5 64t-91.5 35q28 -35 28 -77 q0 -50 -33.5 -79.5t-89.5 -29.5q-96 0 -154 74t-65 200z" />
<glyph unicode=" "  horiz-adv-x="233" />
<glyph unicode="&#x09;" horiz-adv-x="233" />
<glyph unicode="&#xa0;" horiz-adv-x="233" />
<glyph unicode="!" horiz-adv-x="276" d="M108 71q14 12 31 12q19 0 32 -12q13 -13 13 -34t-13 -34q-13 -12 -32 -12q-17 0 -31 12q-14 13 -14 34t14 34zM180 750v-83l-19 -455h-44l-18 455v83h81z" />
<glyph unicode="&#x22;" horiz-adv-x="299" d="M242 748l-22 -230h-41l-4 232zM101 748l-22 -230h-41l-4 232z" />
<glyph unicode="#" horiz-adv-x="480" d="M200 389l-27 -130h105l27 130h-105zM374 547l-24 -116h80v-42h-89l-27 -130h116v-41h-125l-28 -138l-34 10l26 128h-105l-26 -127l-34 10l24 117h-79v41h88l27 130h-115v42h124l29 137l34 -10l-27 -127h104l27 126z" />
<glyph unicode="$" horiz-adv-x="408" d="M36 130l25 35q5 -7 14 -18t41.5 -29t70.5 -18q56 0 84.5 28t28.5 68q0 37 -25 59t-60.5 34t-71.5 26t-61 44t-25 78q0 54 33.5 89.5t90.5 45.5l5 128h42l6 -125q30 -1 60.5 -10.5t45.5 -18.5l15 -9l-12 -43q-53 40 -114 40q-46 0 -74.5 -23t-28.5 -58q0 -37 26 -60 t62.5 -35.5t73 -26.5t62.5 -44.5t26 -78.5q0 -58 -36 -99.5t-106 -50.5l-4 -108h-42l-6 106q-30 2 -56 10.5t-42 19t-27.5 20.5t-16.5 17z" />
<glyph unicode="%" horiz-adv-x="802" d="M695 175q0 71 -25.5 108.5t-71.5 37.5q-97 0 -97 -146q0 -71 25 -109t71 -38q47 0 72.5 38.5t25.5 108.5zM755 174q0 -86 -42 -137t-115 -51q-75 0 -116 51t-41 137t42 137.5t115 51.5q72 0 114.5 -52t42.5 -137zM302 475q0 71 -25.5 108.5t-71.5 37.5q-97 0 -97 -146 q0 -71 25 -109t71 -38q47 0 72.5 38.5t25.5 108.5zM362 474q0 -86 -42 -137t-115 -51q-75 0 -116 51t-41 137t42 137.5t115 51.5q72 0 114.5 -52t42.5 -137zM560 631l-281 -629l-43 10l281 629z" />
<glyph unicode="&#x26;" horiz-adv-x="603" d="M374 103q-1 9 -1 31v179h-134q-46 -2 -80.5 -38t-34.5 -99q0 -140 135 -140q83 0 115 67zM570 356v-43h-129v-175q0 -60 15 -81t50 -21q18 0 35 3t25 7l8 3l2 -40q-27 -19 -92 -19q-78 0 -99 59q-47 -59 -137 -59q-102 0 -151 51t-49 134q0 63 37 103.5t91 57.5 q-41 20 -68 58t-27 95q0 77 47.5 123.5t129.5 46.5q31 0 62.5 -7.5t47.5 -15.5l16 -8l-8 -43q-45 29 -103 29q-57 0 -87.5 -34.5t-30.5 -95.5q0 -63 29.5 -95.5t67.5 -32.5h123l33 144h33v-144h129z" />
<glyph unicode="'" horiz-adv-x="158" d="M101 748l-22 -230h-41l-4 232z" />
<glyph unicode="(" horiz-adv-x="307" d="M228 728l38 -21q-5 -6 -12 -17.5t-26.5 -52t-34 -86.5t-26.5 -122t-12 -157q0 -82 11.5 -156.5t27.5 -122t32.5 -83.5t27.5 -52l12 -16l-36 -21q-6 6 -15.5 17.5t-34.5 52.5t-44.5 88.5t-35 126.5t-15.5 166t14.5 165.5t35.5 129t42.5 89t36.5 55.5z" />
<glyph unicode=")" horiz-adv-x="307" d="M77 -179l-37 21q5 6 12 17.5t26.5 52.5t34 87t26.5 121.5t12 156.5t-11.5 155t-27.5 122t-32.5 84t-27.5 52l-12 17l37 21q6 -6 15.5 -17.5t34.5 -52.5t44 -88.5t34.5 -126.5t15.5 -166t-15 -165.5t-36 -129t-42 -89t-36 -55.5z" />
<glyph unicode="*" horiz-adv-x="393" d="M40 597l143 -79l-20 186h67l-22 -186l145 79l20 -70l-157 -36l111 -137l-55 -44l-76 162l-76 -162l-54 44l110 136l-157 37z" />
<glyph unicode="+" horiz-adv-x="408" d="M227 475v-174h146v-47h-146v-174h-44v174h-149v47h149v174h44z" />
<glyph unicode="," horiz-adv-x="226" d="M81 89q11 10 28 10q18 0 29 -10l5 -7q11 -17 11 -48q0 -48 -25 -106t-63 -89l-21 22q31 29 50 73.5t18 81.5h-3q-16 0 -29 11q-12 12 -12 31q0 17 12 31z" />
<glyph unicode="-" horiz-adv-x="297" d="M263 301v-47h-229v47h229z" />
<glyph unicode="." horiz-adv-x="243" d="M89 71q13 12 31 12t32 -12q13 -13 13 -34t-13 -34q-14 -12 -32 -12t-31 12q-14 13 -14 34t14 34z" />
<glyph unicode="/" horiz-adv-x="417" d="M376 750h55l-374 -1000h-56z" />
<glyph unicode="0" horiz-adv-x="562" d="M281 613q-74 0 -109.5 -70t-35.5 -219q0 -150 35.5 -219t109.5 -69t109.5 69.5t35.5 218.5t-36 219t-109 70zM281 659q112 0 168.5 -88t56.5 -247t-56.5 -246.5t-168.5 -87.5t-168.5 87.5t-56.5 246.5t56.5 247t168.5 88z" />
<glyph unicode="1" horiz-adv-x="369" d="M199 650h60v-650h-72v592l-120 -67l-17 39z" />
<glyph unicode="2" horiz-adv-x="475" d="M429 68v-68h-386v60q11 4 41.5 29t73 68t81 92.5t65.5 109.5t27 113q0 71 -28.5 104.5t-97.5 33.5q-33 0 -68.5 -14t-54.5 -28l-19 -13l-8 45q8 7 22.5 16.5t56.5 26t82 16.5q100 0 147.5 -48.5t47.5 -132.5q0 -58 -30 -121t-79.5 -119t-91.5 -95.5t-88 -74.5h307z" />
<glyph unicode="3" horiz-adv-x="475" d="M172 306l-26 30l184 245h-261l4 69h327v-47l-180 -235q12 3 27 3q80 0 129.5 -49.5t49.5 -131.5q0 -93 -59 -146.5t-153 -53.5q-34 0 -64.5 7.5t-49.5 17.5t-33.5 20.5t-20.5 18.5l-7 7l24 39q6 -7 17.5 -17.5t48.5 -27.5t77 -17q71 0 107.5 39t36.5 113q0 66 -30.5 102 t-89.5 36q-15 0 -29.5 -5.5t-21.5 -10.5z" />
<glyph unicode="4" horiz-adv-x="492" d="M193 659l69 -9q-56 -214 -176 -441h229l17 346h57v-346h71v-40l-71 -5v-164h-74v164h-280l-5 38q92 182 163 457z" />
<glyph unicode="5" horiz-adv-x="465" d="M390 650l-3 -70h-231l-17 -195q35 13 72 13q94 0 151.5 -52t57.5 -141q0 -99 -66 -157t-163 -58q-32 0 -61 7t-47 17.5t-31.5 21t-19.5 17.5l-6 7l26 37q5 -7 15 -16.5t45 -26t75 -16.5q73 0 115 43.5t42 122.5q0 70 -38 111t-101 41q-31 0 -54.5 -9.5t-31.5 -18.5l-1 -3 l-30 4l30 321h272z" />
<glyph unicode="6" horiz-adv-x="517" d="M264 369q-80 0 -128 -73l1 -1q-5 -25 -5 -68q0 -193 136 -193q65 0 95 48.5t30 126.5q0 72 -32 116t-97 44zM405 625l-10 -44q-53 32 -112 32q-146 0 -155 -265q60 62 145 62q91 0 143.5 -55t52.5 -147q0 -94 -52 -156t-149 -62q-102 0 -157 67t-55 193q0 40 3 73 q10 169 67 252.5t151 83.5q31 0 63 -8.5t48 -16.5z" />
<glyph unicode="7" horiz-adv-x="421" d="M402 650v-60q-66 -123 -126.5 -288t-87.5 -302h-79q49 226 231 578h-299v72h361z" />
<glyph unicode="8" horiz-adv-x="502" d="M138 490q0 -40 12 -69t32 -43t36.5 -20t33.5 -8q16 1 31.5 7t35.5 19.5t32.5 42.5t12.5 69q0 130 -113 130t-113 -128zM374 171q0 41 -14 70.5t-36.5 43.5t-40 20t-35.5 8q-17 -2 -33.5 -8t-38 -20t-35 -43t-13.5 -70q0 -141 123 -141t123 140zM442 490q0 -117 -122 -157 q135 -36 135 -165q0 -91 -54 -134.5t-150 -43.5t-149.5 44t-53.5 136q0 118 132 162q-119 37 -119 161q0 78 51 122t139 44t139.5 -44.5t51.5 -124.5z" />
<glyph unicode="9" horiz-adv-x="517" d="M253 268q54 0 86.5 27.5t41.5 57.5q3 27 3 69q0 97 -30.5 145t-98.5 48q-65 0 -98 -52t-33 -129q0 -73 32.5 -119.5t96.5 -46.5zM95 38l19 43q4 -5 13 -12.5t38.5 -20t62.5 -12.5q70 0 113 64.5t47 194.5q-52 -68 -144 -68q-90 0 -143 56t-53 148q0 94 55 161t152 67 q101 0 153.5 -67t52.5 -193q0 -48 -2 -70q-7 -165 -69.5 -252t-158.5 -87q-43 0 -77 12t-46 24z" />
<glyph unicode=":" horiz-adv-x="245" d="M89 71q13 12 31 12t32 -12q13 -13 13 -34t-13 -34q-14 -12 -32 -12t-31 12q-14 13 -14 34t14 34zM89 450q13 12 31 12t32 -12q13 -13 13 -34t-13 -34q-14 -12 -32 -12t-31 12q-14 13 -14 34t14 34z" />
<glyph unicode=";" horiz-adv-x="243" d="M89 450q13 12 31 12t32 -12q13 -13 13 -34t-13 -34q-14 -12 -32 -12t-31 12q-14 13 -14 34t14 34zM91 89q11 10 28 10q18 0 29 -10l5 -7q11 -17 11 -48q0 -48 -25 -106t-63 -89l-21 22q31 29 50 73.5t18 81.5h-3q-16 0 -29 11q-12 12 -12 31q0 17 12 31z" />
<glyph unicode="&#x3c;" horiz-adv-x="368" d="M327 147l-26 -29l-240 200l240 199l25 -29l-196 -170z" />
<glyph unicode="=" horiz-adv-x="470" d="M436 396v-47h-402v47h402zM436 206v-47h-402v47h402z" />
<glyph unicode="&#x3e;" horiz-adv-x="368" d="M42 488l25 29l241 -199l-241 -200l-25 29l194 171z" />
<glyph unicode="?" horiz-adv-x="411" d="M115 71q13 12 31 12t32 -12q13 -13 13 -34t-13 -34q-14 -12 -32 -12t-31 12q-14 13 -14 34t14 34zM48 662l-8 43q6 6 17.5 15t51.5 24t84 15q87 0 131 -49t44 -118q0 -47 -15.5 -83t-39 -55.5t-51 -41.5t-51 -42t-39 -55.5t-15.5 -82.5q0 -14 1 -22l-31 -3q-5 27 -5 60 q0 48 17 82.5t41 55.5t48 41.5t41 54.5t17 81q0 59 -27 95t-84 36q-36 0 -67.5 -12.5t-45.5 -25.5z" />
<glyph unicode="@" horiz-adv-x="831" d="M424 23q65 0 92 67v230q-23 52 -88 52q-60 0 -90.5 -48t-30.5 -135q0 -166 117 -166zM608 -13q-75 0 -88 54q-35 -55 -110 -55t-120 51t-45 152q0 97 48.5 158t127.5 61q60 0 100 -40l14 26h32v-304q0 -38 12 -52.5t35 -14.5q46 0 77.5 59t31.5 200q0 154 -70 232.5 t-207 78.5q-155 0 -240 -101t-85 -304q0 -184 83 -278.5t230 -94.5q45 0 84.5 10t64.5 24t43.5 28t26.5 24l8 10l19 -36q-3 -4 -8.5 -11t-26.5 -25.5t-46.5 -32t-70 -25t-94.5 -11.5q-184 0 -281 108.5t-97 309.5q0 210 100.5 328t289.5 118q162 0 248.5 -92t86.5 -258 q0 -152 -49 -224.5t-124 -72.5z" />
<glyph unicode="A" horiz-adv-x="568" d="M273 592l-115 -351h228zM242 650h89l215 -650h-79l-68 200h-255l-68 -200h-53z" />
<glyph unicode="B" horiz-adv-x="542" d="M170 356h118q35 0 68.5 30t33.5 97q0 61 -37 92t-98 31h-85v-250zM292 315h-122v-271h86q163 0 163 143q0 64 -35 96t-92 32zM94 0v650h164q98 0 151.5 -44.5t53.5 -117.5q0 -98 -94 -147q58 -16 91.5 -56t33.5 -101q0 -88 -58.5 -136t-176.5 -48h-165z" />
<glyph unicode="C" horiz-adv-x="570" d="M510 556q-10 6 -26.5 15t-62.5 23.5t-85 14.5q-97 0 -152 -73.5t-55 -214.5q0 -139 56 -210t157 -71q34 0 64.5 10t51 24.5t35.5 29t22 24.5l7 10l28 -32q-3 -5 -8 -12.5t-24 -27.5t-42 -35.5t-61.5 -28t-81.5 -12.5q-135 0 -210 87.5t-75 241.5q0 156 76 248t204 92 q46 0 93.5 -13.5t72.5 -27.5l25 -14z" />
<glyph unicode="D" horiz-adv-x="634" d="M292 602h-122v-554h123q212 0 212 275q0 279 -213 279zM94 0v650h198q140 0 217.5 -84.5t77.5 -242.5q0 -157 -76.5 -240t-218.5 -83h-198z" />
<glyph unicode="E" horiz-adv-x="507" d="M466 48v-48h-372v650h350v-48h-274v-250h251v-46h-251v-258h296z" />
<glyph unicode="F" horiz-adv-x="464" d="M412 343v-46h-242v-297h-76v650h357v-48h-281v-259h242z" />
<glyph unicode="G" horiz-adv-x="620" d="M543 338v-338h-37l-19 71q-56 -81 -172 -81q-127 0 -197 88t-70 245q0 159 76 247.5t215 88.5q46 0 93.5 -13.5t72.5 -27.5l25 -14l-9 -48q-10 6 -26.5 15t-62.5 23.5t-85 14.5q-111 0 -164.5 -71.5t-53.5 -214.5q0 -140 52 -211.5t145 -71.5q41 0 72 13t47.5 34t23 34.5 t10.5 26.5v147h-133v43h197z" />
<glyph unicode="H" horiz-adv-x="638" d="M543 650v-650h-76v312h-297v-312h-76v650h76v-292h297v292h76z" />
<glyph unicode="I" horiz-adv-x="265" d="M170 650v-650h-76v650h76z" />
<glyph unicode="J" horiz-adv-x="362" d="M26 71q3 -4 8 -9.5t26 -14.5t47 -9q93 0 93 153v459h75v-459q0 -112 -40 -156.5t-111 -44.5q-41 0 -70.5 10.5t-38.5 21.5l-9 10z" />
<glyph unicode="K" horiz-adv-x="580" d="M94 0v650h76v-354l79 70l219 284h61l-228 -290l259 -360h-95l-220 302l-75 -63v-239h-76z" />
<glyph unicode="L" horiz-adv-x="471" d="M459 48v-48h-365v650h76v-602h289z" />
<glyph unicode="M" horiz-adv-x="835" d="M738 650l3 -650h-74l-3 557h-1l-225 -557h-61l-226 557l-2 -557h-55l3 650l2 -3l-1 3h93l229 -557h1l229 557h88z" />
<glyph unicode="N" horiz-adv-x="651" d="M557 650v-650h-66l-346 554h-1l5 -31v-523h-55v650h79l332 -536l-3 24v512h55z" />
<glyph unicode="O" horiz-adv-x="654" d="M525 324q0 139 -51.5 213t-147.5 74q-95 0 -146 -74t-51 -213q0 -140 50.5 -213t146.5 -73t147.5 73t51.5 213zM606 324q0 -156 -74 -245t-206 -89q-131 0 -204.5 89t-73.5 245q0 155 73.5 245t204.5 90t205.5 -90t74.5 -245z" />
<glyph unicode="P" horiz-adv-x="496" d="M242 606h-72v-336h71q140 0 140 171q0 165 -139 165zM94 0v650h156q100 0 155.5 -52t55.5 -154q0 -112 -61.5 -164t-147.5 -52h-82v-228h-76z" />
<glyph unicode="Q" horiz-adv-x="654" d="M525 324q0 138 -52 212.5t-147 74.5t-146 -74.5t-51 -212.5q0 -139 51 -212.5t146 -73.5q96 0 147.5 73.5t51.5 212.5zM563 -149q-24 -10 -53 -10q-59 0 -116.5 42t-92.5 108q-120 8 -186.5 96.5t-66.5 236.5q0 155 73.5 245t204.5 90q132 0 206 -88t74 -244 q0 -139 -60 -227.5t-168 -105.5q73 -111 147 -111q17 0 33 6z" />
<glyph unicode="R" horiz-adv-x="539" d="M242 606h-72v-320h81q65 0 98 37t33 125q0 158 -140 158zM251 650q99 0 155 -51.5t56 -147.5q0 -77 -33 -126t-87 -70l163 -255h-87l-149 241h-99v-241h-76v650h157z" />
<glyph unicode="S" horiz-adv-x="490" d="M419 603l-10 -44q-6 6 -17.5 15t-48 24t-74.5 15q-56 0 -88 -31t-32 -84q0 -46 30.5 -76t73.5 -47t86 -36.5t73.5 -59.5t30.5 -101q0 -83 -56.5 -135.5t-150.5 -52.5q-41 0 -76 9t-55.5 21t-35 24.5t-19.5 21.5l-6 9l25 39q2 -3 5.5 -8t17.5 -18t31 -23t46.5 -18t63.5 -8 q63 0 99 36.5t36 90.5q0 46 -30.5 76t-73.5 47.5t-86 36.5t-73.5 57.5t-30.5 96.5q0 82 52 130.5t139 48.5q43 0 81.5 -14t55.5 -28z" />
<glyph unicode="T" horiz-adv-x="461" d="M454 650v-48h-186v-602h-76v602h-185v48h447z" />
<glyph unicode="U" horiz-adv-x="620" d="M310 -10q-109 0 -166.5 60t-57.5 162v438h75v-421q0 -91 40 -139.5t117 -48.5q80 0 120.5 49.5t40.5 138.5v421h55v-438q0 -102 -56 -162t-168 -60z" />
<glyph unicode="V" horiz-adv-x="548" d="M315 0h-88l-212 650h79l189 -594l192 594h56z" />
<glyph unicode="W" horiz-adv-x="848" d="M775 650h56l-175 -650h-70l-162 554l-160 -554h-70l-179 650h80l148 -563l159 563h67l162 -562z" />
<glyph unicode="X" horiz-adv-x="541" d="M18 0l208 323l-200 327h92l161 -272l168 272h63l-199 -315l212 -335h-93l-171 279h-1l-173 -279h-67z" />
<glyph unicode="Y" horiz-adv-x="507" d="M2 650h85l179 -320l178 320h61l-212 -376v-274h-76v269z" />
<glyph unicode="Z" horiz-adv-x="527" d="M485 650v-41l-353 -561h353v-48h-445v40l352 562h-343v48h436z" />
<glyph unicode="[" horiz-adv-x="334" d="M323 -31v-45h-235v777h235v-44h-171v-688h171z" />
<glyph unicode="\" horiz-adv-x="417" d="M-14 750h55l375 -1000h-55z" />
<glyph unicode="]" horiz-adv-x="334" d="M247 701v-777h-236v45h171v688h-171v44h236z" />
<glyph unicode="^" horiz-adv-x="336" d="M167 687l135 -167l-25 -26l-109 129l-111 -129l-23 26z" />
<glyph unicode="_" horiz-adv-x="624" d="M590 -99v-47h-556v47h556z" />
<glyph unicode="`" horiz-adv-x="207" d="M-10 708l62 16l83 -143l-40 -8z" />
<glyph unicode="a" horiz-adv-x="477" d="M315 107v146q-208 -23 -208 -131q0 -43 25 -65.5t68 -22.5q23 0 43.5 7.5t33 18t21.5 21.5t13 19zM89 423l-8 41q68 46 141 46q86 0 126 -36t40 -127v-245q0 -68 26 -68q7 0 16.5 2t15.5 4l7 3l3 -34q-49 -19 -78 -19q-26 0 -40 16.5t-17 58.5h-1q-1 -3 -4.5 -8t-15 -18 t-26.5 -23t-40.5 -18t-55.5 -8q-66 0 -106 32.5t-40 90.5q0 147 283 177v53q0 71 -23 97t-81 26q-26 0 -56.5 -11t-48.5 -21z" />
<glyph unicode="b" d="M261 463q-27 0 -50 -9.5t-36 -24.5t-18.5 -23.5t-8.5 -14.5v-309q4 -6 13 -15t35 -19.5t58 -10.5q77 0 112.5 56.5t35.5 168.5q0 201 -141 201zM75 0v748l73 4v-309h1q1 3 4 7.5t13.5 16t24.5 20.5t38 16.5t53 7.5q89 0 143 -65.5t54 -181.5q0 -126 -53 -200.5 t-153 -74.5q-86 0 -132 50l-14 -39h-52z" />
<glyph unicode="c" horiz-adv-x="423" d="M386 426q-57 40 -123 40q-77 0 -113 -51t-36 -169q0 -212 145 -212q24 0 46 6.5t35.5 15.5t23.5 18t14 16l5 6l32 -21q-2 -3 -5 -9t-16.5 -20.5t-30.5 -26t-46.5 -20.5t-63.5 -9q-104 0 -160 64t-56 191q0 128 55.5 196.5t162.5 68.5q35 0 70 -11t53 -21l17 -11z" />
<glyph unicode="d" d="M254 39q23 0 43.5 7t33 17.5t21.5 21t13 17.5l4 7v307q-4 5 -11.5 12.5t-35 20.5t-59.5 13q-149 0 -149 -224q0 -199 140 -199zM441 752v-752h-62l-8 59q-6 -12 -17 -25t-43 -28.5t-73 -15.5q-91 0 -146 65t-55 181q0 125 53.5 199.5t150.5 74.5q41 0 72.5 -12t42.5 -24 l12 -12h1v286z" />
<glyph unicode="e" horiz-adv-x="453" d="M242 467q-118 0 -128 -189h239q1 10 1 19q0 170 -112 170zM388 99l29 -24q-2 -3 -5.5 -9t-18 -20.5t-32 -26t-47 -20.5t-63.5 -9q-100 0 -157 62.5t-57 187.5q0 126 55 198t150 72q86 0 132.5 -59.5t46.5 -168.5l-5 -46h-303q0 -202 146 -202q25 0 47.5 6.5t36.5 16 t25 19.5t16 16z" />
<glyph unicode="f" horiz-adv-x="313" d="M312 500v-49h-145v-451h-72v451h-52v42l52 6v72q0 97 30 142.5t101 45.5q24 0 47.5 -7.5t35.5 -14.5l12 -7l-10 -39q-34 23 -72 23q-39 0 -55.5 -32t-16.5 -119v-63h145z" />
<glyph unicode="g" horiz-adv-x="451" d="M334 334q0 133 -107 133q-110 0 -110 -134q0 -68 29 -103t82 -35q106 0 106 139zM219 1q-47 0 -75 8q-67 -28 -67 -105q0 -119 159 -119q70 0 108 28.5t38 82.5q0 105 -163 105zM231 510q39 0 69 -10h1l128 -1v-39l-64 -2q40 -45 40 -125q0 -86 -46.5 -132t-128.5 -46 q-34 0 -61 7q-35 -23 -35 -52q0 -27 22 -37.5t71 -10.5q219 0 219 -154q0 -82 -54.5 -125t-155.5 -43q-106 0 -161 41.5t-55 121.5q0 97 83 131q-18 21 -18 59q0 49 46 84q-84 43 -84 156q0 91 51.5 134t132.5 43z" />
<glyph unicode="h" horiz-adv-x="512" d="M74 0v748l73 4v-297h1l3 3q3 3 8.5 8t13.5 10.5t20 11.5t26 11t33 8t39 3q73 0 112.5 -40.5t39.5 -120.5v-349h-72v340q0 117 -104 117q-36 0 -66 -12.5t-42 -24.5l-12 -13v-407h-73z" />
<glyph unicode="i" horiz-adv-x="222" d="M82 676q11 11 29 11q19 0 30 -10q12 -13 12 -33q0 -18 -12 -32q-14 -11 -30 -11q-18 0 -29 11q-13 13 -13 32t13 32zM147 500v-500h-73v500h73z" />
<glyph unicode="j" horiz-adv-x="240" d="M100 676q11 11 29 11q19 0 30 -10q12 -13 12 -33q0 -18 -12 -32q-14 -11 -30 -11q-18 0 -29 11q-13 13 -13 32t13 32zM92 -41v541h73v-541q0 -219 -141 -219q-24 0 -42 5.5t-24 10.5l-7 6l14 41q19 -16 50 -16q39 0 58 40t19 132z" />
<glyph unicode="k" horiz-adv-x="456" d="M74 0v748l73 4v-481l61 42l149 187h55l-165 -205l186 -295h-83l-159 252l-44 -27v-225h-73z" />
<glyph unicode="l" horiz-adv-x="223" d="M147 752v-752h-72v748z" />
<glyph unicode="m" horiz-adv-x="725" d="M75 0v500h60l9 -53q55 63 141 63q81 0 105 -61q9 10 23 21.5t49 25.5t74 14q63 0 92 -33t29 -110v-367h-73v359q0 58 -18 78.5t-57 20.5q-29 0 -55 -12.5t-36.5 -22.5t-17.5 -20q2 -22 2 -35v-368h-73v359q0 57 -17.5 78t-55.5 21q-29 0 -55.5 -12.5t-37.5 -23t-16 -18.5 v-404h-72z" />
<glyph unicode="n" horiz-adv-x="512" d="M75 0v500h60l9 -48q50 58 148 58q72 0 112 -40.5t40 -120.5v-349h-73v334q0 123 -103 123q-36 0 -66.5 -12.5t-42.5 -24.5l-12 -13v-407h-72z" />
<glyph unicode="o" horiz-adv-x="501" d="M250 466q-70 0 -103 -53.5t-33 -162.5t33 -162.5t103 -53.5q136 0 136 216t-136 216zM463 250q0 -123 -55.5 -191.5t-157.5 -68.5q-104 0 -158.5 68t-54.5 192t54.5 192t158.5 68t158.5 -68t54.5 -192z" />
<glyph unicode="p" d="M262 461q-23 0 -43.5 -7t-33 -17t-21.5 -20t-13 -17l-4 -7v-311q37 -44 105 -44q78 0 114 55.5t36 168.5q0 199 -140 199zM75 -252v752h60l9 -60q5 8 13 16.5t25 22t44 22.5t60 9q88 0 140.5 -65t52.5 -181q0 -126 -53 -200t-150 -74q-41 0 -73 12t-43 24l-12 12h-1v-288 z" />
<glyph unicode="q" d="M257 39q37 0 64.5 17t36.5 34l10 17v312q-38 43 -103 43q-151 0 -151 -224q0 -106 37 -152.5t106 -46.5zM441 500v-750l-73 -2v312h-1q-1 -3 -4 -7.5t-13.5 -16.5t-24 -21.5t-38 -17t-52.5 -7.5q-89 0 -143 65t-54 181q0 125 54.5 199.5t152.5 74.5q81 0 127 -46l17 36 h52z" />
<glyph unicode="r" horiz-adv-x="329" d="M322 494l-7 -55q-44 15 -75 15q-22 0 -41 -13t-29.5 -31.5t-15.5 -30.5t-7 -19v-360h-73v500h54l11 -103q1 5 3 12.5t11 27t20 34.5t31 27t44 12q14 0 32.5 -4t29.5 -8z" />
<glyph unicode="s" horiz-adv-x="408" d="M36 64l25 35q5 -7 14 -18t41.5 -29t70.5 -18q56 0 84.5 28t28.5 68q0 37 -25 59t-60.5 34t-71.5 26t-61 44t-25 78q0 64 46.5 101.5t119.5 37.5q32 0 65 -10t50 -20l17 -9l-12 -43q-53 40 -114 40q-46 0 -74.5 -23t-28.5 -58q0 -37 26 -60t62.5 -35.5t73 -26.5 t62.5 -44.5t26 -78.5q0 -65 -45 -108.5t-132 -43.5q-34 0 -63 7.5t-46.5 18.5t-30.5 22t-18 18z" />
<glyph unicode="t" horiz-adv-x="326" d="M293 500v-49h-128v-299q0 -65 12.5 -89.5t43.5 -24.5q18 0 34 3t23 5l8 3l5 -40q-28 -19 -93 -19q-54 0 -80 33.5t-26 110.5v317h-52v42l52 6l27 159h46v-158h128z" />
<glyph unicode="u" horiz-adv-x="512" d="M437 500v-500h-61l-10 48q-7 -9 -18.5 -19.5t-47 -24.5t-79.5 -14q-73 0 -113 40.5t-40 120.5v349h73v-334q0 -123 104 -123q36 0 65.5 12.5t41.5 25.5l12 13v406h73z" />
<glyph unicode="v" horiz-adv-x="435" d="M184 0l-171 500h86l130 -421l138 421h55l-172 -500h-66z" />
<glyph unicode="w" horiz-adv-x="657" d="M588 500h56l-135 -500h-64l-117 403l-118 -403h-65l-131 500h81l94 -408l119 408h57l125 -408z" />
<glyph unicode="x" horiz-adv-x="443" d="M417 500l-155 -239l168 -261h-85l-134 216l-139 -216h-60l166 249l-158 251h86l123 -209l129 209h59z" />
<glyph unicode="y" horiz-adv-x="449" d="M24 -201q19 -9 41 -9q46 0 77 49.5t69 154.5l-196 506h86l148 -418l134 418h53l-173 -508q-21 -59 -37.5 -98t-39.5 -77.5t-50.5 -57.5t-59.5 -19q-18 0 -33 3t-21 7l-6 3z" />
<glyph unicode="z" horiz-adv-x="415" d="M375 500v-40l-254 -415h252l2 -45h-340v40l256 415h-234l-3 45h321z" />
<glyph unicode="{" horiz-adv-x="375" d="M98 268v48q31 0 62 26t31 63q0 30 -13.5 98t-13.5 104q0 70 39 105.5t137 35.5v-43q-62 0 -88 -26t-26 -77q0 -32 13.5 -102t13.5 -103q0 -36 -21 -63t-57 -42q36 -15 57 -42t21 -63q0 -33 -13.5 -103t-13.5 -102q0 -51 26 -77t88 -26v-43q-98 0 -137 35.5t-39 105.5 q0 36 13.5 104t13.5 98q0 37 -31 63t-62 26z" />
<glyph unicode="|" horiz-adv-x="292" d="M171 750v-1000h-50v1000h50z" />
<glyph unicode="}" horiz-adv-x="375" d="M60 -121q61 0 87 26t26 77q0 32 -13.5 102t-13.5 103q0 72 77 105q-77 33 -77 105q0 33 13.5 103t13.5 102q0 51 -26 77t-87 26v43q98 0 137 -35.5t39 -105.5q0 -36 -14 -104t-14 -98q0 -37 31.5 -63t62.5 -26v-48q-31 0 -62.5 -26t-31.5 -63q0 -30 14 -98t14 -104 q0 -70 -39 -105.5t-137 -35.5v43z" />
<glyph unicode="~" horiz-adv-x="573" d="M515 374l28 -19q-1 -4 -3 -11t-12 -24.5t-23 -30.5t-37 -24t-53 -11q-39 0 -75 16t-58.5 36t-56.5 36t-70 16q-20 0 -37 -6t-27 -14t-17 -16t-10 -14l-3 -6l-30 21q1 4 3.5 11.5t13.5 25.5t25 32t40.5 25.5t58.5 11.5q43 0 80.5 -16.5t60.5 -35.5t55.5 -35.5t66.5 -16.5 q29 0 49 12.5t26 24.5z" />
<glyph unicode="&#xa1;" horiz-adv-x="276" d="M105 496q13 12 31 12t32 -12q13 -13 13 -34t-13 -34q-14 -12 -32 -12t-31 12q-14 13 -14 34t14 34zM96 -250v83l19 455h44l18 -455v-83h-81z" />
<glyph unicode="&#xa2;" horiz-adv-x="423" d="M386 493q-57 40 -123 40q-77 0 -113 -51t-36 -169q0 -212 145 -212q24 0 46 6.5t35.5 15.5t23.5 18t14 15l5 7l32 -21q-1 -3 -4.5 -8t-15.5 -19t-26.5 -24.5t-40.5 -20.5t-56 -13l-3 -107h-42l-6 109q-184 19 -184 253q0 117 46.5 184.5t136.5 78.5l4 125h42l6 -124 q31 -2 62 -12.5t46 -19.5l15 -10z" />
<glyph unicode="&#xa3;" horiz-adv-x="508" d="M429 328v-47h-223q-3 -154 -51 -214h331v-67h-440v67h38q58 40 58 148q0 33 -3 67l-93 3v43h88q-11 110 -11 155q0 85 45.5 130.5t130.5 45.5q27 0 58.5 -9.5t50.5 -18.5l18 -9l-12 -43q-56 32 -100 32q-56 0 -83 -31t-27 -101q0 -55 2 -151h223z" />
<glyph unicode="&#xa4;" horiz-adv-x="540" d="M380 314q0 64 -30 100.5t-79 36.5q-50 0 -80 -36.5t-30 -99.5t30 -100.5t80 -37.5q49 0 79 37t30 100zM423 314q0 -69 -34 -118l101 -107l-27 -37l-94 120q-41 -39 -98 -39t-98 38l-94 -118l-28 37l101 106q-33 47 -33 118q0 67 32 117l-101 108l28 37l94 -121 q42 40 99 40q54 0 96 -37l95 117l27 -37l-101 -105q35 -49 35 -119z" />
<glyph unicode="&#xa5;" horiz-adv-x="563" d="M29 650h85l179 -320l178 320h61l-186 -330h111v-40h-134l-3 -6v-89h137v-40h-137v-145h-76v145h-147v40h147v84l-6 11h-141v40h118z" />
<glyph unicode="&#xa6;" horiz-adv-x="292" d="M171 750v-400h-50v400h50zM171 150v-400h-50v400h50z" />
<glyph unicode="&#xa7;" horiz-adv-x="486" d="M118 322q0 -47 37 -73t101.5 -48t92.5 -42q47 28 47 87q0 34 -26 58.5t-59 36t-79 29t-72 34.5q-42 -24 -42 -82zM67 308q0 82 64 121q-30 32 -30 81q0 64 44.5 106.5t128.5 42.5q33 0 67 -11.5t51 -23.5l17 -12l-8 -40q-57 43 -117 43q-59 0 -85.5 -29t-26.5 -68 q0 -37 28.5 -61.5t69 -38.5t80.5 -29.5t68.5 -48t28.5 -82.5q0 -81 -70 -124q28 -33 28 -79q0 -63 -46 -103.5t-136 -40.5q-47 0 -84.5 12.5t-51.5 24.5l-14 12l17 40q4 -5 13 -12.5t41.5 -20t69.5 -12.5q64 0 92 26.5t28 66.5q0 36 -27.5 59.5t-67 37t-78.5 30t-66.5 49.5 t-27.5 84z" />
<glyph unicode="&#xa8;" horiz-adv-x="375" d="M49 674q13 10 27 10q13 0 26 -10q11 -13 11 -30q0 -16 -11 -29q-13 -10 -26 -10q-14 0 -27 10q-11 11 -11 29q0 19 11 30zM203 674q13 10 26 10t26 -10q12 -12 12 -30q0 -17 -12 -29q-13 -10 -26 -10t-26 10q-11 11 -11 29q0 19 11 30z" />
<glyph unicode="&#xa9;" horiz-adv-x="729" d="M472 462l-10 -31q-33 32 -80 32q-52 0 -81 -37t-29 -109q0 -69 30.5 -105.5t80.5 -36.5q28 0 49.5 13t29.5 26l8 13l19 -21q-1 -3 -3 -7.5t-11.5 -15.5t-21 -20t-33 -16t-47.5 -7q-66 0 -110 47.5t-44 129.5q0 84 43.5 132t114.5 48q26 0 50 -8.5t35 -17.5zM615 322 q0 143 -68 224t-185 81q-116 0 -182.5 -81t-66.5 -224q0 -142 66.5 -221t182.5 -79q118 0 185.5 79t67.5 221zM654 323q0 -157 -77 -247t-214 -90t-213.5 90t-76.5 247t77.5 248.5t212.5 91.5q136 0 213.5 -91.5t77.5 -248.5z" />
<glyph unicode="&#xaa;" horiz-adv-x="389" d="M176 347q58 0 82 60v104q-35 -3 -60 -8.5t-50 -15.5t-38 -27.5t-13 -42.5q0 -70 79 -70zM272 320l-13 53q-4 -11 -12.5 -23t-34.5 -26t-62 -14q-57 0 -87 26.5t-30 74.5q0 113 225 129v17q0 46 -19 67.5t-62 21.5q-28 0 -53 -10t-36 -20l-11 -11l-16 24q4 6 12 14.5 t40.5 22.5t74.5 14q69 0 102 -31t33 -97v-232h-51z" />
<glyph unicode="&#xab;" horiz-adv-x="484" d="M422 395l-108 -146l108 -148l-23 -27l-154 176l155 171zM260 395l-108 -146l108 -148l-23 -27l-154 176l155 171z" />
<glyph unicode="&#xac;" horiz-adv-x="447" d="M392 341v-213h-43v167h-296v46h339z" />
<glyph unicode="&#xad;" horiz-adv-x="310" d="M269 301v-47h-229v47h229z" />
<glyph unicode="&#xae;" horiz-adv-x="617" d="M309 584h-44v-137h44q70 0 70 74q0 63 -70 63zM226 294v317h83q113 0 113 -90q0 -73 -69 -93l66 -134h-43l-63 128h-48v-128h-39zM526 452q0 125 -58 198t-160 73t-159.5 -73t-57.5 -198t57 -195.5t160 -70.5q102 0 160 71t58 195zM565 453q0 -139 -68 -221t-189 -82 t-188.5 82t-67.5 221t69 221.5t187 82.5t187.5 -82.5t69.5 -221.5z" />
<glyph unicode="&#xaf;" horiz-adv-x="395" d="M290 672v-36h-186v36h186z" />
<glyph unicode="&#xb0;" horiz-adv-x="409" d="M302 574q0 71 -25.5 108.5t-71.5 37.5q-97 0 -97 -146q0 -71 25 -109t71 -38q47 0 72.5 38.5t25.5 108.5zM362 573q0 -86 -42 -137t-115 -51q-75 0 -116 51t-41 137t42 137.5t115 51.5q72 0 114.5 -52t42.5 -137z" />
<glyph unicode="&#xb1;" horiz-adv-x="470" d="M436 198v-47h-402v47h402zM259 723v-174h146v-47h-146v-174h-44v174h-149v47h149v174h44z" />
<glyph unicode="&#xb2;" horiz-adv-x="377" d="M333 293v-63h-292v55q13 5 45.5 36t69.5 75t65.5 102t28.5 106q0 57 -21 84t-71 27q-19 0 -43.5 -10.5t-39.5 -20.5l-15 -11l-8 39q60 46 123 46q74 0 110.5 -40.5t36.5 -108.5q0 -141 -211 -316h222z" />
<glyph unicode="&#xb3;" horiz-adv-x="376" d="M315 750v-43l-132 -181q2 0 7.5 0.5t8.5 0.5q58 0 95 -40t37 -107q0 -75 -47 -117t-118 -42q-41 0 -72.5 11.5t-42.5 23.5l-11 12l19 35q2 -3 11 -11t33.5 -18t53.5 -10q50 0 78.5 31t28.5 87q0 52 -20 79.5t-58 27.5q-24 0 -42 -18l-1 -1l-24 27l135 190h-190l4 63h247z " />
<glyph unicode="&#xb4;" horiz-adv-x="207" d="M133 721l63 -15l-102 -135l-38 5z" />
<glyph unicode="&#xb5;" horiz-adv-x="518" d="M443 500v-500h-61l-10 48q-7 -9 -18.5 -19.5t-47 -24.5t-79.5 -14q-49 0 -83 18q5 -143 5 -258h-74v377q-1 8 -1 24v349h73v-334q0 -123 104 -123q36 0 65.5 12.5t41.5 25.5l12 13v406h73z" />
<glyph unicode="&#xb6;" horiz-adv-x="597" d="M550 650v-55h-58v-595h-61v595h-95v-595h-60v244q-113 0 -170.5 48.5t-57.5 157.5q0 100 58.5 150t183.5 50h260z" />
<glyph unicode="&#xb7;" horiz-adv-x="243" d="M89 371q13 12 31 12t32 -12q13 -13 13 -34t-13 -34q-14 -12 -32 -12t-31 12q-14 13 -14 34t14 34z" />
<glyph unicode="&#xb8;" horiz-adv-x="234" d="M104 -3h28l-7 -66l24 -6q24 -6 48 -26t24 -54q0 -45 -26.5 -70.5t-77.5 -25.5q-30 0 -53 10.5t-31 20.5l-8 11l18 20q22 -32 67 -32q66 0 66 68q0 26 -21 40t-42 17t-21 4z" />
<glyph unicode="&#xb9;" horiz-adv-x="376" d="M188 750h54v-520h-66v460l-89 -58l-17 42z" />
<glyph unicode="&#xba;" horiz-adv-x="419" d="M209 645q-104 0 -104 -150q0 -152 104 -152t104 152q0 150 -104 150zM381 495q0 -87 -44.5 -136t-127.5 -49q-85 0 -128.5 48.5t-43.5 136.5t43.5 136.5t128.5 48.5t128.5 -48.5t43.5 -136.5z" />
<glyph unicode="&#xbb;" horiz-adv-x="484" d="M224 394l23 27l153 -177l-154 -170l-23 26l108 145zM62 394l23 27l153 -177l-154 -170l-23 26l108 145z" />
<glyph unicode="&#xbc;" horiz-adv-x="727" d="M465 278l63 -8q-40 -182 -121 -347h150v163l16 108h52v-271h49v-36l-49 -6v-131h-68v131h-195l-5 35q59 130 108 362zM557 561l-303 -561l-35 20l303 562zM188 750h54v-520h-66v460l-89 -58l-17 42z" />
<glyph unicode="&#xbd;" horiz-adv-x="786" d="M721 -187v-63h-291v55q13 5 45.5 36t69.5 75t65.5 102t28.5 106q0 57 -21 83.5t-72 26.5q-19 0 -43 -10t-39 -20l-15 -11l-9 39q61 46 124 46q74 0 110.5 -41t36.5 -108q0 -142 -210 -316h220zM557 561l-303 -561l-35 20l303 562zM188 750h54v-520h-66v460l-89 -58 l-17 42z" />
<glyph unicode="&#xbe;" horiz-adv-x="775" d="M513 278l63 -8q-40 -182 -121 -347h150v163l16 108h52v-271h49v-36l-49 -6v-131h-68v131h-195l-5 35q59 130 108 362zM604 561l-303 -561l-35 20l303 562zM316 750v-43l-132 -181q2 0 7.5 0.5t8.5 0.5q58 0 95 -40t37 -107q0 -75 -47 -117t-118 -42q-41 0 -72.5 11.5 t-42.5 23.5l-11 12l19 35q2 -3 11 -11t33.5 -18t53.5 -10q50 0 78.5 31t28.5 87q0 52 -20 79.5t-58 27.5q-24 0 -42 -18l-1 -1l-24 27l135 190h-190l4 63h247z" />
<glyph unicode="&#xbf;" horiz-adv-x="411" d="M233 496q13 12 31 12t32 -12q13 -13 13 -34t-13 -34q-14 -12 -32 -12t-31 12q-14 13 -14 34t14 34zM337 -192l18 -41q-41 -27 -120 -27q-104 0 -151 49t-47 118q0 41 12 72.5t30.5 51.5t41.5 37l46 34t41.5 37.5t30.5 52t12 72.5q0 4 -0.5 11t-0.5 10l34 3q5 -35 5 -55 q0 -42 -12.5 -74t-31.5 -49.5t-41 -37t-41 -36.5t-31.5 -47.5t-12.5 -71.5q0 -131 123 -131q25 0 49 5.5t35 10.5z" />
<glyph unicode="&#xc0;" horiz-adv-x="568" d="M175 843l62 16l83 -143l-40 -8zM273 592l-115 -351h228zM242 650h89l215 -650h-79l-68 200h-255l-68 -200h-53z" />
<glyph unicode="&#xc1;" horiz-adv-x="568" d="M332 856l63 -15l-102 -135l-38 5zM273 592l-115 -351h228zM242 650h89l215 -650h-79l-68 200h-255l-68 -200h-53z" />
<glyph unicode="&#xc2;" horiz-adv-x="568" d="M304 878l108 -114l-18 -32l-110 97l-110 -97l-19 32l110 114h39zM273 592l-115 -351h228zM242 650h89l215 -650h-79l-68 200h-255l-68 -200h-53z" />
<glyph unicode="&#xc3;" horiz-adv-x="568" d="M429 806l23 -25q-3 -6 -8.5 -14.5t-27 -22.5t-49.5 -14q-30 0 -79 23t-75 23q-17 0 -32 -10t-21 -20l-7 -9l-23 25q1 3 3.5 7t11.5 15t19 19t27 15t35 7q33 0 80.5 -23t71.5 -23q16 0 29 6.5t17 13.5zM273 592l-115 -351h228zM242 650h89l215 -650h-79l-68 200h-255 l-68 -200h-53z" />
<glyph unicode="&#xc4;" horiz-adv-x="568" d="M183 809q13 10 27 10q13 0 26 -10q11 -13 11 -30q0 -16 -11 -29q-13 -10 -26 -10q-14 0 -27 10q-11 11 -11 29q0 19 11 30zM337 809q13 10 26 10t26 -10q12 -12 12 -30q0 -17 -12 -29q-13 -10 -26 -10t-26 10q-11 11 -11 29q0 19 11 30zM273 592l-115 -351h228zM242 650 h89l215 -650h-79l-68 200h-255l-68 -200h-53z" />
<glyph unicode="&#xc5;" horiz-adv-x="568" d="M344 779q0 33 -17 50t-43 17q-27 0 -44 -17t-17 -50q0 -34 17 -50.5t44 -16.5t43.5 16.5t16.5 50.5zM373 779q0 -45 -24.5 -69t-64.5 -24t-64.5 24t-24.5 69q0 44 25 69t64 25q38 0 63.5 -25t25.5 -69zM273 592l-115 -351h228zM242 650h89l215 -650h-79l-68 200h-255 l-68 -200h-53z" />
<glyph unicode="&#xc6;" horiz-adv-x="789" d="M377 602l-194 -356h198v356h-4zM359 650h373v-48h-275v-250h251v-46h-251v-258h296v-48h-372v205h-220l-116 -205h-57z" />
<glyph unicode="&#xc7;" horiz-adv-x="570" d="M510 556q-10 6 -26.5 15t-62.5 23.5t-85 14.5q-97 0 -152 -73.5t-55 -214.5q0 -139 56 -210t157 -71q34 0 64.5 10t51 24.5t35.5 29t22 24.5l7 10l28 -32q-3 -5 -8 -12.5t-24 -27.5t-42 -35t-61 -28t-81 -13l-6 -59l24 -6q24 -6 48 -26t24 -54q0 -45 -26.5 -70.5 t-77.5 -25.5q-30 0 -53 10.5t-31 20.5l-8 11l18 20q22 -32 67 -32q66 0 66 68q0 26 -21 40t-42 17t-21 4l11 83q-123 9 -190.5 95t-67.5 233q0 156 76 248t204 92q46 0 93.5 -13.5t72.5 -27.5l25 -14z" />
<glyph unicode="&#xc8;" horiz-adv-x="507" d="M168 843l62 16l83 -143l-40 -8zM466 48v-48h-372v650h350v-48h-274v-250h251v-46h-251v-258h296z" />
<glyph unicode="&#xc9;" horiz-adv-x="507" d="M325 856l63 -15l-102 -135l-38 5zM466 48v-48h-372v650h350v-48h-274v-250h251v-46h-251v-258h296z" />
<glyph unicode="&#xca;" horiz-adv-x="507" d="M301 878l108 -114l-18 -32l-110 97l-110 -97l-19 32l110 114h39zM466 48v-48h-372v650h350v-48h-274v-250h251v-46h-251v-258h296z" />
<glyph unicode="&#xcb;" horiz-adv-x="507" d="M164 809q13 10 26 10q14 0 27 -10q11 -13 11 -30q0 -16 -11 -29q-13 -10 -27 -10q-13 0 -26 10q-11 11 -11 29q0 19 11 30zM318 809q13 10 26 10t26 -10q12 -12 12 -30q0 -17 -12 -29q-13 -10 -26 -10t-26 10q-11 11 -11 29q0 19 11 30zM466 48v-48h-372v650h350v-48 h-274v-250h251v-46h-251v-258h296z" />
<glyph unicode="&#xcc;" horiz-adv-x="265" d="M19 843l62 16l83 -143l-40 -8zM170 650v-650h-76v650h76z" />
<glyph unicode="&#xcd;" horiz-adv-x="265" d="M176 856l63 -15l-102 -135l-38 5zM170 650v-650h-76v650h76z" />
<glyph unicode="&#xce;" horiz-adv-x="265" d="M151 878l108 -114l-18 -32l-110 97l-110 -97l-19 32l110 114h39zM170 650v-650h-76v650h76z" />
<glyph unicode="&#xcf;" horiz-adv-x="265" d="M27 809q13 10 27 10q13 0 26 -10q11 -13 11 -30q0 -16 -11 -29q-13 -10 -26 -10q-14 0 -27 10q-11 11 -11 29q0 19 11 30zM181 809q13 10 26 10t26 -10q12 -12 12 -30q0 -17 -12 -29q-13 -10 -26 -10t-26 10q-11 11 -11 29q0 19 11 30zM170 650v-650h-76v650h76z" />
<glyph unicode="&#xd0;" horiz-adv-x="638" d="M292 602h-122v-258h189v-42h-189v-254h123q212 0 212 275q0 279 -213 279zM94 0v302h-69v42h69v306h198q140 0 217.5 -84.5t77.5 -242.5q0 -157 -76.5 -240t-218.5 -83h-198z" />
<glyph unicode="&#xd1;" horiz-adv-x="651" d="M472 806l23 -25q-3 -6 -8.5 -14.5t-27 -22.5t-49.5 -14q-30 0 -79 23t-75 23q-17 0 -32 -10t-22 -20l-6 -9l-23 25q1 3 3.5 7t11.5 15t19 19t27 15t35 7q33 0 80.5 -23t71.5 -23q16 0 28.5 6.5t17.5 13.5zM557 650v-650h-66l-346 554h-1l5 -31v-523h-55v650h79l332 -536 l-3 24v512h55z" />
<glyph unicode="&#xd2;" horiz-adv-x="654" d="M213 843l62 16l83 -143l-40 -8zM525 324q0 139 -51.5 213t-147.5 74q-95 0 -146 -74t-51 -213q0 -140 50.5 -213t146.5 -73t147.5 73t51.5 213zM606 324q0 -156 -74 -245t-206 -89q-131 0 -204.5 89t-73.5 245q0 155 73.5 245t204.5 90t205.5 -90t74.5 -245z" />
<glyph unicode="&#xd3;" horiz-adv-x="654" d="M370 856l63 -15l-102 -135l-38 5zM525 324q0 139 -51.5 213t-147.5 74q-95 0 -146 -74t-51 -213q0 -140 50.5 -213t146.5 -73t147.5 73t51.5 213zM606 324q0 -156 -74 -245t-206 -89q-131 0 -204.5 89t-73.5 245q0 155 73.5 245t204.5 90t205.5 -90t74.5 -245z" />
<glyph unicode="&#xd4;" horiz-adv-x="654" d="M346 878l108 -114l-18 -32l-110 97l-110 -97l-19 32l110 114h39zM525 324q0 139 -51.5 213t-147.5 74q-95 0 -146 -74t-51 -213q0 -140 50.5 -213t146.5 -73t147.5 73t51.5 213zM606 324q0 -156 -74 -245t-206 -89q-131 0 -204.5 89t-73.5 245q0 155 73.5 245t204.5 90 t205.5 -90t74.5 -245z" />
<glyph unicode="&#xd5;" horiz-adv-x="654" d="M467 806l23 -25q-3 -6 -8.5 -14.5t-27 -22.5t-49.5 -14q-30 0 -79 23t-75 23q-17 0 -32 -10t-21 -20l-7 -9l-23 25q1 3 3.5 7t11.5 15t19 19t27 15t35 7q33 0 80.5 -23t71.5 -23q16 0 29 6.5t17 13.5zM525 324q0 139 -51.5 213t-147.5 74q-95 0 -146 -74t-51 -213 q0 -140 50.5 -213t146.5 -73t147.5 73t51.5 213zM606 324q0 -156 -74 -245t-206 -89q-131 0 -204.5 89t-73.5 245q0 155 73.5 245t204.5 90t205.5 -90t74.5 -245z" />
<glyph unicode="&#xd6;" horiz-adv-x="654" d="M221 809q13 10 27 10q13 0 26 -10q11 -13 11 -30q0 -16 -11 -29q-13 -10 -26 -10q-14 0 -27 10q-11 11 -11 29q0 19 11 30zM375 809q13 10 26 10t26 -10q12 -12 12 -30q0 -17 -12 -29q-13 -10 -26 -10t-26 10q-11 11 -11 29q0 19 11 30zM525 324q0 139 -51.5 213 t-147.5 74q-95 0 -146 -74t-51 -213q0 -140 50.5 -213t146.5 -73t147.5 73t51.5 213zM606 324q0 -156 -74 -245t-206 -89q-131 0 -204.5 89t-73.5 245q0 155 73.5 245t204.5 90t205.5 -90t74.5 -245z" />
<glyph unicode="&#xd7;" horiz-adv-x="353" d="M313 442l-105 -122l105 -122l-31 -37l-105 122l-105 -122l-31 37l104 122l-105 122l31 38l105 -123l106 123z" />
<glyph unicode="&#xd8;" horiz-adv-x="654" d="M525 324q0 168 -75 240l-205 -510q35 -16 81 -16q96 0 147.5 73t51.5 213zM129 324q0 -192 93 -256l205 514q-43 29 -101 29q-95 0 -146 -74t-51 -213zM606 324q0 -156 -74 -245t-206 -89q-52 0 -100 16l-43 -107l-26 6l44 111q-74 36 -113.5 115t-39.5 193 q0 155 73.5 245t204.5 90q67 0 122 -26l38 95l28 -6l-41 -102q64 -40 98.5 -116t34.5 -180z" />
<glyph unicode="&#xd9;" horiz-adv-x="620" d="M213 843l62 16l83 -143l-40 -8zM310 -10q-109 0 -166.5 60t-57.5 162v438h75v-421q0 -91 40 -139.5t117 -48.5q80 0 120.5 49.5t40.5 138.5v421h55v-438q0 -102 -56 -162t-168 -60z" />
<glyph unicode="&#xda;" horiz-adv-x="620" d="M351 856l63 -15l-102 -135l-38 5zM310 -10q-109 0 -166.5 60t-57.5 162v438h75v-421q0 -91 40 -139.5t117 -48.5q80 0 120.5 49.5t40.5 138.5v421h55v-438q0 -102 -56 -162t-168 -60z" />
<glyph unicode="&#xdb;" horiz-adv-x="620" d="M340 878l108 -114l-18 -32l-110 97l-110 -97l-19 32l110 114h39zM310 -10q-109 0 -166.5 60t-57.5 162v438h75v-421q0 -91 40 -139.5t117 -48.5q80 0 120.5 49.5t40.5 138.5v421h55v-438q0 -102 -56 -162t-168 -60z" />
<glyph unicode="&#xdc;" horiz-adv-x="620" d="M216 809q13 10 26 10q14 0 27 -10q11 -13 11 -30q0 -16 -11 -29q-13 -10 -27 -10q-13 0 -26 10q-11 11 -11 29q0 19 11 30zM370 809q13 10 26 10t26 -10q12 -12 12 -30q0 -17 -12 -29q-13 -10 -26 -10t-26 10q-11 11 -11 29q0 19 11 30zM310 -10q-109 0 -166.5 60 t-57.5 162v438h75v-421q0 -91 40 -139.5t117 -48.5q80 0 120.5 49.5t40.5 138.5v421h55v-438q0 -102 -56 -162t-168 -60z" />
<glyph unicode="&#xdd;" horiz-adv-x="507" d="M314 856l63 -15l-102 -135l-38 5zM2 650h85l179 -320l178 320h61l-212 -376v-274h-76v269z" />
<glyph unicode="&#xde;" horiz-adv-x="514" d="M257 495h-76v-341h76q139 0 139 174q0 167 -139 167zM181 650v-109h81q100 0 155.5 -52.5t55.5 -157.5q0 -60 -18.5 -104.5t-49.5 -69t-66.5 -36.5t-75.5 -12h-82v-109h-75v650h75z" />
<glyph unicode="&#xdf;" horiz-adv-x="530" d="M147 547v-547h-72v547q0 106 47.5 159t134.5 53q77 0 121 -37t44 -103q0 -93 -99 -134q171 -37 171 -247q0 -248 -193 -248q-38 0 -65.5 6.5t-35.5 13.5l-9 6l10 42q22 -22 82 -22q133 0 133 201q0 117 -42.5 166t-141.5 49v48q5 0 13 1t28 8t35.5 18t28.5 33.5t13 51.5 q0 50 -25 76t-72 26q-106 0 -106 -167z" />
<glyph unicode="&#xe0;" horiz-adv-x="477" d="M121 708l62 16l83 -143l-40 -8zM315 107v146q-208 -23 -208 -131q0 -43 25 -65.5t68 -22.5q23 0 43.5 7.5t33 18t21.5 21.5t13 19zM89 423l-8 41q68 46 141 46q86 0 126 -36t40 -127v-245q0 -68 26 -68q7 0 16.5 2t15.5 4l7 3l3 -34q-49 -19 -78 -19q-26 0 -40 16.5 t-17 58.5h-1q-1 -3 -4.5 -8t-15 -18t-26.5 -23t-40.5 -18t-55.5 -8q-66 0 -106 32.5t-40 90.5q0 147 283 177v53q0 71 -23 97t-81 26q-26 0 -56.5 -11t-48.5 -21z" />
<glyph unicode="&#xe1;" horiz-adv-x="477" d="M277 721l63 -15l-102 -135l-38 5zM315 107v146q-208 -23 -208 -131q0 -43 25 -65.5t68 -22.5q23 0 43.5 7.5t33 18t21.5 21.5t13 19zM89 423l-8 41q68 46 141 46q86 0 126 -36t40 -127v-245q0 -68 26 -68q7 0 16.5 2t15.5 4l7 3l3 -34q-49 -19 -78 -19q-26 0 -40 16.5 t-17 58.5h-1q-1 -3 -4.5 -8t-15 -18t-26.5 -23t-40.5 -18t-55.5 -8q-66 0 -106 32.5t-40 90.5q0 147 283 177v53q0 71 -23 97t-81 26q-26 0 -56.5 -11t-48.5 -21z" />
<glyph unicode="&#xe2;" horiz-adv-x="477" d="M253 743l108 -114l-18 -32l-110 97l-110 -97l-19 32l110 114h39zM315 107v146q-208 -23 -208 -131q0 -43 25 -65.5t68 -22.5q23 0 43.5 7.5t33 18t21.5 21.5t13 19zM89 423l-8 41q68 46 141 46q86 0 126 -36t40 -127v-245q0 -68 26 -68q7 0 16.5 2t15.5 4l7 3l3 -34 q-49 -19 -78 -19q-26 0 -40 16.5t-17 58.5h-1q-1 -3 -4.5 -8t-15 -18t-26.5 -23t-40.5 -18t-55.5 -8q-66 0 -106 32.5t-40 90.5q0 147 283 177v53q0 71 -23 97t-81 26q-26 0 -56.5 -11t-48.5 -21z" />
<glyph unicode="&#xe3;" horiz-adv-x="477" d="M375 671l23 -25q-3 -6 -8.5 -14.5t-27 -22.5t-49.5 -14q-30 0 -79 23t-75 23q-17 0 -32 -9.5t-21 -19.5l-7 -10l-23 25q1 3 3.5 7t11.5 15t19 19t27 15t35 7q33 0 80.5 -23t71.5 -23q16 0 29 7t17 13zM315 107v146q-208 -23 -208 -131q0 -43 25 -65.5t68 -22.5 q23 0 43.5 7.5t33 18t21.5 21.5t13 19zM89 423l-8 41q68 46 141 46q86 0 126 -36t40 -127v-245q0 -68 26 -68q7 0 16.5 2t15.5 4l7 3l3 -34q-49 -19 -78 -19q-26 0 -40 16.5t-17 58.5h-1q-1 -3 -4.5 -8t-15 -18t-26.5 -23t-40.5 -18t-55.5 -8q-66 0 -106 32.5t-40 90.5 q0 147 283 177v53q0 71 -23 97t-81 26q-26 0 -56.5 -11t-48.5 -21z" />
<glyph unicode="&#xe4;" horiz-adv-x="477" d="M128 674q13 10 26 10q14 0 27 -10q11 -13 11 -30q0 -16 -11 -29q-13 -10 -27 -10q-13 0 -26 10q-11 11 -11 29q0 19 11 30zM282 674q13 10 26 10t26 -10q12 -12 12 -30q0 -17 -12 -29q-13 -10 -26 -10t-26 10q-11 11 -11 29q0 19 11 30zM315 107v146q-208 -23 -208 -131 q0 -43 25 -65.5t68 -22.5q23 0 43.5 7.5t33 18t21.5 21.5t13 19zM89 423l-8 41q68 46 141 46q86 0 126 -36t40 -127v-245q0 -68 26 -68q7 0 16.5 2t15.5 4l7 3l3 -34q-49 -19 -78 -19q-26 0 -40 16.5t-17 58.5h-1q-1 -3 -4.5 -8t-15 -18t-26.5 -23t-40.5 -18t-55.5 -8 q-66 0 -106 32.5t-40 90.5q0 147 283 177v53q0 71 -23 97t-81 26q-26 0 -56.5 -11t-48.5 -21z" />
<glyph unicode="&#xe5;" horiz-adv-x="477" d="M293 644q0 34 -16.5 50.5t-43.5 16.5t-44 -17t-17 -50q0 -34 17 -50.5t44 -16.5t43.5 16.5t16.5 50.5zM322 644q0 -45 -24.5 -69t-64.5 -24t-64.5 24t-24.5 69q0 44 25 69t64 25q38 0 63.5 -25t25.5 -69zM315 107v146q-208 -23 -208 -131q0 -43 25 -65.5t68 -22.5 q23 0 43.5 7.5t33 18t21.5 21.5t13 19zM89 423l-8 41q68 46 141 46q86 0 126 -36t40 -127v-245q0 -68 26 -68q7 0 16.5 2t15.5 4l7 3l3 -34q-49 -19 -78 -19q-26 0 -40 16.5t-17 58.5h-1q-1 -3 -4.5 -8t-15 -18t-26.5 -23t-40.5 -18t-55.5 -8q-66 0 -106 32.5t-40 90.5 q0 147 283 177v53q0 71 -23 97t-81 26q-26 0 -56.5 -11t-48.5 -21z" />
<glyph unicode="&#xe6;" horiz-adv-x="727" d="M200 34q26 0 46 12t31.5 29.5t19.5 42t11.5 43t4.5 38.5q-2 26 -2 41v15q-204 -23 -204 -132q0 -43 25.5 -66t67.5 -23zM516 467q-118 0 -128 -189h239q1 10 1 19q0 170 -112 170zM662 99l29 -24q-2 -3 -5.5 -9t-18 -20.5t-32 -26t-47 -20.5t-63.5 -9q-147 0 -194 125 q-37 -125 -153 -125q-65 0 -105.5 33t-40.5 91q0 150 279 177v40q0 76 -19.5 105.5t-73.5 29.5q-26 0 -56 -11t-48 -21l-17 -11l-9 41q68 46 142 46q55 0 85.5 -19.5t42.5 -62.5q54 82 158 82q86 0 132.5 -59.5t46.5 -168.5l-5 -46h-303q0 -202 146 -202q25 0 47.5 6.5 t36.5 16t25 19.5t16 16z" />
<glyph unicode="&#xe7;" horiz-adv-x="423" d="M386 426q-57 40 -123 40q-77 0 -113 -51t-36 -169q0 -212 145 -212q24 0 46 6.5t35.5 15.5t23.5 18t14 16l5 6l32 -21q-2 -3 -5 -8.5t-16 -20t-29 -25.5t-44.5 -20.5t-60.5 -10.5l-6 -59l24 -6q24 -6 48 -26t24 -54q0 -45 -26.5 -70.5t-77.5 -25.5q-30 0 -53 10.5 t-31 20.5l-8 11l18 20q22 -32 67 -32q66 0 66 68q0 26 -21 40t-42 17t-21 4l11 83q-94 6 -144.5 69.5t-50.5 184.5q0 128 55.5 196.5t162.5 68.5q35 0 70 -11t53 -21l17 -11z" />
<glyph unicode="&#xe8;" horiz-adv-x="453" d="M130 708l62 16l83 -143l-40 -8zM242 467q-118 0 -128 -189h239q1 10 1 19q0 170 -112 170zM388 99l29 -24q-2 -3 -5.5 -9t-18 -20.5t-32 -26t-47 -20.5t-63.5 -9q-100 0 -157 62.5t-57 187.5q0 126 55 198t150 72q86 0 132.5 -59.5t46.5 -168.5l-5 -46h-303 q0 -202 146 -202q25 0 47.5 6.5t36.5 16t25 19.5t16 16z" />
<glyph unicode="&#xe9;" horiz-adv-x="453" d="M287 721l63 -15l-102 -135l-38 5zM242 467q-118 0 -128 -189h239q1 10 1 19q0 170 -112 170zM388 99l29 -24q-2 -3 -5.5 -9t-18 -20.5t-32 -26t-47 -20.5t-63.5 -9q-100 0 -157 62.5t-57 187.5q0 126 55 198t150 72q86 0 132.5 -59.5t46.5 -168.5l-5 -46h-303 q0 -202 146 -202q25 0 47.5 6.5t36.5 16t25 19.5t16 16z" />
<glyph unicode="&#xea;" horiz-adv-x="453" d="M262 743l108 -114l-18 -32l-110 97l-110 -97l-19 32l110 114h39zM242 467q-118 0 -128 -189h239q1 10 1 19q0 170 -112 170zM388 99l29 -24q-2 -3 -5.5 -9t-18 -20.5t-32 -26t-47 -20.5t-63.5 -9q-100 0 -157 62.5t-57 187.5q0 126 55 198t150 72q86 0 132.5 -59.5 t46.5 -168.5l-5 -46h-303q0 -202 146 -202q25 0 47.5 6.5t36.5 16t25 19.5t16 16z" />
<glyph unicode="&#xeb;" horiz-adv-x="453" d="M138 674q13 10 26 10q14 0 27 -10q11 -13 11 -30q0 -16 -11 -29q-13 -10 -27 -10q-13 0 -26 10q-11 11 -11 29q0 19 11 30zM292 674q13 10 26 10t26 -10q12 -12 12 -30q0 -17 -12 -29q-13 -10 -26 -10t-26 10q-11 11 -11 29q0 19 11 30zM242 467q-118 0 -128 -189h239 q1 10 1 19q0 170 -112 170zM388 99l29 -24q-2 -3 -5.5 -9t-18 -20.5t-32 -26t-47 -20.5t-63.5 -9q-100 0 -157 62.5t-57 187.5q0 126 55 198t150 72q86 0 132.5 -59.5t46.5 -168.5l-5 -46h-303q0 -202 146 -202q25 0 47.5 6.5t36.5 16t25 19.5t16 16z" />
<glyph unicode="&#xec;" horiz-adv-x="222" d="M-3 708l62 16l83 -143l-40 -8zM147 500v-500h-73v500h73z" />
<glyph unicode="&#xed;" horiz-adv-x="222" d="M154 721l63 -15l-102 -135l-38 5zM147 500v-500h-73v500h73z" />
<glyph unicode="&#xee;" horiz-adv-x="222" d="M131 743l108 -114l-18 -32l-110 97l-110 -97l-19 32l110 114h39zM147 500v-500h-73v500h73z" />
<glyph unicode="&#xef;" horiz-adv-x="222" d="M7 674q13 10 27 10q13 0 26 -10q11 -13 11 -30q0 -16 -11 -29q-13 -10 -26 -10q-14 0 -27 10q-11 11 -11 29q0 19 11 30zM161 674q13 10 26 10t26 -10q12 -12 12 -30q0 -17 -12 -29q-13 -10 -26 -10t-26 10q-11 11 -11 29q0 19 11 30zM147 500v-500h-73v500h73z" />
<glyph unicode="&#xf0;" horiz-adv-x="508" d="M250 467q-136 0 -136 -217q0 -109 33 -163t103 -54t103 54t33 163q0 217 -136 217zM38 250q0 123 53 191.5t152 68.5q84 0 142 -66q-23 127 -91 206l-108 -62l-12 26l100 57q-25 25 -58 47l38 22q33 -18 63 -45l83 48l12 -26l-74 -42q126 -134 126 -413 q0 -132 -54.5 -202t-159.5 -70q-101 0 -156.5 68.5t-55.5 191.5z" />
<glyph unicode="&#xf1;" horiz-adv-x="512" d="M384 671l23 -25q-3 -6 -8.5 -14.5t-27 -22.5t-49.5 -14q-30 0 -79 23t-75 23q-17 0 -32 -9.5t-22 -19.5l-6 -10l-23 25q1 3 3.5 7t11.5 15t19 19t27 15t35 7q33 0 80.5 -23t71.5 -23q16 0 28.5 7t17.5 13zM75 0v500h60l9 -48q50 58 148 58q72 0 112 -40.5t40 -120.5v-349 h-73v334q0 123 -103 123q-36 0 -66.5 -12.5t-42.5 -24.5l-12 -13v-407h-72z" />
<glyph unicode="&#xf2;" horiz-adv-x="501" d="M132 708l62 16l83 -143l-40 -8zM250 466q-70 0 -103 -53.5t-33 -162.5t33 -162.5t103 -53.5q136 0 136 216t-136 216zM463 250q0 -123 -55.5 -191.5t-157.5 -68.5q-104 0 -158.5 68t-54.5 192t54.5 192t158.5 68t158.5 -68t54.5 -192z" />
<glyph unicode="&#xf3;" horiz-adv-x="501" d="M289 721l63 -15l-102 -135l-38 5zM250 466q-70 0 -103 -53.5t-33 -162.5t33 -162.5t103 -53.5q136 0 136 216t-136 216zM463 250q0 -123 -55.5 -191.5t-157.5 -68.5q-104 0 -158.5 68t-54.5 192t54.5 192t158.5 68t158.5 -68t54.5 -192z" />
<glyph unicode="&#xf4;" horiz-adv-x="501" d="M264 743l108 -114l-18 -32l-110 97l-110 -97l-19 32l110 114h39zM250 466q-70 0 -103 -53.5t-33 -162.5t33 -162.5t103 -53.5q136 0 136 216t-136 216zM463 250q0 -123 -55.5 -191.5t-157.5 -68.5q-104 0 -158.5 68t-54.5 192t54.5 192t158.5 68t158.5 -68t54.5 -192z " />
<glyph unicode="&#xf5;" horiz-adv-x="501" d="M386 671l23 -25q-3 -6 -8.5 -14.5t-27 -22.5t-49.5 -14q-30 0 -79 23t-75 23q-17 0 -32 -9.5t-22 -19.5l-6 -10l-23 25q1 3 3.5 7t11.5 15t19 19t27 15t35 7q33 0 80.5 -23t71.5 -23q16 0 28.5 7t17.5 13zM250 466q-70 0 -103 -53.5t-33 -162.5t33 -162.5t103 -53.5 q136 0 136 216t-136 216zM463 250q0 -123 -55.5 -191.5t-157.5 -68.5q-104 0 -158.5 68t-54.5 192t54.5 192t158.5 68t158.5 -68t54.5 -192z" />
<glyph unicode="&#xf6;" horiz-adv-x="501" d="M140 674q13 10 26 10q14 0 27 -10q11 -13 11 -30q0 -16 -11 -29q-13 -10 -27 -10q-13 0 -26 10q-11 11 -11 29q0 19 11 30zM294 674q13 10 26 10t26 -10q12 -12 12 -30q0 -17 -12 -29q-13 -10 -26 -10t-26 10q-11 11 -11 29q0 19 11 30zM250 466q-70 0 -103 -53.5 t-33 -162.5t33 -162.5t103 -53.5q136 0 136 216t-136 216zM463 250q0 -123 -55.5 -191.5t-157.5 -68.5q-104 0 -158.5 68t-54.5 192t54.5 192t158.5 68t158.5 -68t54.5 -192z" />
<glyph unicode="&#xf7;" horiz-adv-x="469" d="M436 277v-47h-402v47h402zM204 475q14 12 31 12q19 0 32 -12q13 -13 13 -34t-13 -34q-13 -12 -32 -12q-17 0 -31 12q-14 13 -14 34t14 34zM202 100q14 12 31 12q19 0 32 -12q13 -13 13 -34t-13 -34q-13 -12 -32 -12q-17 0 -31 12q-14 13 -14 34t14 34z" />
<glyph unicode="&#xf8;" horiz-adv-x="510" d="M386 250q0 122 -41 173l-147 -380q22 -9 52 -9q136 0 136 216zM250 466q-70 0 -103 -53.5t-33 -162.5q0 -139 52 -187l149 386q-28 17 -65 17zM463 250q0 -123 -55.5 -191.5t-157.5 -68.5q-38 0 -69 9l-69 -178l-36 6l71 186q-110 57 -110 237q0 124 54.5 192t158.5 68 q46 0 83 -14l60 154l37 -6l-64 -165q97 -61 97 -229z" />
<glyph unicode="&#xf9;" horiz-adv-x="512" d="M140 708l62 16l83 -143l-40 -8zM437 500v-500h-61l-10 48q-7 -9 -18.5 -19.5t-47 -24.5t-79.5 -14q-73 0 -113 40.5t-40 120.5v349h73v-334q0 -123 104 -123q36 0 65.5 12.5t41.5 25.5l12 13v406h73z" />
<glyph unicode="&#xfa;" horiz-adv-x="512" d="M297 721l63 -15l-102 -135l-38 5zM437 500v-500h-61l-10 48q-7 -9 -18.5 -19.5t-47 -24.5t-79.5 -14q-73 0 -113 40.5t-40 120.5v349h73v-334q0 -123 104 -123q36 0 65.5 12.5t41.5 25.5l12 13v406h73z" />
<glyph unicode="&#xfb;" horiz-adv-x="512" d="M273 743l108 -114l-18 -32l-110 97l-110 -97l-19 32l110 114h39zM437 500v-500h-61l-10 48q-7 -9 -18.5 -19.5t-47 -24.5t-79.5 -14q-73 0 -113 40.5t-40 120.5v349h73v-334q0 -123 104 -123q36 0 65.5 12.5t41.5 25.5l12 13v406h73z" />
<glyph unicode="&#xfc;" horiz-adv-x="512" d="M149 674q13 10 27 10q13 0 26 -10q11 -13 11 -30q0 -16 -11 -29q-13 -10 -26 -10q-14 0 -27 10q-11 11 -11 29q0 19 11 30zM303 674q13 10 26 10t26 -10q12 -12 12 -30q0 -17 -12 -29q-13 -10 -26 -10t-26 10q-11 11 -11 29q0 19 11 30zM437 500v-500h-61l-10 48 q-7 -9 -18.5 -19.5t-47 -24.5t-79.5 -14q-73 0 -113 40.5t-40 120.5v349h73v-334q0 -123 104 -123q36 0 65.5 12.5t41.5 25.5l12 13v406h73z" />
<glyph unicode="&#xfd;" horiz-adv-x="449" d="M281 721l63 -15l-102 -135l-38 5zM24 -201q19 -9 41 -9q46 0 77 49.5t69 154.5l-196 506h86l148 -418l134 418h53l-173 -508q-21 -59 -37.5 -98t-39.5 -77.5t-50.5 -57.5t-59.5 -19q-18 0 -33 3t-21 7l-6 3z" />
<glyph unicode="&#xfe;" horiz-adv-x="514" d="M260 463q-27 0 -50 -9.5t-36 -24.5t-18.5 -23.5t-8.5 -14.5v-309q4 -6 13 -15t35 -19.5t58 -10.5q77 0 112.5 56.5t35.5 168.5q0 201 -141 201zM73 -252v752h1v248l73 4v-309h1q1 3 4 7.5t13.5 16t24.5 20.5t38 16.5t53 7.5q89 0 143 -65.5t54 -181.5q0 -126 -53 -200.5 t-153 -74.5q-80 0 -126 43v-282z" />
<glyph unicode="&#xff;" horiz-adv-x="449" d="M132 674q13 10 26 10q14 0 27 -10q11 -13 11 -30q0 -16 -11 -29q-13 -10 -27 -10q-13 0 -26 10q-11 11 -11 29q0 19 11 30zM286 674q13 10 26 10t26 -10q12 -12 12 -30q0 -17 -12 -29q-13 -10 -26 -10t-26 10q-11 11 -11 29q0 19 11 30zM24 -201q19 -9 41 -9 q46 0 77 49.5t69 154.5l-196 506h86l148 -418l134 418h53l-173 -508q-21 -59 -37.5 -98t-39.5 -77.5t-50.5 -57.5t-59.5 -19q-18 0 -33 3t-21 7l-6 3z" />
<glyph unicode="&#x100;" horiz-adv-x="568" d="M378 807v-36h-186v36h186zM273 592l-115 -351h228zM242 650h89l215 -650h-79l-68 200h-255l-68 -200h-53z" />
<glyph unicode="&#x101;" horiz-adv-x="477" d="M330 672v-36h-186v36h186zM315 107v146q-208 -23 -208 -131q0 -43 25 -65.5t68 -22.5q23 0 43.5 7.5t33 18t21.5 21.5t13 19zM89 423l-8 41q68 46 141 46q86 0 126 -36t40 -127v-245q0 -68 26 -68q7 0 16.5 2t15.5 4l7 3l3 -34q-49 -19 -78 -19q-26 0 -40 16.5t-17 58.5 h-1q-1 -3 -4.5 -8t-15 -18t-26.5 -23t-40.5 -18t-55.5 -8q-66 0 -106 32.5t-40 90.5q0 147 283 177v53q0 71 -23 97t-81 26q-26 0 -56.5 -11t-48.5 -21z" />
<glyph unicode="&#x102;" horiz-adv-x="568" d="M284 755q23 0 41 6t27.5 14.5t15.5 17.5t8 15l2 6v2l45 -6q0 -4 -2 -10.5t-10.5 -24t-22.5 -30.5t-41 -23.5t-63 -10.5t-63 10t-40.5 24.5t-21.5 29.5t-10 25l-2 10l45 6v-2q0 -2 1.5 -6t8 -14.5t15.5 -18t27 -14t40 -6.5zM273 592l-115 -351h228zM242 650h89l215 -650 h-79l-68 200h-255l-68 -200h-53z" />
<glyph unicode="&#x103;" horiz-adv-x="477" d="M233 620q36 0 59.5 15t29.5 29l5 15v2l45 -6q0 -4 -2 -10.5t-10.5 -24t-22.5 -30.5t-41 -23.5t-63 -10.5t-63 10t-40.5 25t-21.5 29.5t-10 24.5l-2 10l45 6v-2q0 -2 1.5 -6t8 -14.5t15.5 -18t27 -14t40 -6.5zM315 107v146q-208 -23 -208 -131q0 -43 25 -65.5t68 -22.5 q23 0 43.5 7.5t33 18t21.5 21.5t13 19zM89 423l-8 41q68 46 141 46q86 0 126 -36t40 -127v-245q0 -68 26 -68q7 0 16.5 2t15.5 4l7 3l3 -34q-49 -19 -78 -19q-26 0 -40 16.5t-17 58.5h-1q-1 -3 -4.5 -8t-15 -18t-26.5 -23t-40.5 -18t-55.5 -8q-66 0 -106 32.5t-40 90.5 q0 147 283 177v53q0 71 -23 97t-81 26q-26 0 -56.5 -11t-48.5 -21z" />
<glyph unicode="&#x104;" horiz-adv-x="568" d="M273 592l-115 -351h228zM242 650h89l215 -650h-41q-15 -10 -30 -23t-33 -45t-18 -67q0 -83 105 -83v-32q-155 0 -155 111q0 79 92 141l-67 198h-255l-68 -200h-53z" />
<glyph unicode="&#x105;" horiz-adv-x="477" d="M315 107v146q-208 -23 -208 -131q0 -43 25 -65.5t68 -22.5q23 0 43.5 7.5t33 18t21.5 21.5t13 19zM89 423l-8 41q68 46 141 46q86 0 126 -36t40 -127v-245q0 -68 26 -68q7 0 16.5 2t15.5 4l7 3l3 -34q-12 -5 -26 -9q-15 -10 -30 -23t-33 -45t-18 -67q0 -83 105 -83v-32 q-155 0 -155 111q0 71 75 129q-25 2 -37.5 18t-15.5 57h-1q-1 -3 -4.5 -8t-15 -18t-26.5 -23t-40.5 -18t-55.5 -8q-66 0 -106 32.5t-40 90.5q0 147 283 177v53q0 71 -23 97t-81 26q-26 0 -56.5 -11t-48.5 -21z" />
<glyph unicode="&#x106;" horiz-adv-x="570" d="M372 856l63 -15l-102 -135l-38 5zM510 556q-10 6 -26.5 15t-62.5 23.5t-85 14.5q-97 0 -152 -73.5t-55 -214.5q0 -139 56 -210t157 -71q34 0 64.5 10t51 24.5t35.5 29t22 24.5l7 10l28 -32q-3 -5 -8 -12.5t-24 -27.5t-42 -35.5t-61.5 -28t-81.5 -12.5q-135 0 -210 87.5 t-75 241.5q0 156 76 248t204 92q46 0 93.5 -13.5t72.5 -27.5l25 -14z" />
<glyph unicode="&#x107;" horiz-adv-x="423" d="M284 721l63 -15l-102 -135l-38 5zM386 426q-57 40 -123 40q-77 0 -113 -51t-36 -169q0 -212 145 -212q24 0 46 6.5t35.5 15.5t23.5 18t14 16l5 6l32 -21q-2 -3 -5 -9t-16.5 -20.5t-30.5 -26t-46.5 -20.5t-63.5 -9q-104 0 -160 64t-56 191q0 128 55.5 196.5t162.5 68.5 q35 0 70 -11t53 -21l17 -11z" />
<glyph unicode="&#x10c;" horiz-adv-x="570" d="M300 708l-119 123l29 24l109 -101l111 101l28 -26l-119 -121h-39zM510 556q-10 6 -26.5 15t-62.5 23.5t-85 14.5q-97 0 -152 -73.5t-55 -214.5q0 -139 56 -210t157 -71q34 0 64.5 10t51 24.5t35.5 29t22 24.5l7 10l28 -32q-3 -5 -8 -12.5t-24 -27.5t-42 -35.5t-61.5 -28 t-81.5 -12.5q-135 0 -210 87.5t-75 241.5q0 156 76 248t204 92q46 0 93.5 -13.5t72.5 -27.5l25 -14z" />
<glyph unicode="&#x10d;" horiz-adv-x="423" d="M233 573l-119 123l29 24l109 -101l111 101l28 -26l-119 -121h-39zM386 426q-57 40 -123 40q-77 0 -113 -51t-36 -169q0 -212 145 -212q24 0 46 6.5t35.5 15.5t23.5 18t14 16l5 6l32 -21q-2 -3 -5 -9t-16.5 -20.5t-30.5 -26t-46.5 -20.5t-63.5 -9q-104 0 -160 64t-56 191 q0 128 55.5 196.5t162.5 68.5q35 0 70 -11t53 -21l17 -11z" />
<glyph unicode="&#x10e;" horiz-adv-x="638" d="M257 708l-119 123l29 24l109 -101l111 101l28 -26l-119 -121h-39zM292 602h-122v-554h123q212 0 212 275q0 279 -213 279zM94 0v650h198q140 0 217.5 -84.5t77.5 -242.5q0 -157 -76.5 -240t-218.5 -83h-198z" />
<glyph unicode="&#x10f;" d="M531 769l50 -7l-52 -212l-31 3zM254 39q23 0 43.5 7t33 17.5t21.5 21t13 17.5l4 7v307q-4 5 -11.5 12.5t-35 20.5t-59.5 13q-149 0 -149 -224q0 -199 140 -199zM441 752v-752h-62l-8 59q-6 -12 -17 -25t-43 -28.5t-73 -15.5q-91 0 -146 65t-55 181q0 125 53.5 199.5 t150.5 74.5q41 0 72.5 -12t42.5 -24l12 -12h1v286z" />
<glyph unicode="&#x110;" horiz-adv-x="638" d="M292 602h-122v-258h189v-42h-189v-254h123q212 0 212 275q0 279 -213 279zM94 0v302h-69v42h69v306h198q140 0 217.5 -84.5t77.5 -242.5q0 -157 -76.5 -240t-218.5 -83h-198z" />
<glyph unicode="&#x111;" horiz-adv-x="519" d="M251 35q78 0 114 72v308q-36 51 -106 51q-148 0 -148 -228q0 -203 140 -203zM437 750v-83h62v-36l-60 -7h-2v-624h-64l-7 57q-42 -71 -138 -71q-89 0 -142 67t-53 183q0 127 51.5 202.5t148.5 75.5q41 0 74 -13t45 -26l12 -13h1v162h-119v43h119v83h72z" />
<glyph unicode="&#x112;" horiz-adv-x="507" d="M373 807v-36h-186v36h186zM466 48v-48h-372v650h350v-48h-274v-250h251v-46h-251v-258h296z" />
<glyph unicode="&#x113;" horiz-adv-x="453" d="M336 672v-36h-186v36h186zM242 467q-118 0 -128 -189h239q1 10 1 19q0 170 -112 170zM388 99l29 -24q-2 -3 -5.5 -9t-18 -20.5t-32 -26t-47 -20.5t-63.5 -9q-100 0 -157 62.5t-57 187.5q0 126 55 198t150 72q86 0 132.5 -59.5t46.5 -168.5l-5 -46h-303q0 -202 146 -202 q25 0 47.5 6.5t36.5 16t25 19.5t16 16z" />
<glyph unicode="&#x116;" horiz-adv-x="507" d="M247 811q11 11 29 11q19 0 30 -10q12 -13 12 -33q0 -19 -12 -32q-14 -11 -30 -11q-18 0 -29 11q-13 13 -13 32t13 32zM466 48v-48h-372v650h350v-48h-274v-250h251v-46h-251v-258h296z" />
<glyph unicode="&#x117;" horiz-adv-x="453" d="M214 676q11 11 29 11q19 0 30 -10q12 -13 12 -33q0 -18 -12 -32q-14 -11 -30 -11q-18 0 -29 11q-13 13 -13 32t13 32zM242 467q-118 0 -128 -189h239q1 10 1 19q0 170 -112 170zM388 99l29 -24q-2 -3 -5.5 -9t-18 -20.5t-32 -26t-47 -20.5t-63.5 -9q-100 0 -157 62.5 t-57 187.5q0 126 55 198t150 72q86 0 132.5 -59.5t46.5 -168.5l-5 -46h-303q0 -202 146 -202q25 0 47.5 6.5t36.5 16t25 19.5t16 16z" />
<glyph unicode="&#x118;" horiz-adv-x="507" d="M466 48v-48h-9q-15 -10 -30 -23t-33 -45t-18 -67q0 -83 105 -83v-32q-155 0 -155 111q0 77 88 139h-320v650h350v-48h-274v-250h251v-46h-251v-258h296z" />
<glyph unicode="&#x119;" horiz-adv-x="453" d="M242 467q-118 0 -128 -189h239q1 10 1 19q0 170 -112 170zM388 99l29 -24q-3 -6 -10.5 -16t-34.5 -30.5t-59 -29.5q-16 -10 -31 -24t-31.5 -45t-16.5 -65q0 -83 105 -83v-32q-155 0 -155 111q0 71 75 129h-8q-100 0 -157 62.5t-57 187.5q0 126 55 198t150 72 q86 0 132.5 -59.5t46.5 -168.5l-5 -46h-303q0 -202 146 -202q25 0 47.5 6.5t36.5 16t25 19.5t16 16z" />
<glyph unicode="&#x11a;" horiz-adv-x="507" d="M252 708l-119 123l29 24l109 -101l111 101l28 -26l-119 -121h-39zM466 48v-48h-372v650h350v-48h-274v-250h251v-46h-251v-258h296z" />
<glyph unicode="&#x11b;" horiz-adv-x="453" d="M223 573l-119 123l29 24l109 -101l111 101l28 -26l-119 -121h-39zM242 467q-118 0 -128 -189h239q1 10 1 19q0 170 -112 170zM388 99l29 -24q-2 -3 -5.5 -9t-18 -20.5t-32 -26t-47 -20.5t-63.5 -9q-100 0 -157 62.5t-57 187.5q0 126 55 198t150 72q86 0 132.5 -59.5 t46.5 -168.5l-5 -46h-303q0 -202 146 -202q25 0 47.5 6.5t36.5 16t25 19.5t16 16z" />
<glyph unicode="&#x11e;" horiz-adv-x="620" d="M335 755q23 0 41 6t27.5 14.5t15.5 17.5t8 15l2 6v2l45 -6q0 -4 -2 -10.5t-10.5 -24t-22.5 -30.5t-41 -23.5t-63 -10.5t-63 10t-40.5 24.5t-21.5 29.5t-10 25l-2 10l45 6v-2q0 -2 1.5 -6t8 -14.5t15.5 -18t27 -14t40 -6.5zM543 338v-338h-37l-19 71q-56 -81 -172 -81 q-127 0 -197 88t-70 245q0 159 76 247.5t215 88.5q46 0 93.5 -13.5t72.5 -27.5l25 -14l-9 -48q-10 6 -26.5 15t-62.5 23.5t-85 14.5q-111 0 -164.5 -71.5t-53.5 -214.5q0 -140 52 -211.5t145 -71.5q41 0 72 13t47.5 34t23 34.5t10.5 26.5v147h-133v43h197z" />
<glyph unicode="&#x11f;" horiz-adv-x="451" d="M227 619q23 0 41 6t27.5 14.5t15.5 17.5t8 15l2 6v2l45 -6q0 -4 -2 -10.5t-10.5 -24t-22.5 -30.5t-41 -23.5t-63 -10.5t-63 10t-40.5 24.5t-21.5 29.5t-10 25l-2 10l45 6v-2q0 -2 1.5 -6t8 -14.5t15.5 -18t27 -14t40 -6.5zM334 334q0 133 -107 133q-110 0 -110 -134 q0 -68 29 -103t82 -35q106 0 106 139zM219 1q-47 0 -75 8q-67 -28 -67 -105q0 -119 159 -119q70 0 108 28.5t38 82.5q0 105 -163 105zM231 510q39 0 69 -10h1l128 -1v-39l-64 -2q40 -45 40 -125q0 -86 -46.5 -132t-128.5 -46q-34 0 -61 7q-35 -23 -35 -52q0 -27 22 -37.5 t71 -10.5q219 0 219 -154q0 -82 -54.5 -125t-155.5 -43q-106 0 -161 41.5t-55 121.5q0 97 83 131q-18 21 -18 59q0 49 46 84q-84 43 -84 156q0 91 51.5 134t132.5 43z" />
<glyph unicode="&#x122;" horiz-adv-x="620" d="M349 -54l2 -2q17 -18 17 -55q0 -45 -23.5 -96t-60.5 -81l-18 19q29 27 44.5 63.5t15.5 70.5q0 12 -1 18q-15 0 -26 9q-11 11 -11 27t11 27q11 9 25 9t25 -9zM543 338v-338h-37l-19 71q-56 -81 -172 -81q-127 0 -197 88t-70 245q0 159 76 247.5t215 88.5q46 0 93.5 -13.5 t72.5 -27.5l25 -14l-9 -48q-10 6 -26.5 15t-62.5 23.5t-85 14.5q-111 0 -164.5 -71.5t-53.5 -214.5q0 -140 52 -211.5t145 -71.5q41 0 72 13t47.5 34t23 34.5t10.5 26.5v147h-133v43h197z" />
<glyph unicode="&#x123;" horiz-adv-x="451" d="M252 579q-10 -9 -25 -9t-25 9q-19 18 -19 57q0 45 23.5 96t60.5 81l18 -19q-60 -56 -60 -134q0 -12 1 -18q16 0 26 -9q11 -11 11 -27t-11 -27zM334 334q0 133 -107 133q-110 0 -110 -134q0 -68 29 -103t82 -35q106 0 106 139zM219 1q-47 0 -75 8q-67 -28 -67 -105 q0 -119 159 -119q70 0 108 28.5t38 82.5q0 105 -163 105zM231 510q39 0 69 -10h1l128 -1v-39l-64 -2q40 -45 40 -125q0 -86 -46.5 -132t-128.5 -46q-34 0 -61 7q-35 -23 -35 -52q0 -27 22 -37.5t71 -10.5q219 0 219 -154q0 -82 -54.5 -125t-155.5 -43q-106 0 -161 41.5 t-55 121.5q0 97 83 131q-18 21 -18 59q0 49 46 84q-84 43 -84 156q0 91 51.5 134t132.5 43z" />
<glyph unicode="&#x12a;" horiz-adv-x="265" d="M226 807v-36h-186v36h186zM170 650v-650h-76v650h76z" />
<glyph unicode="&#x12b;" horiz-adv-x="222" d="M204 672v-36h-186v36h186zM147 500v-500h-73v500h73z" />
<glyph unicode="&#x12e;" horiz-adv-x="265" d="M170 650v-650h-44q-15 -10 -30 -23t-33 -45t-18 -67q0 -83 105 -83v-32q-155 0 -155 111q0 82 99 146v643h76z" />
<glyph unicode="&#x12f;" horiz-adv-x="222" d="M80 676q11 11 29 11q19 0 30 -10q12 -13 12 -33q0 -18 -12 -32q-14 -11 -30 -11q-18 0 -29 11q-13 13 -13 32t13 32zM147 500v-500h-35q-15 -10 -30 -23t-33 -45t-18 -67q0 -83 105 -83v-32q-155 0 -155 111q0 79 93 142v497h73z" />
<glyph unicode="&#x130;" horiz-adv-x="265" d="M103 811q11 11 29 11q19 0 30 -10q12 -14 12 -33t-12 -32q-14 -11 -30 -11q-18 0 -29 11q-13 13 -13 32t13 32zM170 650v-650h-76v650h76z" />
<glyph unicode="&#x131;" horiz-adv-x="222" d="M147 500v-500h-73v500h73z" />
<glyph unicode="&#x136;" horiz-adv-x="600" d="M273 -54q11 9 25 9t25 -9q19 -18 19 -57q0 -45 -23.5 -96t-60.5 -81l-18 19q29 27 44.5 63.5t15.5 70.5q0 12 -1 18q-15 0 -26 9q-11 11 -11 27t11 27zM94 0v650h76v-354l79 70l219 284h61l-228 -290l259 -360h-95l-220 302l-75 -63v-239h-76z" />
<glyph unicode="&#x137;" horiz-adv-x="456" d="M220 -54q10 9 25 9t25 -9q19 -18 19 -57q0 -45 -23.5 -96t-60.5 -81l-18 19q29 27 44.5 63.5t15.5 70.5q0 12 -1 18q-16 0 -26 9q-11 11 -11 27t11 27zM74 0v748l73 4v-481l61 42l149 187h55l-165 -205l186 -295h-83l-159 252l-44 -27v-225h-73z" />
<glyph unicode="&#x139;" horiz-adv-x="475" d="M184 856l63 -15l-102 -135l-38 5zM459 48v-48h-365v650h76v-602h289z" />
<glyph unicode="&#x13a;" horiz-adv-x="223" d="M169 946l63 -15l-102 -135l-38 5zM147 752v-752h-72v748z" />
<glyph unicode="&#x13b;" horiz-adv-x="475" d="M240 -54q10 9 25 9t25 -9q19 -18 19 -57q0 -45 -23.5 -96t-60.5 -81l-18 19q29 27 44.5 63.5t15.5 70.5q0 12 -1 18q-16 0 -26 9q-11 11 -11 27t11 27zM459 48v-48h-365v650h76v-602h289z" />
<glyph unicode="&#x13c;" horiz-adv-x="223" d="M87 -54q10 9 25 9q14 0 25 -9q19 -18 19 -57q0 -45 -23.5 -96t-60.5 -81l-18 19q29 27 44.5 63.5t15.5 70.5q0 12 -1 18q-15 0 -26 9q-11 11 -11 27t11 27zM147 752v-752h-72v748z" />
<glyph unicode="&#x13d;" horiz-adv-x="475" d="M113 708l-119 123l29 24l109 -101l111 101l28 -26l-119 -121h-39zM459 48v-48h-365v650h76v-602h289z" />
<glyph unicode="&#x13e;" horiz-adv-x="223" d="M239 769l50 -7l-52 -212l-31 3zM147 752v-752h-72v748z" />
<glyph unicode="&#x141;" horiz-adv-x="496" d="M485 48v-48h-365v257l-66 -48l-20 27l86 63v351h76v-296l122 90l20 -27l-142 -104v-265h289z" />
<glyph unicode="&#x142;" horiz-adv-x="259" d="M165 752v-333l98 77l19 -24l-117 -91v-381h-72v325l-68 -53l-19 24l87 67v385z" />
<glyph unicode="&#x143;" horiz-adv-x="651" d="M391 856l63 -15l-102 -135l-38 5zM557 650v-650h-66l-346 554h-1l5 -31v-523h-55v650h79l332 -536l-3 24v512h55z" />
<glyph unicode="&#x144;" horiz-adv-x="512" d="M287 721l63 -15l-102 -135l-38 5zM75 0v500h60l9 -48q50 58 148 58q72 0 112 -40.5t40 -120.5v-349h-73v334q0 123 -103 123q-36 0 -66.5 -12.5t-42.5 -24.5l-12 -13v-407h-72z" />
<glyph unicode="&#x145;" horiz-adv-x="651" d="M299 -54q11 9 25 9t25 -9q19 -18 19 -57q0 -45 -23.5 -96t-60.5 -81l-18 19q29 27 44.5 63.5t15.5 70.5q0 12 -1 18q-15 0 -26 9q-11 11 -11 27t11 27zM557 650v-650h-66l-346 554h-1l5 -31v-523h-55v650h79l332 -536l-3 24v512h55z" />
<glyph unicode="&#x146;" horiz-adv-x="512" d="M238 -54q10 9 25 9t25 -9q19 -18 19 -57q0 -45 -23.5 -96t-60.5 -81l-18 19q29 27 44.5 63.5t15.5 70.5q0 12 -1 18q-16 0 -26 9q-11 11 -11 27t11 27zM75 0v500h60l9 -48q50 58 148 58q72 0 112 -40.5t40 -120.5v-349h-73v334q0 123 -103 123q-36 0 -66.5 -12.5 t-42.5 -24.5l-12 -13v-407h-72z" />
<glyph unicode="&#x147;" horiz-adv-x="651" d="M330 708l-119 123l29 24l109 -101l111 101l28 -26l-119 -121h-39zM557 650v-650h-66l-346 554h-1l5 -31v-523h-55v650h79l332 -536l-3 24v512h55z" />
<glyph unicode="&#x148;" horiz-adv-x="512" d="M241 573l-119 123l29 24l109 -101l111 101l28 -26l-119 -121h-39zM75 0v500h60l9 -48q50 58 148 58q72 0 112 -40.5t40 -120.5v-349h-73v334q0 123 -103 123q-36 0 -66.5 -12.5t-42.5 -24.5l-12 -13v-407h-72z" />
<glyph unicode="&#x14c;" horiz-adv-x="654" d="M419 807v-36h-186v36h186zM525 324q0 139 -51.5 213t-147.5 74q-95 0 -146 -74t-51 -213q0 -140 50.5 -213t146.5 -73t147.5 73t51.5 213zM606 324q0 -156 -74 -245t-206 -89q-131 0 -204.5 89t-73.5 245q0 155 73.5 245t204.5 90t205.5 -90t74.5 -245z" />
<glyph unicode="&#x14d;" horiz-adv-x="501" d="M343 672v-36h-186v36h186zM250 466q-70 0 -103 -53.5t-33 -162.5t33 -162.5t103 -53.5q136 0 136 216t-136 216zM463 250q0 -123 -55.5 -191.5t-157.5 -68.5q-104 0 -158.5 68t-54.5 192t54.5 192t158.5 68t158.5 -68t54.5 -192z" />
<glyph unicode="&#x150;" horiz-adv-x="654" d="M232 725l45 128l52 -13l-63 -129zM361 725l46 128l51 -13l-63 -129zM525 324q0 139 -51.5 213t-147.5 74q-95 0 -146 -74t-51 -213q0 -140 50.5 -213t146.5 -73t147.5 73t51.5 213zM606 324q0 -156 -74 -245t-206 -89q-131 0 -204.5 89t-73.5 245q0 155 73.5 245 t204.5 90t205.5 -90t74.5 -245z" />
<glyph unicode="&#x151;" horiz-adv-x="501" d="M151 590l45 128l52 -13l-63 -129zM280 590l46 128l51 -13l-63 -129zM250 466q-70 0 -103 -53.5t-33 -162.5t33 -162.5t103 -53.5q136 0 136 216t-136 216zM463 250q0 -123 -55.5 -191.5t-157.5 -68.5q-104 0 -158.5 68t-54.5 192t54.5 192t158.5 68t158.5 -68t54.5 -192z " />
<glyph unicode="&#x152;" horiz-adv-x="940" d="M525 324q0 139 -51.5 213t-147.5 74q-95 0 -146 -74t-51 -213q0 -140 50.5 -213t146.5 -73t147.5 73t51.5 213zM900 48v-48h-373v74q-75 -84 -201 -84q-131 0 -204.5 89t-73.5 245q0 155 73.5 245t204.5 90q127 0 201 -85v76h351v-48h-275v-219q2 -20 2 -31h249v-46h-248 l-3 -42v-216h297z" />
<glyph unicode="&#x153;" horiz-adv-x="803" d="M592 467q-118 0 -128 -189h239q1 10 1 19q0 170 -112 170zM250 466q-70 0 -103 -53.5t-33 -162.5t33 -162.5t103 -53.5q136 0 136 216t-136 216zM738 99l29 -24q-2 -3 -5.5 -9t-18 -20.5t-32 -26t-47 -20.5t-63.5 -9q-125 0 -178 91q-56 -91 -173 -91q-104 0 -158.5 68 t-54.5 192t54.5 192t158.5 68q123 0 176 -95q55 95 166 95q86 0 132.5 -59.5t46.5 -168.5l-5 -46h-303q0 -202 146 -202q25 0 47.5 6.5t36.5 16t25 19.5t16 16z" />
<glyph unicode="&#x154;" horiz-adv-x="539" d="M299 856l63 -15l-102 -135l-38 5zM242 606h-72v-320h81q65 0 98 37t33 125q0 158 -140 158zM251 650q99 0 155 -51.5t56 -147.5q0 -77 -33 -126t-87 -70l163 -255h-87l-149 241h-99v-241h-76v650h157z" />
<glyph unicode="&#x155;" horiz-adv-x="329" d="M231 721l63 -15l-102 -135l-38 5zM322 494l-7 -55q-44 15 -75 15q-22 0 -41 -13t-29.5 -31.5t-15.5 -30.5t-7 -19v-360h-73v500h54l11 -103q1 5 3 12.5t11 27t20 34.5t31 27t44 12q14 0 32.5 -4t29.5 -8z" />
<glyph unicode="&#x156;" horiz-adv-x="539" d="M248 -54q10 9 25 9t25 -9q19 -18 19 -57q0 -45 -23.5 -96t-60.5 -81l-18 19q29 27 44.5 63.5t15.5 70.5q0 12 -1 18q-16 0 -26 9q-11 11 -11 27t11 27zM242 606h-72v-320h81q65 0 98 37t33 125q0 158 -140 158zM251 650q99 0 155 -51.5t56 -147.5q0 -77 -33 -126t-87 -70 l163 -255h-87l-149 241h-99v-241h-76v650h157z" />
<glyph unicode="&#x157;" horiz-adv-x="329" d="M85 -54q11 9 25 9t25 -9q19 -18 19 -57q0 -45 -23.5 -96t-60.5 -81l-18 19q29 27 44.5 63.5t15.5 70.5q0 12 -1 18q-15 0 -26 9q-11 11 -11 27t11 27zM322 494l-7 -55q-44 15 -75 15q-22 0 -41 -13t-29.5 -31.5t-15.5 -30.5t-7 -19v-360h-73v500h54l11 -103q1 5 3 12.5 t11 27t20 34.5t31 27t44 12q14 0 32.5 -4t29.5 -8z" />
<glyph unicode="&#x158;" horiz-adv-x="539" d="M233 708l-119 123l29 24l109 -101l111 101l28 -26l-119 -121h-39zM242 606h-72v-320h81q65 0 98 37t33 125q0 158 -140 158zM251 650q99 0 155 -51.5t56 -147.5q0 -77 -33 -126t-87 -70l163 -255h-87l-149 241h-99v-241h-76v650h157z" />
<glyph unicode="&#x159;" horiz-adv-x="328" d="M166 573l-119 123l29 24l109 -101l111 101l28 -26l-119 -121h-39zM322 494l-7 -55q-44 15 -75 15q-22 0 -41 -13t-29.5 -31.5t-15.5 -30.5t-7 -19v-360h-73v500h54l11 -103q1 5 3 12.5t11 27t20 34.5t31 27t44 12q14 0 32.5 -4t29.5 -8z" />
<glyph unicode="&#x15a;" horiz-adv-x="490" d="M311 856l63 -15l-102 -135l-38 5zM419 603l-10 -44q-6 6 -17.5 15t-48 24t-74.5 15q-56 0 -88 -31t-32 -84q0 -46 30.5 -76t73.5 -47t86 -36.5t73.5 -59.5t30.5 -101q0 -83 -56.5 -135.5t-150.5 -52.5q-41 0 -76 9t-55.5 21t-35 24.5t-19.5 21.5l-6 9l25 39q2 -3 5.5 -8 t17.5 -18t31 -23t46.5 -18t63.5 -8q63 0 99 36.5t36 90.5q0 46 -30.5 76t-73.5 47.5t-86 36.5t-73.5 57.5t-30.5 96.5q0 82 52 130.5t139 48.5q43 0 81.5 -14t55.5 -28z" />
<glyph unicode="&#x15b;" horiz-adv-x="408" d="M263 721l63 -15l-102 -135l-38 5zM36 64l25 35q5 -7 14 -18t41.5 -29t70.5 -18q56 0 84.5 28t28.5 68q0 37 -25 59t-60.5 34t-71.5 26t-61 44t-25 78q0 64 46.5 101.5t119.5 37.5q32 0 65 -10t50 -20l17 -9l-12 -43q-53 40 -114 40q-46 0 -74.5 -23t-28.5 -58 q0 -37 26 -60t62.5 -35.5t73 -26.5t62.5 -44.5t26 -78.5q0 -65 -45 -108.5t-132 -43.5q-34 0 -63 7.5t-46.5 18.5t-30.5 22t-18 18z" />
<glyph unicode="&#x15e;" horiz-adv-x="490" d="M419 603l-10 -44q-6 6 -17.5 15t-48 24t-74.5 15q-56 0 -88 -31t-32 -84q0 -46 30.5 -76t73.5 -47t86 -36.5t73.5 -59.5t30.5 -101q0 -79 -52 -131t-139 -56l-6 -60l24 -6q24 -6 48 -26t24 -54q0 -45 -26.5 -70.5t-77.5 -25.5q-30 0 -53 10.5t-31 20.5l-8 11l18 20 q22 -32 67 -32q66 0 66 68q0 26 -21 40t-42 17t-21 4l11 82q-39 1 -71.5 10.5t-51.5 21.5t-33 24t-19 20l-5 9l25 39q2 -3 5.5 -8t17.5 -18t31 -23t46.5 -18t63.5 -8q63 0 99 36.5t36 90.5q0 46 -30.5 76t-73.5 47.5t-86 36.5t-73.5 57.5t-30.5 96.5q0 82 52 130.5t139 48.5 q43 0 81.5 -14t55.5 -28z" />
<glyph unicode="&#x15f;" horiz-adv-x="408" d="M36 64l25 35q5 -7 14 -18t41.5 -29t70.5 -18q56 0 84.5 28t28.5 68q0 37 -25 59t-60.5 34t-71.5 26t-61 44t-25 78q0 64 46.5 101.5t119.5 37.5q32 0 65 -10t50 -20l17 -9l-12 -43q-53 40 -114 40q-46 0 -74.5 -23t-28.5 -58q0 -37 26 -60t62.5 -35.5t73 -26.5 t62.5 -44.5t26 -78.5q0 -62 -40.5 -104.5t-120.5 -46.5l-6 -60l24 -6q24 -6 48 -26t24 -54q0 -45 -26.5 -70.5t-77.5 -25.5q-30 0 -53 10.5t-31 20.5l-8 11l18 20q22 -32 67 -32q66 0 66 68q0 26 -21 40t-42 17t-21 4l11 82q-31 1 -58 9.5t-43.5 19t-28 21t-16.5 17.5z" />
<glyph unicode="&#x160;" horiz-adv-x="490" d="M242 708l-119 123l29 24l109 -101l111 101l28 -26l-119 -121h-39zM419 603l-10 -44q-6 6 -17.5 15t-48 24t-74.5 15q-56 0 -88 -31t-32 -84q0 -46 30.5 -76t73.5 -47t86 -36.5t73.5 -59.5t30.5 -101q0 -83 -56.5 -135.5t-150.5 -52.5q-41 0 -76 9t-55.5 21t-35 24.5 t-19.5 21.5l-6 9l25 39q2 -3 5.5 -8t17.5 -18t31 -23t46.5 -18t63.5 -8q63 0 99 36.5t36 90.5q0 46 -30.5 76t-73.5 47.5t-86 36.5t-73.5 57.5t-30.5 96.5q0 82 52 130.5t139 48.5q43 0 81.5 -14t55.5 -28z" />
<glyph unicode="&#x161;" horiz-adv-x="408" d="M189 573l-119 123l29 24l109 -101l111 101l28 -26l-119 -121h-39zM36 64l25 35q5 -7 14 -18t41.5 -29t70.5 -18q56 0 84.5 28t28.5 68q0 37 -25 59t-60.5 34t-71.5 26t-61 44t-25 78q0 64 46.5 101.5t119.5 37.5q32 0 65 -10t50 -20l17 -9l-12 -43q-53 40 -114 40 q-46 0 -74.5 -23t-28.5 -58q0 -37 26 -60t62.5 -35.5t73 -26.5t62.5 -44.5t26 -78.5q0 -65 -45 -108.5t-132 -43.5q-34 0 -63 7.5t-46.5 18.5t-30.5 22t-18 18z" />
<glyph unicode="&#x162;" horiz-adv-x="461" d="M205 -54q11 9 25 9t25 -9q19 -18 19 -57q0 -45 -23.5 -96t-60.5 -81l-18 19q29 27 44.5 63.5t15.5 70.5q0 12 -1 18q-15 0 -26 9q-11 11 -11 27t11 27zM454 650v-48h-186v-602h-76v602h-185v48h447z" />
<glyph unicode="&#x163;" horiz-adv-x="326" d="M194 -54l2 -2q17 -18 17 -55q0 -45 -23.5 -96t-60.5 -81l-18 19q29 27 44.5 63.5t15.5 70.5q0 12 -1 18q-16 0 -26 9q-11 11 -11 27t11 27q10 9 25 9t25 -9zM293 500v-49h-128v-299q0 -65 12.5 -89.5t43.5 -24.5q18 0 34 3t23 5l8 3l5 -40q-28 -19 -93 -19 q-54 0 -80 33.5t-26 110.5v317h-52v42l52 6l27 159h46v-158h128z" />
<glyph unicode="&#x164;" horiz-adv-x="461" d="M210 708l-119 123l29 24l109 -101l111 101l28 -26l-119 -121h-39zM454 650v-48h-186v-602h-76v602h-185v48h447z" />
<glyph unicode="&#x165;" horiz-adv-x="326" d="M283 769l50 -7l-52 -212l-31 3zM293 500v-49h-128v-299q0 -65 12.5 -89.5t43.5 -24.5q18 0 34 3t23 5l8 3l5 -40q-28 -19 -93 -19q-54 0 -80 33.5t-26 110.5v317h-52v42l52 6l27 159h46v-158h128z" />
<glyph unicode="&#x16a;" horiz-adv-x="620" d="M410 807v-36h-186v36h186zM310 -10q-109 0 -166.5 60t-57.5 162v438h75v-421q0 -91 40 -139.5t117 -48.5q80 0 120.5 49.5t40.5 138.5v421h55v-438q0 -102 -56 -162t-168 -60z" />
<glyph unicode="&#x16b;" horiz-adv-x="512" d="M350 672v-36h-186v36h186zM437 500v-500h-61l-10 48q-7 -9 -18.5 -19.5t-47 -24.5t-79.5 -14q-73 0 -113 40.5t-40 120.5v349h73v-334q0 -123 104 -123q36 0 65.5 12.5t41.5 25.5l12 13v406h73z" />
<glyph unicode="&#x16e;" horiz-adv-x="620" d="M376 779q0 33 -17 50t-43 17q-27 0 -44 -17t-17 -50q0 -34 17 -50.5t44 -16.5t43.5 16.5t16.5 50.5zM405 779q0 -45 -24.5 -69t-64.5 -24t-64.5 24t-24.5 69q0 44 25 69t64 25q38 0 63.5 -25t25.5 -69zM310 -10q-109 0 -166.5 60t-57.5 162v438h75v-421q0 -91 40 -139.5 t117 -48.5q80 0 120.5 49.5t40.5 138.5v421h55v-438q0 -102 -56 -162t-168 -60z" />
<glyph unicode="&#x16f;" horiz-adv-x="512" d="M315 644q0 34 -16.5 50.5t-43.5 16.5t-44 -17t-17 -50q0 -34 17 -50.5t44 -16.5t43.5 16.5t16.5 50.5zM344 644q0 -45 -24.5 -69t-64.5 -24t-64.5 24t-24.5 69q0 44 25 69t64 25q38 0 63.5 -25t25.5 -69zM437 500v-500h-61l-10 48q-7 -9 -18.5 -19.5t-47 -24.5t-79.5 -14 q-73 0 -113 40.5t-40 120.5v349h73v-334q0 -123 104 -123q36 0 65.5 12.5t41.5 25.5l12 13v406h73z" />
<glyph unicode="&#x170;" horiz-adv-x="620" d="M217 725l45 128l52 -13l-63 -129zM346 725l46 128l51 -13l-63 -129zM310 -10q-109 0 -166.5 60t-57.5 162v438h75v-421q0 -91 40 -139.5t117 -48.5q80 0 120.5 49.5t40.5 138.5v421h55v-438q0 -102 -56 -162t-168 -60z" />
<glyph unicode="&#x171;" horiz-adv-x="512" d="M165 590l45 128l52 -13l-63 -129zM294 590l46 128l51 -13l-63 -129zM437 500v-500h-61l-10 48q-7 -9 -18.5 -19.5t-47 -24.5t-79.5 -14q-73 0 -113 40.5t-40 120.5v349h73v-334q0 -123 104 -123q36 0 65.5 12.5t41.5 25.5l12 13v406h73z" />
<glyph unicode="&#x172;" horiz-adv-x="620" d="M310 -10q-109 0 -166.5 60t-57.5 162v438h75v-421q0 -91 40 -139.5t117 -48.5q80 0 120.5 49.5t40.5 138.5v421h55v-438q0 -86 -39.5 -142.5t-119.5 -73.5q-75 -52 -75 -131q0 -83 105 -83v-32q-155 0 -155 111q0 71 75 129h-15z" />
<glyph unicode="&#x173;" horiz-adv-x="512" d="M437 500v-500h-18q-15 -10 -30 -23t-33 -45t-18 -67q0 -83 105 -83v-32q-155 0 -155 111q0 77 88 139l-10 48q-7 -9 -18.5 -19.5t-47 -24.5t-79.5 -14q-73 0 -113 40.5t-40 120.5v349h73v-334q0 -123 104 -123q36 0 65.5 12.5t41.5 25.5l12 13v406h73z" />
<glyph unicode="&#x178;" horiz-adv-x="507" d="M161 809q13 10 27 10q13 0 26 -10q11 -13 11 -30q0 -16 -11 -29q-13 -10 -26 -10q-14 0 -27 10q-11 11 -11 29q0 19 11 30zM315 809q13 10 26 10t26 -10q12 -12 12 -30q0 -17 -12 -29q-13 -10 -26 -10t-26 10q-11 11 -11 29q0 19 11 30zM2 650h85l179 -320l178 320h61 l-212 -376v-274h-76v269z" />
<glyph unicode="&#x179;" horiz-adv-x="527" d="M321 856l63 -15l-102 -135l-38 5zM485 650v-41l-353 -561h353v-48h-445v40l352 562h-343v48h436z" />
<glyph unicode="&#x17a;" horiz-adv-x="415" d="M266 721l63 -15l-102 -135l-38 5zM375 500v-40l-254 -415h252l2 -45h-340v40l256 415h-234l-3 45h321z" />
<glyph unicode="&#x17b;" horiz-adv-x="527" d="M241 811q11 11 29 11q19 0 30 -10q12 -14 12 -33t-12 -32q-14 -11 -30 -11q-18 0 -29 11q-13 13 -13 32t13 32zM485 650v-41l-353 -561h353v-48h-445v40l352 562h-343v48h436z" />
<glyph unicode="&#x17c;" horiz-adv-x="415" d="M191 676q11 11 29 11q19 0 30 -10q12 -13 12 -33q0 -18 -12 -32q-14 -11 -30 -11q-18 0 -29 11q-13 13 -13 32t13 32zM375 500v-40l-254 -415h252l2 -45h-340v40l256 415h-234l-3 45h321z" />
<glyph unicode="&#x17d;" horiz-adv-x="527" d="M252 708l-119 123l29 24l109 -101l111 101l28 -26l-119 -121h-39zM485 650v-41l-353 -561h353v-48h-445v40l352 562h-343v48h436z" />
<glyph unicode="&#x17e;" horiz-adv-x="415" d="M201 573l-119 123l29 24l109 -101l111 101l28 -26l-119 -121h-39zM375 500v-40l-254 -415h252l2 -45h-340v40l256 415h-234l-3 45h321z" />
<glyph unicode="&#x17f;" horiz-adv-x="222" d="M147 563v-563h-73v571q0 96 30.5 142t101.5 46q24 0 47.5 -7.5t35.5 -14.5l12 -7l-10 -39q-34 23 -74 23q-38 0 -54 -32.5t-16 -118.5z" />
<glyph unicode="&#x192;" horiz-adv-x="282" d="M97 -45v496h-52v42l52 6v72q0 96 30.5 142t100.5 46q24 0 48 -7.5t36 -14.5l12 -7l-11 -39q-33 23 -73 23q-38 0 -54.5 -33t-16.5 -118v-63h146v-49h-146v-496q0 -112 -40 -163.5t-97 -51.5q-24 0 -41.5 4t-22.5 8l-6 3l14 47q17 -9 48 -9q73 0 73 162z" />
<glyph unicode="&#x237;" horiz-adv-x="239" d="M91 -41v541h73v-541q0 -219 -141 -219q-24 0 -42 5.5t-25 10.5l-6 6l14 41q19 -16 50 -16q39 0 58 40t19 132z" />
<glyph unicode="&#x2c6;" horiz-adv-x="336" d="M187 743l108 -114l-18 -32l-110 97l-110 -97l-19 32l110 114h39z" />
<glyph unicode="&#x2c7;" horiz-adv-x="336" d="M148 573l-119 123l29 24l109 -101l111 101l28 -26l-119 -121h-39z" />
<glyph unicode="&#x2d8;" horiz-adv-x="353" d="M176 620q36 0 59.5 15t28.5 29l6 15v2l45 -6q0 -4 -2 -10.5t-10.5 -24t-22.5 -30.5t-41 -23.5t-63 -10.5t-63 10t-40.5 25t-21.5 29.5t-10 24.5l-2 10l45 6v-2q0 -2 1.5 -6t8 -14.5t15.5 -18t27 -14t40 -6.5z" />
<glyph unicode="&#x2d9;" horiz-adv-x="365" d="M182 676q11 11 29 11q19 0 30 -10q12 -13 12 -33q0 -18 -12 -32q-14 -11 -30 -11q-18 0 -29 11q-13 13 -13 32t13 32z" />
<glyph unicode="&#x2da;" horiz-adv-x="409" d="M212 644q0 34 -17 50.5t-43 16.5q-27 0 -44 -17t-17 -50q0 -34 17 -50.5t44 -16.5t43.5 16.5t16.5 50.5zM241 644q0 -45 -24.5 -69t-64.5 -24t-64.5 24t-24.5 69q0 44 25 69t64 25q38 0 63.5 -25t25.5 -69z" />
<glyph unicode="&#x2db;" horiz-adv-x="233" d="M161 22l13 -18q-4 -2 -9.5 -6t-21 -17t-27 -28t-21 -39t-9.5 -49q0 -83 105 -83v-32q-155 0 -155 111q0 28 13 55t31 45.5t36.5 32.5t31.5 21z" />
<glyph unicode="&#x2dc;" horiz-adv-x="396" d="M337 671l23 -25q-3 -6 -8.5 -14.5t-27 -22.5t-49.5 -14q-30 0 -79 23t-75 23q-17 0 -32 -9.5t-21 -19.5l-7 -10l-23 25q1 3 3.5 7t11.5 15t19 19t27 15t35 7q33 0 80.5 -23t71.5 -23q16 0 29 7t17 13z" />
<glyph unicode="&#x2dd;" horiz-adv-x="375" d="M75 590l45 128l52 -13l-63 -129zM204 590l46 128l51 -13l-63 -129z" />
<glyph unicode="&#x400;" horiz-adv-x="507" d="M168 843l62 16l83 -143l-40 -8zM466 48v-48h-372v650h350v-48h-274v-250h251v-46h-251v-258h296z" />
<glyph unicode="&#x401;" horiz-adv-x="507" d="M164 809q13 10 26 10q14 0 27 -10q11 -13 11 -30q0 -16 -11 -29q-13 -10 -27 -10q-13 0 -26 10q-11 11 -11 29q0 19 11 30zM318 809q13 10 26 10t26 -10q12 -12 12 -30q0 -17 -12 -29q-13 -10 -26 -10t-26 10q-11 11 -11 29q0 19 11 30zM466 48v-48h-372v650h350v-48 h-274v-250h251v-46h-251v-258h296z" />
<glyph unicode="&#x402;" horiz-adv-x="637" d="M432 650v-46h-174v-278q6 8 21.5 22t58 33t89.5 19q84 0 120 -40t36 -124v-49q0 -111 -38.5 -154t-105.5 -43q-31 0 -55 9.5t-32 19.5l-9 10l14 33q23 -30 66 -30q82 0 85 130v59q0 73 -24 99.5t-85 26.5q-33 0 -66.5 -15t-48.5 -27t-26 -24v-281h-76v604h-175v46h425z " />
<glyph unicode="&#x403;" horiz-adv-x="409" d="M273 856l63 -15l-102 -135l-38 5zM407 602h-237v-602h-76v650h313v-48z" />
<glyph unicode="&#x404;" horiz-adv-x="575" d="M457 342v-47h-327q4 -129 60 -192t154 -63q34 0 65 10t51 24.5t35.5 29t22.5 24.5l7 10l27 -32q-3 -5 -8 -12.5t-24 -27.5t-42 -35.5t-61.5 -28t-81.5 -12.5q-134 0 -210.5 86t-76.5 240q0 155 75.5 249t203.5 94q46 0 93 -13.5t72 -27.5l24 -14l-10 -48q-9 6 -25.5 15 t-61.5 23.5t-84 14.5q-94 0 -147 -67.5t-58 -199.5h327z" />
<glyph unicode="&#x405;" horiz-adv-x="490" d="M419 603l-10 -44q-6 6 -17.5 15t-48 24t-74.5 15q-56 0 -88 -31t-32 -84q0 -46 30.5 -76t73.5 -47t86 -36.5t73.5 -59.5t30.5 -101q0 -83 -56.5 -135.5t-150.5 -52.5q-41 0 -76 9t-55.5 21t-35 24.5t-19.5 21.5l-6 9l25 39q2 -3 5.5 -8t17.5 -18t31 -23t46.5 -18t63.5 -8 q63 0 99 36.5t36 90.5q0 46 -30.5 76t-73.5 47.5t-86 36.5t-73.5 57.5t-30.5 96.5q0 82 52 130.5t139 48.5q43 0 81.5 -14t55.5 -28z" />
<glyph unicode="&#x406;" horiz-adv-x="265" d="M170 650v-650h-76v650h76z" />
<glyph unicode="&#x407;" horiz-adv-x="265" d="M29 809q13 10 27 10q13 0 26 -10q11 -13 11 -30q0 -16 -11 -29q-13 -10 -26 -10q-14 0 -27 10q-11 11 -11 29q0 19 11 30zM183 809q13 10 26 10t26 -10q12 -12 12 -30q0 -17 -12 -29q-13 -10 -26 -10t-26 10q-11 11 -11 29q0 19 11 30zM170 650v-650h-76v650h76z" />
<glyph unicode="&#x408;" horiz-adv-x="374" d="M26 71q3 -4 8 -9.5t26 -14.5t47 -9q93 0 93 153v459h75v-459q0 -112 -40 -156.5t-111 -44.5q-41 0 -70.5 10.5t-38.5 21.5l-9 10z" />
<glyph unicode="&#x409;" horiz-adv-x="871" d="M584 346h-77v-302h79q160 0 160 155q0 147 -162 147zM431 0v602h-189q-1 -298 -48 -453.5t-132 -155.5q-13 0 -23 1.5t-14 3.5l-4 1l3 54q11 -4 25 -4q141 0 141 601h317v-262h77q114 0 176.5 -47t62.5 -140q0 -96 -59.5 -148.5t-175.5 -52.5h-157z" />
<glyph unicode="&#x40a;" horiz-adv-x="906" d="M620 346h-77v-302h79q160 0 160 155q0 147 -162 147zM467 0v312h-297v-312h-76v650h76v-292h297v292h76v-262h77q114 0 176.5 -47t62.5 -140q0 -96 -59.5 -148.5t-175.5 -52.5h-157z" />
<glyph unicode="&#x40b;" horiz-adv-x="670" d="M432 650v-46h-174v-278q6 8 21.5 22t58 33t89.5 19q84 0 120.5 -40t36.5 -124v-236h-76v221q0 73 -24 99.5t-85 26.5q-33 0 -66.5 -15t-48.5 -27t-26 -24v-281h-76v604h-175v46h425z" />
<glyph unicode="&#x40c;" horiz-adv-x="600" d="M327 856l63 -15l-102 -135l-38 5zM94 0v650h76v-354l79 70l219 284h61l-228 -290l259 -360h-95l-220 302l-75 -63v-239h-76z" />
<glyph unicode="&#x40d;" horiz-adv-x="652" d="M215 843l62 16l83 -143l-40 -8zM558 650v-650h-75v518l4 37h-1l-315 -544l-5 -11h-72v650h76v-523l-5 -33h1l316 545l5 11h71z" />
<glyph unicode="&#x40e;" horiz-adv-x="569" d="M311 750q23 0 39.5 6.5t24.5 15t12.5 17.5t4.5 15l1 7v5l60 -6q0 -4 -1.5 -10.5t-10.5 -24t-22.5 -30.5t-42 -23.5t-65.5 -10.5t-65 10t-41.5 24.5t-22 29.5t-10.5 25l-2 10l60 6v-5q0 -2 0.5 -6.5t5 -15t12 -18.5t24.5 -14.5t39 -6.5zM30 650h88l210 -421l153 421h60 l-186 -476q-40 -101 -86 -142t-106 -41q-24 0 -45 5t-30 10l-8 5l11 53q27 -19 72 -19q38 0 68 21.5t59 82.5z" />
<glyph unicode="&#x40f;" horiz-adv-x="623" d="M170 650v-602h282v602h76v-650h-183l-9 -211h-48l-11 211h-183v650h76z" />
<glyph unicode="&#x410;" horiz-adv-x="568" d="M273 592l-115 -351h228zM242 650h89l215 -650h-79l-68 200h-255l-68 -200h-53z" />
<glyph unicode="&#x411;" horiz-adv-x="533" d="M245 346h-75v-302h77q82 0 122 37.5t40 117.5q0 147 -164 147zM422 650v-48h-252v-214h75q115 0 178 -47t63 -140q0 -96 -60 -148.5t-176 -52.5h-156v650h328z" />
<glyph unicode="&#x412;" horiz-adv-x="542" d="M170 356h118q35 0 68.5 30t33.5 97q0 61 -37 92t-98 31h-85v-250zM292 315h-122v-271h86q163 0 163 143q0 64 -35 96t-92 32zM94 0v650h164q98 0 151.5 -44.5t53.5 -117.5q0 -98 -94 -147q58 -16 91.5 -56t33.5 -101q0 -88 -58.5 -136t-176.5 -48h-165z" />
<glyph unicode="&#x413;" horiz-adv-x="409" d="M407 602h-237v-602h-76v650h313v-48z" />
<glyph unicode="&#x414;" horiz-adv-x="611" d="M427 602h-203q-2 -217 -23 -344t-60 -210h286v554zM171 650h331v-602h76l-12 -217h-49l-11 169h-405l-18 -169h-45l-5 217h54q42 84 63 220.5t21 381.5z" />
<glyph unicode="&#x415;" horiz-adv-x="507" d="M466 48v-48h-372v650h350v-48h-274v-250h251v-46h-251v-258h296z" />
<glyph unicode="&#x416;" horiz-adv-x="862" d="M455 650v-275h93l179 275h63l-193 -283l223 -367h-89l-192 327h-84v-327h-75v327h-84l-166 -327h-88l195 354l-177 296h63l160 -276h97v276h75z" />
<glyph unicode="&#x417;" horiz-adv-x="483" d="M75 565l-9 43q8 6 22 14.5t56 22.5t82 14q92 0 140 -44t48 -120q0 -57 -30.5 -97t-74.5 -62q127 -27 127 -156q0 -85 -59 -137.5t-159 -52.5q-45 0 -82 10.5t-57.5 25.5t-34.5 30t-19 26l-5 10l28 35q2 -4 5 -9.5t16.5 -21t30 -27t46.5 -21t64 -9.5q68 0 105.5 37 t37.5 106q0 129 -126 129l-93 -4v48l98 -4q38 1 71 37.5t33 100.5q0 123 -122 123q-34 0 -68.5 -12t-52.5 -24z" />
<glyph unicode="&#x418;" horiz-adv-x="652" d="M558 650v-650h-75v518l4 37h-1l-315 -544l-5 -11h-72v650h76v-523l-5 -33h1l316 545l5 11h71z" />
<glyph unicode="&#x419;" horiz-adv-x="652" d="M327 750q23 0 39.5 6.5t24.5 15t12.5 17.5t4.5 15l1 7v5l60 -6q0 -4 -1.5 -10.5t-10.5 -24t-22.5 -30.5t-42 -23.5t-65.5 -10.5t-65 10t-41.5 24.5t-22 29.5t-10.5 25l-2 10l60 6v-5q0 -2 0.5 -6.5t5 -15t12 -18.5t24.5 -14.5t39 -6.5zM558 650v-650h-75v518l4 37h-1 l-315 -544l-5 -11h-72v650h76v-523l-5 -33h1l316 545l5 11h71z" />
<glyph unicode="&#x41a;" horiz-adv-x="600" d="M94 0v650h76v-354l79 70l219 284h61l-228 -290l259 -360h-95l-220 302l-75 -63v-239h-76z" />
<glyph unicode="&#x41b;" horiz-adv-x="602" d="M190 650h317v-650h-75v602h-190q-1 -298 -48 -453.5t-132 -155.5q-13 0 -23 1.5t-14 3.5l-4 1l3 54q11 -4 25 -4q141 0 141 601z" />
<glyph unicode="&#x41c;" horiz-adv-x="835" d="M738 650l3 -650h-74l-3 557h-1l-225 -557h-61l-226 557l-2 -557h-55l3 650l2 -3l-1 3h93l229 -557h1l229 557h88z" />
<glyph unicode="&#x41d;" horiz-adv-x="638" d="M543 650v-650h-76v312h-297v-312h-76v650h76v-292h297v292h76z" />
<glyph unicode="&#x41e;" horiz-adv-x="654" d="M525 324q0 139 -51.5 213t-147.5 74q-95 0 -146 -74t-51 -213q0 -140 50.5 -213t146.5 -73t147.5 73t51.5 213zM606 324q0 -156 -74 -245t-206 -89q-131 0 -204.5 89t-73.5 245q0 155 73.5 245t204.5 90t205.5 -90t74.5 -245z" />
<glyph unicode="&#x41f;" horiz-adv-x="623" d="M528 650v-650h-76v602h-282v-602h-76v650h434z" />
<glyph unicode="&#x420;" horiz-adv-x="496" d="M242 606h-72v-336h71q140 0 140 171q0 165 -139 165zM94 0v650h156q100 0 155.5 -52t55.5 -154q0 -112 -61.5 -164t-147.5 -52h-82v-228h-76z" />
<glyph unicode="&#x421;" horiz-adv-x="570" d="M510 556q-10 6 -26.5 15t-62.5 23.5t-85 14.5q-97 0 -152 -73.5t-55 -214.5q0 -139 56 -210t157 -71q34 0 64.5 10t51 24.5t35.5 29t22 24.5l7 10l28 -32q-3 -5 -8 -12.5t-24 -27.5t-42 -35.5t-61.5 -28t-81.5 -12.5q-135 0 -210 87.5t-75 241.5q0 156 76 248t204 92 q46 0 93.5 -13.5t72.5 -27.5l25 -14z" />
<glyph unicode="&#x422;" horiz-adv-x="461" d="M454 650v-48h-186v-602h-76v602h-185v48h447z" />
<glyph unicode="&#x423;" horiz-adv-x="569" d="M30 650h88l210 -421l153 421h60l-186 -476q-40 -101 -86 -142t-106 -41q-24 0 -45 5t-30 10l-8 5l11 53q27 -19 72 -19q38 0 68 21.5t59 82.5z" />
<glyph unicode="&#x424;" horiz-adv-x="710" d="M114 324q0 -104 50 -152t153 -50v409q-103 -2 -153 -51.5t-50 -155.5zM596 327q0 104 -50.5 153t-153.5 51v-409q103 2 153.5 51t50.5 154zM392 650v-78q134 -2 208.5 -62t74.5 -183q0 -124 -74.5 -184.5t-208.5 -62.5v-80h-75v80q-134 2 -208 62t-74 182 q0 123 74.5 184.5t207.5 63.5v78h75z" />
<glyph unicode="&#x425;" horiz-adv-x="541" d="M18 0l208 323l-200 327h92l161 -272l168 272h63l-199 -315l212 -335h-93l-171 279h-1l-173 -279h-67z" />
<glyph unicode="&#x426;" horiz-adv-x="637" d="M170 650v-602h282v602h76v-602h75l-13 -217h-49l-11 169h-436v650h76z" />
<glyph unicode="&#x427;" horiz-adv-x="565" d="M470 650v-650h-75v275q-6 -5 -18.5 -12.5t-55.5 -20t-91 -12.5q-161 0 -161 179v241h75v-230q0 -75 27 -106.5t86 -31.5q35 0 68.5 9t48 16.5t21.5 12.5v330h75z" />
<glyph unicode="&#x428;" horiz-adv-x="852" d="M464 650v-602h218v602h75v-650h-663v650h76v-602h218v602h76z" />
<glyph unicode="&#x429;" horiz-adv-x="866" d="M757 650v-602h70l-12 -217h-49l-11 169h-661v650h76v-602h218v602h76v-602h218v602h75z" />
<glyph unicode="&#x42a;" horiz-adv-x="620" d="M334 346h-77v-302h79q160 0 160 155q0 147 -162 147zM181 0v602h-174v48h250v-262h77q114 0 176.5 -47t62.5 -140q0 -96 -59.5 -148.5t-175.5 -52.5h-157z" />
<glyph unicode="&#x42b;" horiz-adv-x="757" d="M663 650v-650h-76v650h76zM247 346h-77v-302h79q160 0 160 155q0 147 -162 147zM94 0v650h76v-262h77q114 0 176.5 -47t62.5 -140q0 -96 -59.5 -148.5t-175.5 -52.5h-157z" />
<glyph unicode="&#x42c;" horiz-adv-x="533" d="M247 346h-77v-302h79q160 0 160 155q0 147 -162 147zM94 0v650h76v-262h77q114 0 176.5 -47t62.5 -140q0 -96 -59.5 -148.5t-175.5 -52.5h-157z" />
<glyph unicode="&#x42d;" horiz-adv-x="561" d="M13 86l26 41q2 -4 7 -9.5t21 -20.5t35 -26.5t50 -21t64 -9.5q94 0 151.5 66.5t62.5 197.5h-319v46h319q-3 136 -52 198t-150 62q-42 0 -80.5 -12.5t-56.5 -25.5l-18 -12l-9 45q8 6 22.5 15t59.5 24t91 15q136 0 206.5 -86.5t70.5 -244.5q0 -154 -78 -246t-205 -92 q-43 0 -81.5 10t-62.5 24t-41.5 28t-25.5 24z" />
<glyph unicode="&#x42e;" horiz-adv-x="899" d="M770 324q0 138 -52 213.5t-147 75.5t-147 -75.5t-52 -213.5q0 -139 52 -213.5t147 -74.5q96 0 147.5 74.5t51.5 213.5zM852 324q0 -156 -74.5 -245t-206.5 -89q-126 0 -199.5 82t-79.5 227h-122v-299h-76v650h76v-305h122q5 146 78.5 230t200.5 84q131 0 206 -90t75 -245 z" />
<glyph unicode="&#x42f;" horiz-adv-x="547" d="M130 456q0 -69 34 -108t82 -39h130v297h-130q-45 0 -80.5 -40.5t-35.5 -109.5zM451 650v-650h-75v262h-129l-121 -262h-77l134 271q-55 17 -91.5 63.5t-36.5 118.5q0 93 55.5 145t132.5 52h208z" />
<glyph unicode="&#x430;" horiz-adv-x="477" d="M315 107v146q-208 -23 -208 -131q0 -43 25 -65.5t68 -22.5q23 0 43.5 7.5t33 18t21.5 21.5t13 19zM89 423l-8 41q68 46 141 46q86 0 126 -36t40 -127v-245q0 -68 26 -68q7 0 16.5 2t15.5 4l7 3l3 -34q-49 -19 -78 -19q-26 0 -40 16.5t-17 58.5h-1q-1 -3 -4.5 -8t-15 -18 t-26.5 -23t-40.5 -18t-55.5 -8q-66 0 -106 32.5t-40 90.5q0 147 283 177v53q0 71 -23 97t-81 26q-26 0 -56.5 -11t-48.5 -21z" />
<glyph unicode="&#x431;" horiz-adv-x="505" d="M255 467q-67 0 -101.5 -56.5t-34.5 -146.5q0 -117 33 -173.5t103 -56.5q136 0 136 218q0 109 -33 162t-103 53zM303 668q-119 -14 -166.5 -86.5t-49.5 -224.5h5q5 23 16 47t31 49t53.5 41t74.5 16q97 0 149 -67.5t52 -190.5t-56 -192.5t-157 -69.5q-107 0 -160 73 t-53 202q0 70 3 120.5t11.5 105t25 92.5t42.5 71.5t66 53t93 27.5l135 19l3 -72z" />
<glyph unicode="&#x432;" horiz-adv-x="466" d="M147 273h107q3 0 9 1t20.5 6.5t25.5 14t20 27t9 43.5q0 95 -96 95h-95v-187zM248 241h-101v-201h92q116 0 116 109q0 41 -27 66.5t-80 25.5zM240 0h-165v500h168q167 0 167 -130q0 -78 -85 -110q45 -11 74.5 -41t29.5 -74q0 -145 -189 -145z" />
<glyph unicode="&#x433;" horiz-adv-x="352" d="M334 453h-187v-453h-72v500h259v-47z" />
<glyph unicode="&#x434;" horiz-adv-x="503" d="M176 454q-1 -138 -12 -233.5t-41 -174.5h220v408h-167zM486 46l-7 -196h-41l-12 150h-361l-13 -150h-42l-5 196h63q35 84 47.5 188.5t12.5 265.5h288v-454h70z" />
<glyph unicode="&#x435;" horiz-adv-x="453" d="M242 467q-118 0 -128 -189h239q1 10 1 19q0 170 -112 170zM388 99l29 -24q-2 -3 -5.5 -9t-18 -20.5t-32 -26t-47 -20.5t-63.5 -9q-100 0 -157 62.5t-57 187.5q0 126 55 198t150 72q86 0 132.5 -59.5t46.5 -168.5l-5 -46h-303q0 -202 146 -202q25 0 47.5 6.5t36.5 16 t25 19.5t16 16z" />
<glyph unicode="&#x436;" horiz-adv-x="668" d="M370 500v-214l71 1l137 213h57l-148 -233l156 -267h-81l-134 242l-58 -1v-241h-73v242l-56 1l-136 -243h-80l155 269l-139 231h58l125 -213l73 -1v214h73z" />
<glyph unicode="&#x437;" horiz-adv-x="416" d="M52 421l-9 42q7 5 20 13t50.5 21t71.5 13q87 0 130.5 -35t43.5 -95q0 -82 -79 -116q99 -28 99 -121q0 -68 -52.5 -110.5t-143.5 -42.5q-40 0 -72.5 8t-50.5 19.5t-30 23.5t-16 20l-3 8l25 32q1 -3 4 -7.5t13.5 -16t24.5 -20.5t39.5 -16t55.5 -7q61 0 96 32t35 80 q0 44 -28 68.5t-71 24.5l-87 -2v43l91 -2h3q9 1 19 5t24 13.5t23 29.5t9 47q0 43 -28 68.5t-83 25.5q-31 0 -62 -11.5t-46 -23.5z" />
<glyph unicode="&#x438;" horiz-adv-x="531" d="M391 500h65v-500h-73v410l-252 -410h-56v500h72v-399z" />
<glyph unicode="&#x439;" horiz-adv-x="531" d="M270 615q36 0 56.5 15.5t23.5 30.5l2 15v5l60 -6q0 -4 -1.5 -10.5t-10.5 -24t-22.5 -30.5t-42 -23.5t-65.5 -10.5t-65 10t-41.5 25t-22 29.5t-10.5 24.5l-2 10l60 6v-5q0 -2 0.5 -6.5t5 -15t12 -18.5t24.5 -14.5t39 -6.5zM391 500h65v-500h-73v410l-252 -410h-56v500h72 v-399z" />
<glyph unicode="&#x43a;" horiz-adv-x="456" d="M75 0v500h72v-229l62 34l144 195h51l-148 -205l178 -295h-84l-148 251l-55 -26v-225h-72z" />
<glyph unicode="&#x43b;" horiz-adv-x="479" d="M404 500v-500h-73v453h-141q-3 -223 -45.5 -342.5t-123.5 -119.5q-9 0 -14 1l3 49h5q124 0 124 459h265z" />
<glyph unicode="&#x43c;" horiz-adv-x="648" d="M569 500l7 -500h-67l-4 397l-1 29l-162 -426h-56l-158 426l-1 -11l-8 -415h-47l14 500h89l149 -426l157 426h88z" />
<glyph unicode="&#x43d;" horiz-adv-x="517" d="M75 0v500h72v-220h223v220h73v-500h-73v235h-223v-235h-72z" />
<glyph unicode="&#x43e;" horiz-adv-x="501" d="M250 466q-70 0 -103 -53.5t-33 -162.5t33 -162.5t103 -53.5q136 0 136 216t-136 216zM463 250q0 -123 -55.5 -191.5t-157.5 -68.5q-104 0 -158.5 68t-54.5 192t54.5 192t158.5 68t158.5 -68t54.5 -192z" />
<glyph unicode="&#x43f;" horiz-adv-x="510" d="M435 500v-500h-72v453h-216v-453h-72v500h360z" />
<glyph unicode="&#x440;" d="M262 461q-23 0 -43.5 -7t-33 -17t-21.5 -20t-13 -17l-4 -7v-311q37 -44 105 -44q78 0 114 55.5t36 168.5q0 199 -140 199zM75 -252v752h60l9 -60q5 8 13 16.5t25 22t44 22.5t60 9q88 0 140.5 -65t52.5 -181q0 -126 -53 -200t-150 -74q-41 0 -73 12t-43 24l-12 12h-1v-288 z" />
<glyph unicode="&#x441;" horiz-adv-x="423" d="M386 426q-57 40 -123 40q-77 0 -113 -51t-36 -169q0 -212 145 -212q24 0 46 6.5t35.5 15.5t23.5 18t14 16l5 6l32 -21q-2 -3 -5 -9t-16.5 -20.5t-30.5 -26t-46.5 -20.5t-63.5 -9q-104 0 -160 64t-56 191q0 128 55.5 196.5t162.5 68.5q35 0 70 -11t53 -21l17 -11z" />
<glyph unicode="&#x442;" horiz-adv-x="410" d="M392 453h-151v-453h-72v453h-152v47h376z" />
<glyph unicode="&#x443;" horiz-adv-x="449" d="M24 -201q19 -9 41 -9q46 0 77 49.5t69 154.5l-196 506h86l148 -418l134 418h53l-173 -508q-21 -59 -37.5 -98t-39.5 -77.5t-50.5 -57.5t-59.5 -19q-18 0 -33 3t-21 7l-6 3z" />
<glyph unicode="&#x444;" horiz-adv-x="630" d="M111 250q0 -112 41 -164t126 -52v432q-85 -1 -126 -52.5t-41 -163.5zM519 250q0 111 -42 163.5t-126 53.5v-433q84 0 126 52t42 164zM351 752v-242h4q113 0 175.5 -68t62.5 -192t-62.5 -192t-175.5 -68l-4 1v-241l-73 -2v242h-4q-113 0 -175 68t-62 192t62 192t175 68 l4 -1v239z" />
<glyph unicode="&#x445;" horiz-adv-x="443" d="M417 500l-155 -239l168 -261h-85l-134 216l-139 -216h-60l166 249l-158 251h86l123 -209l129 209h59z" />
<glyph unicode="&#x446;" horiz-adv-x="522" d="M147 500v-453h216v453h72v-453h63l-7 -197h-46l-7 150h-363v500h72z" />
<glyph unicode="&#x447;" horiz-adv-x="463" d="M315 257v243h73v-500h-73v220l-5 -2q-4 -2 -10 -4.5t-15 -5.5t-20 -6t-24.5 -5.5t-30 -4t-34.5 -1.5q-129 0 -129 136v173h73v-171q0 -98 81 -98q31 0 59.5 6.5t41.5 12.5z" />
<glyph unicode="&#x448;" horiz-adv-x="719" d="M644 500v-500h-569v500h72v-453h176v453h73v-453h175v453h73z" />
<glyph unicode="&#x449;" horiz-adv-x="730" d="M707 47l-6 -197h-46l-8 150h-572v500h72v-453h176v453h73v-453h175v453h73v-453h63z" />
<glyph unicode="&#x44a;" horiz-adv-x="536" d="M305 272h-76v-232h78q59 0 90 28t31 93q0 111 -123 111zM229 500v-189h78q197 0 197 -150q0 -161 -195 -161h-152v453h-138l-1 47h211z" />
<glyph unicode="&#x44b;" horiz-adv-x="655" d="M223 272h-76v-232h78q59 0 90 28t31 93q0 111 -123 111zM147 500v-189h78q197 0 197 -150q0 -161 -195 -161h-152v500h72zM581 500v-500h-73v500h73z" />
<glyph unicode="&#x44c;" horiz-adv-x="454" d="M223 272h-76v-232h78q59 0 90 28t31 93q0 111 -123 111zM147 500v-189h78q197 0 197 -150q0 -161 -195 -161h-152v500h72z" />
<glyph unicode="&#x44d;" horiz-adv-x="433" d="M17 62l23 31q2 -2 5 -6t14 -14.5t24.5 -18t36.5 -14t49 -6.5q145 0 155 197l-216 -1v48h216q-6 189 -147 189q-32 0 -64.5 -11.5t-48.5 -22.5l-17 -11l-9 42q69 46 146 46q98 0 155 -64.5t57 -180.5q0 -130 -61 -202.5t-159 -72.5q-34 0 -63 7.5t-45.5 18t-29 21 t-16.5 17.5z" />
<glyph unicode="&#x44e;" horiz-adv-x="676" d="M432 467q-70 0 -100 -53.5t-30 -163.5q0 -108 30 -162.5t100 -54.5q71 0 102 54.5t31 162.5q0 110 -31 163.5t-102 53.5zM431 510q104 0 156 -67.5t52 -192.5q0 -126 -51.5 -193t-156.5 -67q-95 0 -145.5 63t-53.5 182h-85v-235h-72v500h72v-220h85q13 230 199 230z" />
<glyph unicode="&#x44f;" horiz-adv-x="460" d="M112 351q0 -51 33.5 -78t87.5 -27h3h77v214h-78q-123 0 -123 -109zM385 500v-500h-72v206h-100l-96 -206h-74l108 219q-48 16 -79 50t-31 82q0 149 188 149h156z" />
<glyph unicode="&#x450;" horiz-adv-x="453" d="M133 708l62 16l83 -143l-40 -8zM242 467q-118 0 -128 -189h239q1 10 1 19q0 170 -112 170zM388 99l29 -24q-2 -3 -5.5 -9t-18 -20.5t-32 -26t-47 -20.5t-63.5 -9q-100 0 -157 62.5t-57 187.5q0 126 55 198t150 72q86 0 132.5 -59.5t46.5 -168.5l-5 -46h-303 q0 -202 146 -202q25 0 47.5 6.5t36.5 16t25 19.5t16 16z" />
<glyph unicode="&#x451;" horiz-adv-x="453" d="M122 674q13 10 26 10q14 0 27 -10q11 -13 11 -30q0 -16 -11 -29q-13 -10 -27 -10q-13 0 -26 10q-11 11 -11 29q0 19 11 30zM276 674q13 10 26 10t26 -10q12 -12 12 -30q0 -17 -12 -29q-13 -10 -26 -10t-26 10q-11 11 -11 29q0 19 11 30zM242 467q-118 0 -128 -189h239 q1 10 1 19q0 170 -112 170zM388 99l29 -24q-2 -3 -5.5 -9t-18 -20.5t-32 -26t-47 -20.5t-63.5 -9q-100 0 -157 62.5t-57 187.5q0 126 55 198t150 72q86 0 132.5 -59.5t46.5 -168.5l-5 -46h-303q0 -202 146 -202q25 0 47.5 6.5t36.5 16t25 19.5t16 16z" />
<glyph unicode="&#x452;" horiz-adv-x="512" d="M323 607v-44h-176v-192h2l3 3q2 4 7 9t12.5 11.5t19 13.5t25 12t32 8.5t38.5 3.5q73 0 115.5 -42.5t42.5 -122.5v-305q0 -107 -42.5 -164t-99.5 -57q-31 0 -56 16l14 46q16 -8 30 -8q33 0 56.5 38t24.5 118v301q0 64 -29 95.5t-80 31.5q-35 0 -64 -14.5t-37.5 -24.5 t-13.5 -18v-322h-72v563h-52v39l52 4v142l72 4v-145h176z" />
<glyph unicode="&#x453;" horiz-adv-x="358" d="M234 721l63 -15l-102 -135l-38 5zM333 453h-187v-453h-72v500h259v-47z" />
<glyph unicode="&#x454;" horiz-adv-x="430" d="M387 94l25 -28q-2 -3 -5.5 -8t-17.5 -18.5t-31 -23.5t-46.5 -18t-62.5 -8q-100 0 -156 65.5t-56 192.5q0 125 54.5 193.5t157.5 68.5q36 0 71.5 -11t53.5 -21l17 -11l-9 -41q-56 40 -122 40q-75 0 -109.5 -45t-37.5 -152l215 2v-49h-215q9 -188 148 -188q38 0 69.5 15 t43.5 30z" />
<glyph unicode="&#x455;" horiz-adv-x="408" d="M36 64l25 35q5 -7 14 -18t41.5 -29t70.5 -18q56 0 84.5 28t28.5 68q0 37 -25 59t-60.5 34t-71.5 26t-61 44t-25 78q0 64 46.5 101.5t119.5 37.5q32 0 65 -10t50 -20l17 -9l-12 -43q-53 40 -114 40q-46 0 -74.5 -23t-28.5 -58q0 -37 26 -60t62.5 -35.5t73 -26.5 t62.5 -44.5t26 -78.5q0 -65 -45 -108.5t-132 -43.5q-34 0 -63 7.5t-46.5 18.5t-30.5 22t-18 18z" />
<glyph unicode="&#x456;" horiz-adv-x="222" d="M82 676q11 11 29 11q19 0 30 -10q12 -13 12 -33q0 -18 -12 -32q-14 -11 -30 -11q-18 0 -29 11q-13 13 -13 32t13 32zM147 500v-500h-73v500h73z" />
<glyph unicode="&#x457;" horiz-adv-x="222" d="M7 674q13 10 27 10q13 0 26 -10q11 -13 11 -30q0 -16 -11 -29q-13 -10 -26 -10q-14 0 -27 10q-11 11 -11 29q0 19 11 30zM161 674q13 10 26 10t26 -10q12 -12 12 -30q0 -17 -12 -29q-13 -10 -26 -10t-26 10q-11 11 -11 29q0 19 11 30zM147 500v-500h-73v500h73z" />
<glyph unicode="&#x458;" horiz-adv-x="240" d="M100 676q11 11 29 11q19 0 30 -10q12 -13 12 -33q0 -18 -12 -32q-14 -11 -30 -11q-18 0 -29 11q-13 13 -13 32t13 32zM92 -41v541h73v-541q0 -219 -141 -219q-24 0 -42 5.5t-24 10.5l-7 6l14 41q19 -16 50 -16q39 0 58 40t19 132z" />
<glyph unicode="&#x459;" horiz-adv-x="711" d="M480 272h-76v-232h78q59 0 90 28t31 93q0 111 -123 111zM404 500v-189h78q197 0 197 -150q0 -161 -195 -161h-153v453h-141q-3 -223 -45.5 -342.5t-123.5 -119.5q-9 0 -14 1l3 49h5q124 0 124 459h265z" />
<glyph unicode="&#x45a;" horiz-adv-x="749" d="M518 272h-75v-232h77q59 0 90 28t31 93q0 111 -123 111zM443 500v-189h77q197 0 197 -150q0 -161 -195 -161h-152v235h-223v-235h-72v500h72v-220h223v220h73z" />
<glyph unicode="&#x45b;" horiz-adv-x="511" d="M323 607v-44h-176v-192h2l3 3q2 4 7 9t12.5 11.5t19 13.5t25 12t32 8.5t38.5 3.5q73 0 115.5 -42.5t42.5 -122.5v-267h-73v252q0 64 -29 95.5t-81 31.5q-36 0 -64.5 -14.5t-38.5 -28.5l-11 -14v-322h-72v563h-52v39l52 4v142l72 4v-145h176z" />
<glyph unicode="&#x45c;" horiz-adv-x="456" d="M287 721l63 -15l-102 -135l-38 5zM75 0v500h72v-229l62 34l144 195h51l-148 -205l178 -295h-84l-148 251l-55 -26v-225h-72z" />
<glyph unicode="&#x45d;" horiz-adv-x="531" d="M150 708l62 16l83 -143l-40 -8zM391 500h65v-500h-73v410l-252 -410h-56v500h72v-399z" />
<glyph unicode="&#x45e;" horiz-adv-x="449" d="M236 615q36 0 56.5 15.5t23.5 30.5l2 15v5l60 -6q0 -4 -1.5 -10.5t-10.5 -24t-22.5 -30.5t-42 -23.5t-65.5 -10.5t-65 10t-41.5 25t-22 29.5t-10.5 24.5l-2 10l60 6v-5q0 -2 0.5 -6.5t5 -15t12 -18.5t24.5 -14.5t39 -6.5zM24 -201q19 -9 41 -9q46 0 77 49.5t69 154.5 l-196 506h86l148 -418l134 418h53l-173 -508q-21 -59 -37.5 -98t-39.5 -77.5t-50.5 -57.5t-59.5 -19q-18 0 -33 3t-21 7l-6 3z" />
<glyph unicode="&#x45f;" horiz-adv-x="527" d="M453 500v-500h-158l-6 -150h-48l-7 150h-159v500h72v-453h233v453h73z" />
<glyph unicode="&#x462;" horiz-adv-x="587" d="M309 345h-85v-301h87q80 0 116 37.5t36 117.5q0 77 -37.5 111.5t-116.5 34.5zM421 574v-50h-197v-136h85q231 0 231 -187q0 -201 -226 -201h-166v524h-141v50h141v76h76v-76h197z" />
<glyph unicode="&#x463;" horiz-adv-x="523" d="M291 272h-75v-232h77q59 0 90 28t31 93q0 111 -123 111zM216 602v-102h152v-41h-152v-148h78q90 0 143.5 -35.5t53.5 -114.5q0 -161 -195 -161h-153v453h-123l-3 47h126v98z" />
<glyph unicode="&#x490;" horiz-adv-x="388" d="M337 750h43l4 -149h-214v-601h-76v650h232z" />
<glyph unicode="&#x491;" horiz-adv-x="330" d="M284 632h43l3 -179h-183v-453h-72v500h199z" />
<glyph unicode="&#x1e9e;" horiz-adv-x="634" d="M347 307l-37 34l121 260h-107q-157 0 -157 -177v-424h-76v438q0 100 57 156t167 56h185v-32l-124 -251q24 6 41 6q79 0 124.5 -49t45.5 -132q0 -93 -58.5 -147.5t-148.5 -54.5q-46 0 -80 9.5t-46 19.5l-11 10l17 44q3 -4 10 -9.5t35 -14.5t63 -9q67 0 104.5 39.5 t37.5 112.5q0 139 -107 139q-16 0 -30 -6t-20 -12z" />
<glyph unicode="&#x2002;" horiz-adv-x="425" />
<glyph unicode="&#x2003;" horiz-adv-x="850" />
<glyph unicode="&#x2004;" horiz-adv-x="283" />
<glyph unicode="&#x2005;" horiz-adv-x="212" />
<glyph unicode="&#x2009;" horiz-adv-x="170" />
<glyph unicode="&#x200a;" horiz-adv-x="34" />
<glyph unicode="&#x2011;" horiz-adv-x="297" d="M263 301v-47h-229v47h229z" />
<glyph unicode="&#x2013;" horiz-adv-x="470" d="M436 301v-47h-402v47h402z" />
<glyph unicode="&#x2014;" horiz-adv-x="623" d="M590 301v-47h-556v47h556z" />
<glyph unicode="&#x2015;" horiz-adv-x="623" d="M590 301v-47h-556v47h556z" />
<glyph unicode="&#x2018;" horiz-adv-x="141" d="M94 507q-13 -11 -28 -11q-16 0 -27 11l-4 4q-13 17 -13 50q0 48 25.5 106.5t63.5 89.5l21 -22q-31 -28 -50 -72t-19 -82v-5h4q15 0 27 -9q11 -13 11 -30t-11 -30z" />
<glyph unicode="&#x2019;" horiz-adv-x="141" d="M40 743q10 10 27 10t28 -10q1 -1 7 -10q9 -18 9 -45q0 -48 -25 -106t-63 -90l-22 23q31 28 50 72t19 81v5h-4q-16 0 -26 10q-12 12 -12 30t12 30z" />
<glyph unicode="&#x201a;" horiz-adv-x="141" d="M40 88q10 10 27 10t28 -10q1 -1 7 -10q9 -18 9 -45q0 -48 -25 -106t-63 -90l-22 23q31 29 50 72.5t19 80.5v5h-4q-16 0 -26 10q-12 12 -12 30t12 30z" />
<glyph unicode="&#x201c;" horiz-adv-x="290" d="M242 507q-13 -11 -28 -11q-16 0 -27 11l-4 4q-13 17 -13 50q0 48 25.5 106.5t63.5 89.5l21 -22q-31 -28 -50 -72t-19 -82v-5h4q15 0 27 -9q11 -13 11 -30t-11 -30zM94 507q-13 -11 -28 -11q-16 0 -27 11l-4 4q-13 17 -13 50q0 48 25.5 106.5t63.5 89.5l21 -22 q-31 -28 -50 -72t-19 -82v-5h4q15 0 27 -9q11 -13 11 -30t-11 -30z" />
<glyph unicode="&#x201d;" horiz-adv-x="290" d="M188 743q10 10 27 10t28 -10q1 -1 7 -10q9 -18 9 -45q0 -48 -25 -106t-63 -90l-22 23q31 28 50 72t19 81v5h-4q-16 0 -26 10q-12 12 -12 30t12 30zM40 743q10 10 27 10t28 -10q1 -1 7 -10q9 -18 9 -45q0 -48 -25 -106t-63 -90l-22 23q31 28 50 72t19 81v5h-4 q-16 0 -26 10q-12 12 -12 30t12 30z" />
<glyph unicode="&#x201e;" horiz-adv-x="290" d="M188 88q10 10 27 10t28 -10q1 -1 7 -10q9 -18 9 -45q0 -48 -25 -106t-63 -90l-22 23q31 29 50 72.5t19 80.5v5h-4q-16 0 -26 10q-12 12 -12 30t12 30zM40 88q10 10 27 10t28 -10q1 -1 7 -10q9 -18 9 -45q0 -48 -25 -106t-63 -90l-22 23q31 29 50 72.5t19 80.5v5h-4 q-16 0 -26 10q-12 12 -12 30t12 30z" />
<glyph unicode="&#x2020;" horiz-adv-x="447" d="M392 425v-46h-142l6 -629h-65l6 629h-144v46h149l-8 225h59l-7 -225h146z" />
<glyph unicode="&#x2021;" horiz-adv-x="447" d="M392 -25v-47h-146l7 -178h-60l5 178h-145v47h147l-7 225l7 225h-147v47h145l-5 178h60l-7 -178h146v-47h-147l8 -225l-8 -225h147z" />
<glyph unicode="&#x2022;" horiz-adv-x="300" d="M91 380q23 20 54 20t54 -20q23 -23 23 -59q0 -35 -23 -58q-21 -20 -54 -20t-54 20q-23 22 -23 58q0 37 23 59z" />
<glyph unicode="&#x2026;" horiz-adv-x="663" d="M509 71q13 12 31 12t32 -12q13 -13 13 -34t-13 -34q-14 -12 -32 -12t-31 12q-14 13 -14 34t14 34zM299 71q13 12 31 12t32 -12q13 -13 13 -34t-13 -34q-14 -12 -32 -12t-31 12q-14 13 -14 34t14 34zM89 71q13 12 31 12t32 -12q13 -13 13 -34t-13 -34q-14 -12 -32 -12 t-31 12q-14 13 -14 34t14 34z" />
<glyph unicode="&#x2030;" horiz-adv-x="1170" d="M1063 175q0 71 -25.5 108.5t-71.5 37.5q-97 0 -97 -146q0 -71 25 -109t71 -38q47 0 72.5 38.5t25.5 108.5zM1123 174q0 -86 -42 -137t-115 -51q-75 0 -116 51t-41 137t42 137.5t115 51.5q72 0 114.5 -52t42.5 -137zM695 175q0 71 -25.5 108.5t-71.5 37.5q-97 0 -97 -146 q0 -71 25 -109t71 -38q47 0 72.5 38.5t25.5 108.5zM755 174q0 -86 -42 -137t-115 -51q-75 0 -116 51t-41 137t42 137.5t115 51.5q72 0 114.5 -52t42.5 -137zM302 475q0 71 -25.5 108.5t-71.5 37.5q-97 0 -97 -146q0 -71 25 -109t71 -38q47 0 72.5 38.5t25.5 108.5zM362 474 q0 -86 -42 -137t-115 -51q-75 0 -116 51t-41 137t42 137.5t115 51.5q72 0 114.5 -52t42.5 -137zM560 631l-281 -629l-43 10l281 629z" />
<glyph unicode="&#x2039;" horiz-adv-x="323" d="M260 395l-108 -146l108 -148l-23 -27l-154 176l155 171z" />
<glyph unicode="&#x203a;" horiz-adv-x="323" d="M62 394l23 27l153 -177l-154 -170l-23 26l108 145z" />
<glyph unicode="&#x2044;" horiz-adv-x="391" d="M404 561l-303 -561l-35 20l303 562z" />
<glyph unicode="&#x2070;" horiz-adv-x="376" d="M188 719q-87 0 -87 -230q0 -228 87 -228t87 228q0 230 -87 230zM188 758q79 0 117.5 -70.5t38.5 -198.5q0 -267 -156 -267q-155 0 -155 267q0 269 155 269z" />
<glyph unicode="&#x2074;" horiz-adv-x="376" d="M137 758l63 -8q-40 -182 -121 -347h150v163l16 108h52v-271h49v-36l-49 -6v-131h-68v131h-195l-5 35q59 130 108 362z" />
<glyph unicode="&#x2075;" horiz-adv-x="376" d="M311 750l-4 -64h-170l-12 -145q23 9 47 9q73 0 116.5 -42.5t43.5 -115.5q0 -81 -48 -126t-120 -45q-39 0 -69.5 11t-40.5 22l-11 11l19 36q4 -4 11.5 -10t33 -16.5t53.5 -10.5q50 0 78 35t28 96q0 54 -27 85.5t-70 31.5q-42 0 -62 -22v-1l-2 -3l-26 4l24 260h208z" />
<glyph unicode="&#x2076;" horiz-adv-x="375" d="M302 731l-11 -40q-46 26 -83 26q-93 0 -100 -198q39 39 91 39q64 0 102.5 -43t38.5 -116q0 -76 -38.5 -126.5t-107.5 -50.5q-72 0 -112.5 54t-40.5 156q0 22 4 62q8 133 49.5 198.5t108.5 65.5q21 0 46 -7t39 -13zM114 463q-5 -50 -5 -52q0 -153 85 -153q41 0 60 38.5 t19 102.5q0 56 -21 90t-61 34q-31 0 -50.5 -18t-26.5 -42z" />
<glyph unicode="&#x2077;" horiz-adv-x="377" d="M343 750v-55q-50 -93 -96.5 -223t-68.5 -242h-74q38 175 180 454h-233v66h292z" />
<glyph unicode="&#x2078;" horiz-adv-x="377" d="M114 620q0 -95 76 -110q73 15 73 109q0 103 -75 103q-74 0 -74 -102zM268 366q0 90 -77 112q-11 -1 -22.5 -5.5t-26.5 -15.5t-24.5 -34.5t-9.5 -55.5q0 -110 80 -110t80 109zM330 623q0 -92 -91 -127q40 -11 70 -42t30 -91q0 -142 -151 -142t-151 144q0 93 96 130 q-87 29 -87 130q0 63 38.5 98t103.5 35t103.5 -35.5t38.5 -99.5z" />
<glyph unicode="&#x2079;" horiz-adv-x="376" d="M184 448q31 0 51.5 19t27.5 43q3 36 3 59q0 78 -19 115t-61 37q-41 0 -61.5 -40.5t-20.5 -103.5q0 -59 20 -94t60 -35zM61 245l15 36q27 -19 80 -19q46 0 77 50t35 148q-34 -47 -92 -47q-64 0 -102 43.5t-38 118.5q0 76 40.5 129.5t109.5 53.5q72 0 110 -54t38 -157 q0 -10 -0.5 -32t-0.5 -25q-6 -132 -54.5 -200t-120.5 -68q-30 0 -54 6t-34 12z" />
<glyph unicode="&#x2080;" horiz-adv-x="376" d="M188 240q-87 0 -87 -230q0 -228 87 -228t87 228q0 230 -87 230zM188 279q79 0 117.5 -70.5t38.5 -198.5q0 -267 -156 -267q-155 0 -155 267q0 269 155 269z" />
<glyph unicode="&#x2081;" horiz-adv-x="376" d="M188 270h54v-520h-66v460l-89 -58l-17 42z" />
<glyph unicode="&#x2082;" horiz-adv-x="377" d="M339 -187v-63h-291v55q13 5 45.5 36t69.5 75t65.5 102t28.5 106q0 57 -21 83.5t-72 26.5q-19 0 -43 -10t-39 -20l-15 -11l-9 39q61 46 124 46q74 0 110.5 -41t36.5 -108q0 -142 -210 -316h220z" />
<glyph unicode="&#x2083;" horiz-adv-x="376" d="M315 270v-43l-132 -181q2 0 7.5 0.5t8.5 0.5q58 0 95 -40t37 -107q0 -75 -47 -117t-118 -42q-41 0 -72.5 11.5t-42.5 23.5l-11 12l19 36q2 -3 11 -11.5t33.5 -18.5t53.5 -10q50 0 78.5 31t28.5 87q0 52 -20 79.5t-58 27.5q-25 0 -42 -17l-1 -2l-24 27l135 190h-190l4 63 h247z" />
<glyph unicode="&#x2084;" horiz-adv-x="376" d="M137 278l63 -8q-40 -182 -121 -347h150v163l16 108h52v-271h49v-36l-49 -6v-131h-68v131h-195l-5 35q59 130 108 362z" />
<glyph unicode="&#x2085;" horiz-adv-x="376" d="M311 270l-4 -64h-170l-12 -145q23 9 47 9q73 0 116.5 -42.5t43.5 -115.5q0 -81 -48 -126t-120 -45q-39 0 -69.5 11t-40.5 22l-11 11l19 36q4 -4 11.5 -10t33 -16.5t53.5 -10.5q50 0 78 35t28 96q0 54 -27 85.5t-70 31.5q-42 0 -62 -22v-1l-2 -3l-26 4l24 260h208z" />
<glyph unicode="&#x2086;" horiz-adv-x="375" d="M191 46q-32 0 -51 -19t-27 -43q-4 -20 -4 -50q0 -156 85 -156q79 0 79 143q0 57 -21 91t-61 34zM297 253l-8 -36q-44 26 -83 26q-92 0 -99 -202q40 40 92 40q64 0 102.5 -44t38.5 -117q0 -77 -38.5 -127.5t-107.5 -50.5q-72 0 -112.5 55.5t-40.5 157.5q0 34 3 61 q9 134 50.5 201t107.5 67q22 0 45.5 -8t36.5 -16z" />
<glyph unicode="&#x2087;" horiz-adv-x="377" d="M343 270v-55q-50 -93 -96.5 -223t-68.5 -242h-74q38 175 180 454h-233v66h292z" />
<glyph unicode="&#x2088;" horiz-adv-x="377" d="M114 140q0 -55 23.5 -80t51.5 -30h3l1 1q70 15 70 109q0 102 -75 102q-74 0 -74 -102zM268 -114q0 91 -77 113q-11 -2 -22 -6t-26.5 -15t-25 -34.5t-9.5 -56.5q0 -110 80 -110t80 109zM330 143q0 -92 -91 -127q100 -27 100 -133q0 -141 -151 -141t-151 143q0 93 95 130 q-86 29 -86 130q0 63 38.5 98t103.5 35t103.5 -35.5t38.5 -99.5z" />
<glyph unicode="&#x2089;" horiz-adv-x="376" d="M184 -32q31 0 51.5 19t27.5 43q3 36 3 59q0 78 -19 115t-61 37q-41 0 -61.5 -40.5t-20.5 -103.5q0 -59 20 -94t60 -35zM61 -235l15 36q27 -19 80 -19q46 0 77 50.5t35 148.5q-33 -48 -92 -48q-64 0 -102 43.5t-38 118.5q0 76 40.5 129.5t109.5 53.5q72 0 110 -54t38 -157 q0 -10 -0.5 -32t-0.5 -25q-6 -132 -54.5 -200t-120.5 -68q-30 0 -54 6t-34 12z" />
<glyph unicode="&#x20ac;" horiz-adv-x="570" d="M429 269v-44h-244q12 -101 56 -145.5t127 -44.5q48 0 88.5 20.5t57.5 40.5l17 20l16 -33q-2 -4 -7 -10t-22 -22t-37.5 -28.5t-54.5 -22.5t-72 -10q-214 0 -247 236l-61 3v40h57q-2 32 -2 51q0 29 1 43l-56 3v39h59q31 253 249 253q45 0 87.5 -13t62.5 -25l21 -13l-9 -45 q-8 5 -21.5 13.5t-54 22t-78.5 13.5q-85 0 -127 -49t-52 -157h246v-44h-248q-1 -13 -1 -41q0 -35 1 -51h248z" />
<glyph unicode="&#x20b4;" horiz-adv-x="475" d="M61 374v35h236q32 47 32 98q0 104 -103 104q-26 0 -53 -7t-41 -14l-14 -7l-12 44q61 32 135 32q76 0 116.5 -40t40.5 -101q0 -58 -43 -110l66 -2v-32h-99q-10 -9 -48 -41t-56 -51h203v-36h-233q-31 -46 -31 -100q0 -51 28.5 -79.5t84.5 -28.5q38 0 68 11t41 23l11 11 l16 -38q-1 -2 -4 -6t-15 -13.5t-27 -16.5t-42 -13t-59 -6q-78 0 -124 38t-46 108q0 57 43 110l-71 3v33h105q11 10 47.5 41.5t54.5 50.5h-207z" />
<glyph unicode="&#x2116;" horiz-adv-x="1045" d="M938 173v-47h-229v47h229zM825 645q-104 0 -104 -150q0 -152 104 -152t104 152q0 150 -104 150zM997 495q0 -87 -44.5 -136t-127.5 -49q-85 0 -128.5 48.5t-43.5 136.5t43.5 136.5t128.5 48.5t128.5 -48.5t43.5 -136.5zM557 650v-650h-66l-346 554h-1l5 -31v-523h-55v650 h79l332 -536l-3 24v512h55z" />
<glyph unicode="&#x2122;" horiz-adv-x="751" d="M167 750v-1h45v1h127v-36h-127v-314h-45v314h-109v36h109zM684 750l10 -350h-43l-9 271l-100 -271h-40l-99 281l-8 -281h-34l18 350h47l101 -307l113 307h44z" />
<glyph unicode="&#x2153;" horiz-adv-x="781" d="M697 270v-43l-132 -181q2 0 7.5 0.5t8.5 0.5q58 0 95 -40t37 -107q0 -75 -47 -117t-118 -42q-41 0 -72.5 11.5t-42.5 23.5l-11 12l19 36q2 -3 11 -11.5t33.5 -18.5t53.5 -10q50 0 78.5 31t28.5 87q0 52 -20 79.5t-58 27.5q-25 0 -42 -17l-1 -2l-24 27l135 190h-190l4 63 h247zM557 561l-303 -561l-35 20l303 562zM188 750h54v-520h-66v460l-89 -58l-17 42z" />
<glyph unicode="&#x2154;" horiz-adv-x="831" d="M748 270v-43l-132 -181q2 0 7.5 0.5t8.5 0.5q58 0 95 -40t37 -107q0 -75 -47 -117t-118 -42q-41 0 -72.5 11.5t-42.5 23.5l-11 12l19 36q2 -3 11 -11.5t33.5 -18.5t53.5 -10q50 0 78.5 31t28.5 87q0 52 -20 79.5t-58 27.5q-25 0 -42 -17l-1 -2l-24 27l135 190h-190l4 63 h247zM609 561l-303 -561l-35 20l303 562zM333 293v-63h-292v55q13 5 45.5 36t69.5 75t65.5 102t28.5 106q0 57 -21 84t-71 27q-19 0 -43.5 -10.5t-39.5 -20.5l-15 -11l-8 39q60 46 123 46q74 0 110.5 -40.5t36.5 -108.5q0 -141 -211 -316h222z" />
<glyph unicode="&#x2155;" horiz-adv-x="772" d="M693 270l-4 -64h-170l-12 -145q23 9 47 9q73 0 116.5 -42.5t43.5 -115.5q0 -81 -48 -126t-120 -45q-39 0 -69.5 11t-40.5 22l-11 11l19 36q4 -4 11.5 -10t33 -16.5t53.5 -10.5q50 0 78 35t28 96q0 54 -27 85.5t-70 31.5q-42 0 -62 -22v-1l-2 -3l-26 4l24 260h208z M557 561l-303 -561l-35 20l303 562zM188 750h54v-520h-66v460l-89 -58l-17 42z" />
<glyph unicode="&#x2156;" horiz-adv-x="822" d="M744 270l-4 -64h-170l-12 -145q23 9 47 9q73 0 116.5 -42.5t43.5 -115.5q0 -81 -48 -126t-120 -45q-39 0 -69.5 11t-41.5 22l-10 11l19 36q4 -4 11.5 -10t33 -16.5t53.5 -10.5q50 0 78 35t28 96q0 54 -27 85.5t-70 31.5q-42 0 -62 -22v-1l-2 -3l-26 4l24 260h208z M609 561l-303 -561l-35 20l303 562zM333 293v-63h-292v55q13 5 45.5 36t69.5 75t65.5 102t28.5 106q0 57 -21 84t-71 27q-19 0 -43.5 -10.5t-39.5 -20.5l-15 -11l-8 39q60 46 123 46q74 0 110.5 -40.5t36.5 -108.5q0 -141 -211 -316h222z" />
<glyph unicode="&#x2157;" horiz-adv-x="822" d="M744 270l-4 -64h-170l-12 -145q23 9 47 9q73 0 116.5 -42.5t43.5 -115.5q0 -81 -48 -126t-120 -45q-39 0 -69.5 11t-41.5 22l-10 11l19 36q4 -4 11.5 -10t33 -16.5t53.5 -10.5q50 0 78 35t28 96q0 54 -27 85.5t-70 31.5q-42 0 -62 -22v-1l-2 -3l-26 4l24 260h208z M609 561l-303 -561l-35 20l303 562zM316 750v-43l-132 -181q2 0 7.5 0.5t8.5 0.5q58 0 95 -40t37 -107q0 -75 -47 -117t-118 -42q-41 0 -72.5 11.5t-42.5 23.5l-11 12l19 35q2 -3 11 -11t33.5 -18t53.5 -10q50 0 78.5 31t28.5 87q0 52 -20 79.5t-58 27.5q-24 0 -42 -18 l-1 -1l-24 27l135 190h-190l4 63h247z" />
<glyph unicode="&#x2158;" horiz-adv-x="822" d="M744 270l-4 -64h-170l-12 -145q23 9 47 9q73 0 116.5 -42.5t43.5 -115.5q0 -81 -48 -126t-120 -45q-39 0 -69.5 11t-41.5 22l-10 11l19 36q4 -4 11.5 -10t33 -16.5t53.5 -10.5q50 0 78 35t28 96q0 54 -27 85.5t-70 31.5q-42 0 -62 -22v-1l-2 -3l-26 4l24 260h208z M609 561l-303 -561l-35 20l303 562zM137 758l63 -8q-40 -182 -121 -347h150v163l16 108h52v-271h49v-36l-49 -6v-131h-68v131h-195l-5 35q59 130 108 362z" />
<glyph unicode="&#x215b;" horiz-adv-x="810" d="M496 140q0 -55 23.5 -80t51.5 -30h3l1 1q70 15 70 109q0 102 -75 102q-74 0 -74 -102zM650 -114q0 91 -77 113q-11 -2 -22 -6t-26.5 -15t-25 -34.5t-9.5 -56.5q0 -110 80 -110t80 109zM712 143q0 -92 -91 -127q100 -27 100 -133q0 -141 -151 -141t-151 143q0 93 95 130 q-86 29 -86 130q0 63 38.5 98t103.5 35t103.5 -35.5t38.5 -99.5zM557 561l-303 -561l-35 20l303 562zM188 750h54v-520h-66v460l-89 -58l-17 42z" />
<glyph unicode="&#x215c;" horiz-adv-x="861" d="M547 140q0 -55 23.5 -80t51.5 -30h2l2 1q70 15 70 109q0 102 -75 102q-74 0 -74 -102zM701 -114q0 91 -77 113q-11 -2 -22 -6t-26.5 -15t-25 -34.5t-9.5 -56.5q0 -110 80 -110t80 109zM763 143q0 -92 -91 -127q100 -27 100 -133q0 -141 -151 -141t-151 143q0 93 95 130 q-86 29 -86 130q0 63 38.5 98t103.5 35t103.5 -35.5t38.5 -99.5zM609 561l-303 -561l-35 20l303 562zM316 750v-43l-132 -181q2 0 7.5 0.5t8.5 0.5q58 0 95 -40t37 -107q0 -75 -47 -117t-118 -42q-41 0 -72.5 11.5t-42.5 23.5l-11 12l19 35q2 -3 11 -11t33.5 -18t53.5 -10 q50 0 78.5 31t28.5 87q0 52 -20 79.5t-58 27.5q-24 0 -42 -18l-1 -1l-24 27l135 190h-190l4 63h247z" />
<glyph unicode="&#x215d;" horiz-adv-x="852" d="M538 140q0 -55 23.5 -80t51.5 -30h3l1 1q70 15 70 109q0 102 -75 102q-74 0 -74 -102zM692 -114q0 91 -77 113q-11 -2 -22 -6t-26.5 -15t-25 -34.5t-9.5 -56.5q0 -110 80 -110t80 109zM754 143q0 -92 -91 -127q100 -27 100 -133q0 -141 -151 -141t-151 143q0 93 95 130 q-86 29 -86 130q0 63 38.5 98t103.5 35t103.5 -35.5t38.5 -99.5zM600 561l-303 -561l-35 20l303 562zM311 750l-4 -64h-170l-12 -145q23 9 47 9q73 0 116.5 -42.5t43.5 -115.5q0 -81 -48 -126t-120 -45q-39 0 -69.5 11t-40.5 22l-11 11l19 36q4 -4 11.5 -10t33 -16.5 t53.5 -10.5q50 0 78 35t28 96q0 54 -27 85.5t-70 31.5q-42 0 -62 -22v-1l-2 -3l-26 4l24 260h208z" />
<glyph unicode="&#x215e;" horiz-adv-x="785" d="M470 140q0 -55 23.5 -80t51.5 -30h3l1 1q70 15 70 109q0 102 -75 102q-74 0 -74 -102zM624 -114q0 91 -77 113q-11 -2 -22 -6t-26.5 -15t-25 -34.5t-9.5 -56.5q0 -110 80 -110t80 109zM686 143q0 -92 -91 -127q100 -27 100 -133q0 -141 -151 -141t-151 143q0 93 95 130 q-86 29 -86 130q0 63 38.5 98t103.5 35t103.5 -35.5t38.5 -99.5zM532 561l-303 -561l-35 20l303 562zM343 750v-55q-50 -93 -96.5 -223t-68.5 -242h-74q38 175 180 454h-233v66h292z" />
<glyph unicode="&#x2191;" horiz-adv-x="582" d="M493 294l-29 -28l-154 171l3 -447h-43l2 447l-154 -171l-29 28l202 253z" />
<glyph unicode="&#x2193;" horiz-adv-x="613" d="M296 547h42l-3 -448l155 173l29 -29l-202 -253l-202 253l29 29l154 -173z" />
<glyph unicode="&#x2212;" horiz-adv-x="470" d="M436 301v-47h-402v47h402z" />
<glyph unicode="&#x25fc;" horiz-adv-x="500" d="M0 500h500v-500h-500v500z" />
<glyph unicode="&#xf6d4;" horiz-adv-x="353" d="M176 615q36 0 56.5 15.5t23.5 30.5l2 15v5l60 -6q0 -4 -1.5 -10.5t-10.5 -24t-22.5 -30.5t-42 -23.5t-65.5 -10.5t-65 10t-41.5 25t-22 29.5t-10.5 24.5l-2 10l60 6v-5q0 -2 0.5 -6.5t5 -15t12 -18.5t24.5 -14.5t39 -6.5z" />
<glyph unicode="&#xfb06;" horiz-adv-x="713" d="M36 64l25 35q5 -7 14 -18t41.5 -29t70.5 -18q56 0 84.5 28t28.5 68q0 37 -25 59t-60.5 34t-71.5 26t-61 44t-25 78q0 64 46.5 101.5t119.5 37.5q17 0 33 -3q-26 45 -26 103q0 61 39 100.5t110 39.5h172v-250h128v-47h-128v-301q0 -64 12.5 -89t43.5 -25q18 0 35 3t25 5 l8 3l2 -40q-27 -19 -92 -19q-55 0 -81 33.5t-26 110.5v515l26 62h-123q-56 0 -85.5 -28t-29.5 -80q0 -64 37 -107q14 -5 27 -11t19 -10l6 -4l-12 -43q-53 40 -114 40q-46 0 -74.5 -23t-28.5 -58q0 -37 26 -60t62.5 -35.5t73 -26.5t62.5 -44.5t26 -78.5q0 -65 -45 -108.5 t-132 -43.5q-34 0 -63 7.5t-46.5 18.5t-30.5 22t-18 18z" />
<glyph horiz-adv-x="731" d="M386 426q-1 0 -2 1v-3q-17 8 -35 22q-46 20 -86 20q-77 0 -113 -51t-36 -169q0 -212 145 -212q24 0 46 6.5t35.5 15.5t23.5 18t14 16l5 6l32 -21q-2 -3 -5 -9t-16.5 -20.5t-30.5 -26t-46.5 -20.5t-63.5 -9q-104 0 -160 64t-56 191q0 128 55.5 196.5t162.5 68.5 q15 0 41 -4q-28 44 -28 104q0 59 43.5 99.5t115.5 40.5h141v-250h129v-47h-129v-301q0 -64 13 -89t44 -25q18 0 35 3t25 5l8 3l2 -40q-28 -19 -92 -19q-55 0 -81 33.5t-26 110.5v516l26 61h-93q-57 0 -91 -28.5t-34 -79.5q0 -66 38 -110q14 -5 27.5 -11.5t19.5 -10.5l6 -4z " />
<glyph horiz-adv-x="474" d="M391 500v-500h-72v500h72zM154 500v-500h-72v500h72zM15 674q13 10 27 10q13 0 26 -10q11 -13 11 -30q0 -16 -11 -29q-13 -10 -26 -10q-14 0 -27 10q-11 11 -11 29q0 19 11 30zM144 674q13 10 26 10q14 0 27 -10q11 -13 11 -30q0 -16 -11 -29q-13 -10 -27 -10 q-13 0 -26 10q-11 11 -11 29q0 19 11 30zM277 674q13 10 26 10q14 0 26 -10q12 -12 12 -30q0 -17 -12 -29q-12 -10 -26 -10q-13 0 -26 10q-11 11 -11 29q0 19 11 30zM406 674q13 10 26 10t26 -10q12 -12 12 -30q0 -17 -12 -29q-13 -10 -26 -10t-26 10q-11 11 -11 29 q0 19 11 30z" />
<glyph horiz-adv-x="336" d="M197 769l50 -7l-52 -212l-31 3z" />
<glyph horiz-adv-x="207" d="M58 -54q10 9 25 9t25 -9q19 -18 19 -57q0 -45 -23.5 -96t-60.5 -81l-18 19q29 27 44.5 63.5t15.5 70.5q0 12 -1 18q-16 0 -26 9q-11 11 -11 27t11 27z" />
<glyph d="M255 39q76 0 113 67v303q-35 53 -105 53q-149 0 -149 -224q0 -199 141 -199zM441 500v-500h-58l-12 57q-7 -13 -17.5 -25t-42.5 -27t-73 -15q-90 0 -145 65t-55 181q0 126 54.5 200t155.5 74q37 0 66 -11.5t40 -21.5t17 -19l12 42h58z" />
<glyph d="M333 644q0 34 -16.5 50.5t-43.5 16.5t-44 -17t-17 -50q0 -34 17 -50.5t44 -16.5t43.5 16.5t16.5 50.5zM362 644q0 -45 -24.5 -69t-64.5 -24t-64.5 24t-24.5 69q0 44 25 69t64 25q38 0 63.5 -25t25.5 -69zM255 39q76 0 113 67v303q-35 53 -105 53q-149 0 -149 -224 q0 -199 141 -199zM441 500v-500h-58l-12 57q-7 -13 -17.5 -25t-42.5 -27t-73 -15q-90 0 -145 65t-55 181q0 126 54.5 200t155.5 74q37 0 66 -11.5t40 -21.5t17 -19l12 42h58z" />
<glyph d="M160 708l62 16l83 -143l-40 -8zM255 39q76 0 113 67v303q-35 53 -105 53q-149 0 -149 -224q0 -199 141 -199zM441 500v-500h-58l-12 57q-7 -13 -17.5 -25t-42.5 -27t-73 -15q-90 0 -145 65t-55 181q0 126 54.5 200t155.5 74q37 0 66 -11.5t40 -21.5t17 -19l12 42h58z" />
<glyph d="M169 674q13 10 27 10q13 0 26 -10q11 -13 11 -30q0 -16 -11 -29q-13 -10 -26 -10q-14 0 -27 10q-11 11 -11 29q0 19 11 30zM323 674q13 10 26 10t26 -10q12 -12 12 -30q0 -17 -12 -29q-13 -10 -26 -10t-26 10q-11 11 -11 29q0 19 11 30zM255 39q76 0 113 67v303 q-35 53 -105 53q-149 0 -149 -224q0 -199 141 -199zM441 500v-500h-58l-12 57q-7 -13 -17.5 -25t-42.5 -27t-73 -15q-90 0 -145 65t-55 181q0 126 54.5 200t155.5 74q37 0 66 -11.5t40 -21.5t17 -19l12 42h58z" />
<glyph d="M255 39q76 0 113 67v303q-35 53 -105 53q-149 0 -149 -224q0 -199 141 -199zM441 500v-500h-15q-15 -10 -30 -23t-33 -45t-18 -67q0 -83 105 -83v-32q-155 0 -155 111q0 77 88 139l-12 57q-7 -13 -17.5 -25t-42.5 -27t-73 -15q-90 0 -145 65t-55 181q0 126 54.5 200 t155.5 74q37 0 66 -11.5t40 -21.5t17 -19l12 42h58z" />
<glyph d="M273 620q36 0 59.5 15t29.5 29l5 15v2l45 -6q0 -4 -2 -10.5t-10.5 -24t-22.5 -30.5t-41 -23.5t-63 -10.5t-63 10t-40.5 25t-21.5 29.5t-10 24.5l-2 10l45 6v-2q0 -2 1.5 -6t8 -14.5t15.5 -18t27 -14t40 -6.5zM255 39q76 0 113 67v303q-35 53 -105 53q-149 0 -149 -224 q0 -199 141 -199zM441 500v-500h-58l-12 57q-7 -13 -17.5 -25t-42.5 -27t-73 -15q-90 0 -145 65t-55 181q0 126 54.5 200t155.5 74q37 0 66 -11.5t40 -21.5t17 -19l12 42h58z" />
<glyph d="M317 721l63 -15l-102 -135l-38 5zM255 39q76 0 113 67v303q-35 53 -105 53q-149 0 -149 -224q0 -199 141 -199zM441 500v-500h-58l-12 57q-7 -13 -17.5 -25t-42.5 -27t-73 -15q-90 0 -145 65t-55 181q0 126 54.5 200t155.5 74q37 0 66 -11.5t40 -21.5t17 -19l12 42h58z " />
<glyph d="M367 672v-36h-186v36h186zM255 39q76 0 113 67v303q-35 53 -105 53q-149 0 -149 -224q0 -199 141 -199zM441 500v-500h-58l-12 57q-7 -13 -17.5 -25t-42.5 -27t-73 -15q-90 0 -145 65t-55 181q0 126 54.5 200t155.5 74q37 0 66 -11.5t40 -21.5t17 -19l12 42h58z" />
<glyph d="M292 743l108 -114l-18 -32l-110 97l-110 -97l-19 32l110 114h39zM255 39q76 0 113 67v303q-35 53 -105 53q-149 0 -149 -224q0 -199 141 -199zM441 500v-500h-58l-12 57q-7 -13 -17.5 -25t-42.5 -27t-73 -15q-90 0 -145 65t-55 181q0 126 54.5 200t155.5 74 q37 0 66 -11.5t40 -21.5t17 -19l12 42h58z" />
<glyph d="M414 671l23 -25q-3 -6 -8.5 -14.5t-27 -22.5t-49.5 -14q-30 0 -79 23t-75 23q-17 0 -32 -9.5t-22 -19.5l-6 -10l-23 25q1 3 3.5 7t11.5 15t19 19t27 15t35 7q33 0 80.5 -23t71.5 -23q16 0 28.5 7t17.5 13zM255 39q76 0 113 67v303q-35 53 -105 53q-149 0 -149 -224 q0 -199 141 -199zM441 500v-500h-58l-12 57q-7 -13 -17.5 -25t-42.5 -27t-73 -15q-90 0 -145 65t-55 181q0 126 54.5 200t155.5 74q37 0 66 -11.5t40 -21.5t17 -19l12 42h58z" />
<glyph d="M265 38q68 0 104 43v313q-35 69 -113 69q-68 0 -105 -52t-37 -155q0 -112 36.5 -165t114.5 -53zM442 500v-522q0 -125 -63.5 -181.5t-163.5 -56.5q-29 0 -56 7t-44.5 17t-30.5 20.5t-19 17.5l-6 7l24 38q5 -7 15 -17t43.5 -27t71.5 -17q77 0 116.5 46t39.5 156v48h-1 q-4 -5 -12.5 -12.5t-40.5 -20.5t-72 -13q-100 0 -152.5 69.5t-52.5 194.5q0 117 55 186.5t145 69.5q41 0 72.5 -14.5t43 -26.5t18.5 -25l13 56h57z" />
<glyph d="M265 584q-11 -9 -25 -9t-25 9q-19 18 -19 57q0 45 23.5 96t60.5 81l18 -19q-29 -27 -44.5 -63.5t-15.5 -70.5q0 -12 1 -18q15 0 26 -9q11 -11 11 -27t-11 -27zM265 38q68 0 104 43v313q-35 69 -113 69q-68 0 -105 -52t-37 -155q0 -112 36.5 -165t114.5 -53zM442 500v-522 q0 -125 -63.5 -181.5t-163.5 -56.5q-29 0 -56 7t-44.5 17t-30.5 20.5t-19 17.5l-6 7l24 38q5 -7 15 -17t43.5 -27t71.5 -17q77 0 116.5 46t39.5 156v48h-1q-4 -5 -12.5 -12.5t-40.5 -20.5t-72 -13q-100 0 -152.5 69.5t-52.5 194.5q0 117 55 186.5t145 69.5q41 0 72.5 -14.5 t43 -26.5t18.5 -25l13 56h57z" />
<glyph d="M279 620q36 0 59.5 15t29.5 29l5 15v2l45 -6q0 -4 -2 -10.5t-10.5 -24t-22.5 -30.5t-41 -23.5t-63 -10.5t-63 10t-40.5 25t-21.5 29.5t-10 24.5l-2 10l45 6v-2q0 -2 1.5 -6t8 -14.5t15.5 -18t27 -14t40 -6.5zM265 38q68 0 104 43v313q-35 69 -113 69q-68 0 -105 -52 t-37 -155q0 -112 36.5 -165t114.5 -53zM442 500v-522q0 -125 -63.5 -181.5t-163.5 -56.5q-29 0 -56 7t-44.5 17t-30.5 20.5t-19 17.5l-6 7l24 38q5 -7 15 -17t43.5 -27t71.5 -17q77 0 116.5 46t39.5 156v48h-1q-4 -5 -12.5 -12.5t-40.5 -20.5t-72 -13q-100 0 -152.5 69.5 t-52.5 194.5q0 117 55 186.5t145 69.5q41 0 72.5 -14.5t43 -26.5t18.5 -25l13 56h57z" />
<glyph horiz-adv-x="509" d="M362 -12v62q-37 -60 -136 -60q-73 0 -116.5 41t-43.5 120v349h73v-334q0 -124 110 -124q35 0 63 13.5t37 23t13 16.5v405h73v-522q0 -125 -63 -181.5t-164 -56.5q-31 0 -59 7t-45.5 17t-30 20.5t-17.5 17.5l-6 7l23 37q5 -7 15 -17t44 -26.5t72 -16.5q79 0 118.5 45.5 t39.5 156.5z" />
<glyph horiz-adv-x="509" d="M302 721l63 -15l-102 -135l-38 5zM362 -12v62q-37 -60 -136 -60q-73 0 -116.5 41t-43.5 120v349h73v-334q0 -124 110 -124q35 0 63 13.5t37 23t13 16.5v405h73v-522q0 -125 -63 -181.5t-164 -56.5q-31 0 -59 7t-45.5 17t-30 20.5t-17.5 17.5l-6 7l23 37q5 -7 15 -17 t44 -26.5t72 -16.5q79 0 118.5 45.5t39.5 156.5z" />
<glyph horiz-adv-x="509" d="M153 674q13 10 27 10q13 0 26 -10q11 -13 11 -30q0 -16 -11 -29q-13 -10 -26 -10q-14 0 -27 10q-11 11 -11 29q0 19 11 30zM307 674q13 10 26 10t26 -10q12 -12 12 -30q0 -17 -12 -29q-13 -10 -26 -10t-26 10q-11 11 -11 29q0 19 11 30zM362 -12v62q-37 -60 -136 -60 q-73 0 -116.5 41t-43.5 120v349h73v-334q0 -124 110 -124q35 0 63 13.5t37 23t13 16.5v405h73v-522q0 -125 -63 -181.5t-164 -56.5q-31 0 -59 7t-45.5 17t-30 20.5t-17.5 17.5l-6 7l23 37q5 -7 15 -17t44 -26.5t72 -16.5q79 0 118.5 45.5t39.5 156.5z" />
<glyph d="M255 39q76 0 113 67v303q-35 53 -105 53q-149 0 -149 -224q0 -199 141 -199zM441 500v-500h-58l-12 57q-7 -13 -17.5 -25t-42.5 -27t-73 -15q-90 0 -145 65t-55 181q0 126 54.5 200t155.5 74q37 0 66 -11.5t40 -21.5t17 -19l12 42h58z" />
<glyph horiz-adv-x="501" d="M250 466q-70 0 -103 -53.5t-33 -162.5t33 -162.5t103 -53.5q136 0 136 216t-136 216zM463 250q0 -123 -55.5 -191.5t-157.5 -68.5q-104 0 -158.5 68t-54.5 192q0 189 119 242q-85 38 -85 133q0 62 43.5 98t108.5 36q29 0 69.5 -9.5t61.5 -9.5q18 0 32 5.5t20 10.5l5 6 l31 -10q-1 -3 -2.5 -8.5t-8.5 -18.5t-16 -23t-26 -18.5t-37 -8.5q-27 0 -67.5 10t-65.5 10q-39 0 -69 -18.5t-30 -61.5q0 -51 35.5 -77t86.5 -28h8q104 0 158.5 -68t54.5 -192z" />
<glyph d="M265 38q68 0 104 43v313q-35 69 -113 69q-68 0 -105 -52t-37 -155q0 -112 36.5 -165t114.5 -53zM442 500v-522q0 -125 -63.5 -181.5t-163.5 -56.5q-29 0 -56 7t-44.5 17t-30.5 20.5t-19 17.5l-6 7l24 38q5 -7 15 -17t43.5 -27t71.5 -17q77 0 116.5 46t39.5 156v48h-1 q-4 -5 -12.5 -12.5t-40.5 -20.5t-72 -13q-100 0 -152.5 69.5t-52.5 194.5q0 117 55 186.5t145 69.5q41 0 72.5 -14.5t43 -26.5t18.5 -25l13 56h57z" />
<glyph horiz-adv-x="509" d="M362 -12v62q-37 -60 -136 -60q-73 0 -116.5 41t-43.5 120v349h73v-334q0 -124 110 -124q35 0 63 13.5t37 23t13 16.5v405h73v-522q0 -125 -63 -181.5t-164 -56.5q-31 0 -59 7t-45.5 17t-30 20.5t-17.5 17.5l-6 7l23 37q5 -7 15 -17t44 -26.5t72 -16.5q79 0 118.5 45.5 t39.5 156.5z" />
<glyph horiz-adv-x="509" d="M258 620q36 0 59.5 15t28.5 29l6 15v2l45 -6q0 -4 -2 -10.5t-10.5 -24t-22.5 -30.5t-41 -23.5t-63 -10.5t-63 10t-40.5 25t-21.5 29.5t-10 24.5l-2 10l45 6v-2q0 -2 1.5 -6t8 -14.5t15.5 -18t27 -14t40 -6.5zM362 -12v62q-37 -60 -136 -60q-73 0 -116.5 41t-43.5 120v349 h73v-334q0 -124 110 -124q35 0 63 13.5t37 23t13 16.5v405h73v-522q0 -125 -63 -181.5t-164 -56.5q-31 0 -59 7t-45.5 17t-30 20.5t-17.5 17.5l-6 7l23 37q5 -7 15 -17t44 -26.5t72 -16.5q79 0 118.5 45.5t39.5 156.5z" />
<glyph horiz-adv-x="582" d="M291 466q-159 0 -159 -217q0 -215 159 -215q158 0 158 215q0 217 -158 217zM291 510q116 0 175.5 -70t59.5 -191q0 -122 -59.5 -190.5t-175.5 -68.5t-175.5 68.5t-59.5 190.5q0 121 59.5 191t175.5 70z" />
<glyph horiz-adv-x="369" d="M201 500h57v-500h-71v446q-126 -41 -129 -41l-5 45z" />
<glyph horiz-adv-x="476" d="M429 65v-65h-390v51l26 7q18 9 41.5 23.5t62.5 44.5t69.5 62t53.5 75t23 84q0 115 -116 115q-32 0 -65.5 -14.5t-50.5 -29.5l-17 -14l-9 42q8 7 21.5 17.5t56 28.5t84.5 18q86 0 131 -41.5t45 -111.5q0 -41 -19 -82t-46.5 -71.5t-65 -59.5t-66.5 -46.5t-59 -32.5h290z " />
<glyph horiz-adv-x="461" d="M158 156l-26 30l184 245h-261l4 69h327v-47l-180 -235q12 3 27 3q80 0 129.5 -49.5t49.5 -131.5q0 -93 -59 -146.5t-153 -53.5q-54 0 -97.5 18t-60.5 36l-17 17l24 39q6 -7 17.5 -17.5t48.5 -27.5t77 -17q71 0 107.5 39t36.5 113q0 66 -30.5 102t-89.5 36 q-15 0 -29.5 -5.5t-21.5 -10.5z" />
<glyph horiz-adv-x="485" d="M215 506l69 -6q-51 -174 -200 -454h231v242l17 117h57v-359h71v-39l-71 -7v-150h-74v150h-280l-5 41q44 88 97.5 219t87.5 246z" />
<glyph horiz-adv-x="452" d="M377 500l-3 -70h-231l-17 -195q35 13 72 13q94 0 151.5 -52t57.5 -141q0 -99 -66 -157t-163 -58q-32 0 -61 7t-47 17.5t-31.5 21t-19.5 17.5l-6 7l26 37q5 -7 15 -16.5t45 -26t75 -16.5q73 0 115 43.5t42 122.5q0 70 -38 111t-101 41q-31 0 -54.5 -9.5t-31.5 -18.5l-1 -3 l-30 4l30 321h272z" />
<glyph horiz-adv-x="517" d="M264 369q-80 0 -128 -73l1 -1q-5 -25 -5 -68q0 -193 136 -193q65 0 95 48.5t30 126.5q0 72 -32 116t-97 44zM405 625l-10 -44q-53 32 -112 32q-146 0 -155 -265q60 62 145 62q91 0 143.5 -55t52.5 -147q0 -94 -52 -156t-149 -62q-102 0 -157 67t-55 193q0 40 3 73 q10 169 67 252.5t151 83.5q31 0 63 -8.5t48 -16.5z" />
<glyph horiz-adv-x="421" d="M402 500v-60q-66 -123 -126.5 -288t-87.5 -302h-79q49 226 231 578h-299v72h361z" />
<glyph horiz-adv-x="502" d="M138 490q0 -40 12 -69t32 -43t36.5 -20t33.5 -8q16 1 31.5 7t35.5 19.5t32.5 42.5t12.5 69q0 130 -113 130t-113 -128zM374 171q0 41 -14 70.5t-36.5 43.5t-40 20t-35.5 8q-17 -2 -33.5 -8t-38 -20t-35 -43t-13.5 -70q0 -141 123 -141t123 140zM442 490q0 -117 -122 -157 q135 -36 135 -165q0 -91 -54 -134.5t-150 -43.5t-149.5 44t-53.5 136q0 118 132 162q-119 37 -119 161q0 78 51 122t139 44t139.5 -44.5t51.5 -124.5z" />
<glyph horiz-adv-x="517" d="M253 119q54 0 86.5 27.5t41.5 57.5q3 27 3 69q0 97 -30.5 145t-98.5 48q-65 0 -98 -52t-33 -129q0 -73 32.5 -119.5t96.5 -46.5zM95 -111l19 43q4 -5 13 -12.5t38.5 -20t62.5 -12.5q70 0 113 64.5t47 194.5q-52 -68 -144 -68q-90 0 -143 56t-53 148q0 94 55 161t152 67 q101 0 153.5 -67t52.5 -193q0 -48 -2 -70q-7 -165 -69.5 -252t-158.5 -87q-43 0 -77 12t-46 24z" />
<glyph horiz-adv-x="1851" d="M1228 359q23 0 35.5 6t24.5 6t12 -5q0 -8 -22 -14q-15 -26 -33 -102q24 35 57 59t58 24v-4q0 -18 -11.5 -56t-36 -89t-75.5 -91.5t-118 -46.5q3 29 29.5 57.5t59.5 48.5l2 -4q-38 -30 -48 -81q35 11 63 37t44.5 59t26 63.5t13.5 61.5q-43 -26 -72 -81q-1 -4 -12.5 -6 t-22.5 -2h-11q12 102 41 146q-42 0 -69 5q-34 -95 -48 -171q-1 -4 -17.5 -7t-27.5 -3l-4 1q0 32 55 185q-9 1 -34.5 5.5t-38.5 4.5q-40 0 -55 -33h-5q-26 0 -28 16q15 36 67 36q15 0 99 -15q11 1 24.5 7.5t26.5 8.5l-9 -20q32 -6 60 -6zM1560 324q0 -24 -31 -72.5t-61 -48.5 q-7 0 -17.5 4.5t-15.5 4.5q48 31 79 110q-29 -11 -60.5 -42.5t-44.5 -71.5q-5 -16 -12 -56.5t-7 -58.5l-3 -5q-2 0 -12.5 -1t-16.5 -1q-16 0 -16 5q4 16 14.5 71t22.5 102t26 85q31 11 41 11q4 0 10 -2q-19 -32 -38 -94q21 28 54 53.5t64 25.5q24 0 24 -19zM1659 213 q0 -8 -27 -25.5t-47 -17.5q-30 0 -30 40q0 51 35 94t84 43q21 0 21 -19q0 -13 -9.5 -27.5t-22.5 -18.5q6 -1 18 -1q63 0 81 47q4 -2 14 -2h13q11 0 15 -4q-23 -54 -145 -54q-38 0 -58 4q-8 -13 -8 -43q0 -38 10 -38q11 0 31 13t21 13q4 0 4 -4zM1645 330q-6 0 -18 -13.5 t-18 -28.5l15 -2q26 19 26 38q0 6 -5 6zM967 260q6 10 42 10q7 0 7 -1q0 -2 -4.5 -7t-10 -10t-11.5 -10l-5 -5q-8 -8 -42 -8q-6 0 -6 1t5.5 5.5t13.5 11.5t11 13zM598 213q13 8 28.5 50.5t15.5 70.5q0 41 -34.5 76t-99.5 57q3 1 18 10t24 10q7 0 26 -8.5t42.5 -24.5 t41.5 -45.5t18 -65.5q0 -46 -34.5 -97.5t-72.5 -51.5q-21 0 -21 26q0 51 41 111q5 6 13 6q4 0 13 -2.5t14 -2.5q-35 -46 -35 -107q0 -4 2 -12zM990 451q7 0 7 -1t-4.5 -2t-14.5 -5.5t-20 -12.5l-3 -3q-18 -18 -51 -18q-9 0 -9 1q39 41 95 41zM100 195q0 91 24.5 125.5 t95.5 34.5q34 0 72 -6q39 36 48 41q3 2 21.5 6t20.5 4l-4 -11q-56 -144 -58 -224q0 -4 -15 -8t-27 -4q-2 0 -4 1h-3q2 70 45 189q-33 -36 -84.5 -79.5t-86.5 -65.5q-2 -2 -18.5 -5t-23.5 -3q-2 0 -3 1v4zM819 385q8 0 17.5 -10t11.5 -18q-24 0 -54.5 -6.5t-39.5 -13.5 q-12 -9 -19 -33t-11 -55.5t-7 -40.5q-1 -4 -13 -5.5t-24 -1.5t-12 -1l3 12q0 1 0.5 2.5t0.5 2.5q28 98 61 122q56 37 86 46zM868 353q1 9 48 9q-18 -145 -86 -229q-28 -33 -73.5 -55.5t-79.5 -22.5q5 54 89 105l3 -3q-40 -32 -50 -81q35 17 61.5 43.5t40.5 51.5t24.5 62.5 t14.5 59.5t8 60zM541 356q11 0 11 -4t-9.5 -24t-19 -53.5t-9.5 -69.5q-2 -8 -34 -8q-11 0 -13 2q0 14 1 26.5t2 20t5 19t5.5 15t7 17t7.5 17.5q-16 0 -44 -35t-44 -71q-1 -4 -12.5 -6t-22.5 -2l-11 -1q24 117 46 154q4 6 32 6h8q2 0 4 1h2q-17 -26 -37 -108q23 33 37 50.5 t39 35.5t49 18zM276 332q-49 13 -75 13q-15 0 -20 -8q-24 -35 -27 -111q61 43 122 106zM828 323l3 -1q-5 -19 -10 -36.5t-7.5 -27.5t-4 -19.5t-3.5 -14t-3 -8t-3.5 -4.5t-5 -1.5l-7.5 -1.5q-5 0 -8 -1l-5 -1q-4 -1 -9 -1.5t-8 -0.5t-3 1q6 19 10.5 36.5t7 28t4 19.5 t3.5 13.5t3 8t3.5 5t4.5 2t8 1.5q5 0 8 1l4 1q4 0 9.5 0.5t8.5 0.5z" />
<glyph horiz-adv-x="624" d="M378 68q-114 111 -175 275q-33 -12 -58.5 -43.5t-25.5 -87.5q0 -87 39.5 -133t116.5 -46q58 0 103 35zM447 412h51q13 -65 13 -120q0 -134 -61 -217q48 -42 89 -42q8 0 20 4.5t20 8.5l8 5l10 -39q-37 -24 -67 -24q-55 0 -117 49q-58 -49 -145 -49q-104 0 -162.5 56.5 t-58.5 150.5q0 78 44 124.5t98 63.5q-18 59 -18 109q0 76 44.5 122.5t125.5 46.5q30 0 62 -11.5t49 -23.5l18 -12l-13 -40q-50 42 -103 42q-54 0 -83 -32.5t-29 -87.5q0 -88 51.5 -199.5t120.5 -187.5q47 69 47 182q0 64 -14 121z" />
<glyph horiz-adv-x="349" d="M315 288v-49h-145v-489l-73 -2v491h-52v42l52 4v166h-52v42l52 4v74q0 96 30.5 142t100.5 46q24 0 48 -7.5t36 -14.5l12 -7l-11 -39q-33 23 -73 23q-38 0 -54 -32.5t-16 -118.5v-63h145v-49h-145v-163h145z" />
<glyph horiz-adv-x="531" d="M254 37q36 0 66 17.5t39.5 30.5t16.5 25v118h-267q1 -102 38.5 -146.5t106.5 -44.5zM263 463q-74 0 -111 -47t-42 -144l266 -2v138q-4 6 -11.5 15t-37 24.5t-64.5 15.5zM449 500v-500h-59l-12 64q-7 -13 -20 -27t-47 -30.5t-75 -16.5q-92 0 -147.5 65t-55.5 181 q0 126 56 200t159 74q81 0 130 -60l12 50h59z" />
<glyph horiz-adv-x="408" d="M36 64l25 35q5 -7 14 -18t41.5 -29t70.5 -18q56 0 84.5 28t28.5 68q0 37 -25 59t-60.5 34t-71.5 26t-61 44t-25 78q0 55 36 91.5t96 44.5l5 126h41l8 -124q28 -3 56 -12.5t42 -17.5l14 -8l-12 -43q-53 40 -114 40q-46 0 -74.5 -23t-28.5 -58q0 -37 26 -60t62.5 -35.5 t73 -26.5t62.5 -44.5t26 -78.5q0 -57 -35 -98.5t-104 -50.5l-3 -110h-42l-8 108q-48 3 -85 21t-50 35z" />
<glyph horiz-adv-x="423" d="M386 426q-57 40 -123 40q-77 0 -113 -51t-36 -169q0 -212 145 -212q24 0 46 6.5t35.5 15.5t23.5 18t14 16l5 6l32 -21q-1 -3 -4.5 -8t-15 -18.5t-26.5 -24.5t-40.5 -20.5t-54.5 -12.5l-4 -110h-42l-7 111q-184 19 -184 253q0 117 46.5 184.5t136.5 78.5l4 123h42l8 -122 q31 -3 61 -13.5t45 -19.5l15 -9z" />
<glyph horiz-adv-x="472" d="M396 267v-43h-192q-2 -121 -33 -164h279v-60h-404v60h74q19 24 19 78q0 19 -4 87l-89 4v38h87q-1 17 -1 55q0 85 39 136.5t126 51.5q29 0 60 -11t48 -21l17 -11l-9 -43q-56 38 -104 38q-105 0 -105 -141v-54h192z" />
<glyph horiz-adv-x="465" d="M404 191v-43h-140v-148h-73v148h-18l-119 5v38h137v32l-173 327h80l140 -268l138 268h59l-171 -320v-39h140z" />
<glyph horiz-adv-x="489" d="M434 92l21 -30q-2 -3 -5.5 -8t-17.5 -17t-30.5 -21.5t-45 -17.5t-60.5 -8q-207 0 -214 237l-55 5v38h55q5 116 59.5 178t154.5 62q37 0 72.5 -12t51.5 -24l17 -12l-11 -39q-52 43 -119 43q-74 0 -110 -46t-40 -150h284v-43h-284q4 -104 41 -148.5t106 -44.5 q37 0 69.5 14.5t46.5 29.5z" />
<glyph horiz-adv-x="432" d="M379 269v-41h-177q-62 -31 -62 -100q0 -94 103 -94q32 0 60 13.5t41 26.5l12 13l15 -33q-2 -3 -5 -7t-15 -15t-27 -19.5t-40 -15.5t-54 -7q-75 0 -116.5 32t-41.5 90q0 73 72 116l-96 2v41h179q68 30 68 101q0 94 -98 94q-23 0 -49.5 -10t-41.5 -20l-15 -11l-11 37 q63 48 132 48q72 0 111.5 -32t39.5 -88q0 -72 -75 -120z" />
<glyph horiz-adv-x="1012" d="M883 54v-47h-229v47h229zM769 525q-104 0 -104 -150q0 -152 104 -152t104 152q0 150 -104 150zM468 550v-555l-60 -3l-276 460h-1l3 -17v-435h-50v549l72 1l263 -445l-1 14v431h50zM941 375q0 -87 -44.5 -136t-127.5 -49q-85 0 -128.5 48.5t-43.5 136.5t43.5 136.5 t128.5 48.5t128.5 -48.5t43.5 -136.5z" />
<glyph horiz-adv-x="482" d="M231 447l-88 -260h172zM201 500h85l169 -500h-75l-52 149h-198l-52 -149h-51z" />
<glyph horiz-adv-x="458" d="M154 276h88q27 0 51.5 22.5t24.5 71.5q0 90 -97 90h-67v-184zM246 239h-92v-198h68q62 0 90.5 24.5t28.5 79.5q0 47 -26 70.5t-69 23.5zM82 0v500h138q81 0 124.5 -35t43.5 -91q0 -73 -74 -111q45 -13 72 -44t27 -77q0 -67 -48 -104.5t-143 -37.5h-140z" />
<glyph horiz-adv-x="477" d="M428 465l-9 -42q-71 41 -139 41q-75 0 -116 -54.5t-41 -161.5q0 -106 42.5 -158.5t119.5 -52.5q41 0 76.5 18.5t50.5 36.5l14 18l27 -30q-2 -4 -6 -10t-20 -21.5t-35 -27.5t-51 -21.5t-68 -9.5q-108 0 -168 68.5t-60 187.5q0 120 61.5 192t166.5 72q37 0 76 -11t59 -23z " />
<glyph horiz-adv-x="529" d="M245 455h-91v-410h92q80 0 120 49t40 155q0 206 -161 206zM82 0v500h163q114 0 176.5 -64.5t62.5 -186.5t-61.5 -185.5t-176.5 -63.5h-164z" />
<glyph horiz-adv-x="429" d="M385 44v-44h-303v500h288v-44h-216v-182h196v-43h-196v-187h231z" />
<glyph horiz-adv-x="396" d="M344 265v-43h-190v-222h-72v500h293v-44h-221v-191h190z" />
<glyph horiz-adv-x="517" d="M448 263v-263h-35l-18 50q-43 -60 -133 -60q-103 0 -160 69t-57 190q0 122 62 191.5t174 69.5q37 0 76 -11t59 -23l21 -11l-11 -42q-70 41 -138 41q-85 0 -125 -53.5t-40 -161.5q0 -106 40 -159t110 -53q28 0 50.5 9t33.5 21t18.5 24.5t9.5 21.5l2 9v101h-100v40h161z " />
<glyph horiz-adv-x="533" d="M451 500v-500h-73v236h-224v-236h-72v500h72v-221h224v221h73z" />
<glyph horiz-adv-x="237" d="M154 500v-500h-72v500h72z" />
<glyph horiz-adv-x="313" d="M31 61q20 -27 64 -27q70 0 70 117v349h72v-349q0 -88 -33 -124.5t-93 -36.5q-33 0 -57 8t-32 16l-7 9z" />
<glyph horiz-adv-x="491" d="M82 0v500h72v-261l60 48l169 213h58l-177 -218l202 -282h-91l-165 229l-56 -43v-186h-72z" />
<glyph horiz-adv-x="398" d="M378 44v-44h-296v500h72v-456h224z" />
<glyph horiz-adv-x="693" d="M608 500l3 -500h-71l-3 413l-171 -413h-59l-171 413l-1 -413h-53l3 500h89l175 -412h1l173 412h85z" />
<glyph horiz-adv-x="542" d="M460 500v-500h-62l-267 409h-1l5 -30v-379h-53v500h76l253 -392l-3 21v371h52z" />
<glyph horiz-adv-x="544" d="M420 250q0 104 -38.5 160t-110.5 56t-110 -56t-38 -160q0 -106 37.5 -161t110.5 -55t111 55t38 161zM499 250q0 -120 -60.5 -190t-167.5 -70t-166.5 70t-59.5 190q0 119 59.5 189.5t166.5 70.5t167.5 -70.5t60.5 -189.5z" />
<glyph horiz-adv-x="423" d="M207 459h-53v-249h53q104 0 104 126q0 123 -104 123zM82 0v500h134q82 0 127 -40.5t45 -120.5q0 -87 -50.5 -128t-120.5 -41h-63v-170h-72z" />
<glyph horiz-adv-x="544" d="M420 250q0 103 -38.5 159.5t-110.5 56.5t-110 -56.5t-38 -159.5q0 -105 38 -160.5t110 -55.5q73 0 111 55.5t38 160.5zM465 -138q-18 -7 -40 -7q-51 0 -100 38.5t-78 97.5q-96 7 -149 76.5t-53 182.5q0 119 59.5 189.5t166.5 70.5t167.5 -69t60.5 -188q0 -107 -48.5 -176 t-135.5 -83q57 -99 120 -99q12 0 27 5z" />
<glyph horiz-adv-x="458" d="M207 459h-53v-234h59q49 0 74.5 27t25.5 92q0 115 -106 115zM82 0v500h134q81 0 126.5 -40t45.5 -114q0 -108 -90 -148l124 -198h-83l-111 183h-74v-183h-72z" />
<glyph horiz-adv-x="412" d="M348 462l-10 -40q-5 5 -14.5 12.5t-39 20t-57.5 12.5q-41 0 -65 -23t-24 -61q0 -34 23.5 -56t57.5 -35.5t67.5 -28.5t57 -44.5t23.5 -74.5q0 -67 -45 -110.5t-117 -43.5q-35 0 -64.5 7t-46.5 17.5t-28.5 21t-15.5 17.5l-5 7l21 39q4 -7 12.5 -17.5t41.5 -28t75 -17.5 q47 0 73 26.5t26 66.5q0 33 -23.5 55t-57 35.5t-66.5 29t-56.5 45t-23.5 73.5q0 65 42.5 104t113.5 39q35 0 66.5 -12t44.5 -24z" />
<glyph horiz-adv-x="398" d="M382 500v-44h-146v-456h-73v456h-147v44h366z" />
<glyph horiz-adv-x="515" d="M258 -10q-90 0 -136.5 48.5t-46.5 129.5v332h72v-316q0 -147 119 -147q60 0 90.5 38.5t30.5 108.5v316h53v-332q0 -82 -44.5 -130t-137.5 -48z" />
<glyph horiz-adv-x="464" d="M271 0h-84l-166 500h76l144 -447l148 447h53z" />
<glyph horiz-adv-x="703" d="M627 500h54l-139 -500h-66l-124 412l-123 -412h-67l-141 500h76l112 -416l122 416h64l124 -416z" />
<glyph horiz-adv-x="461" d="M22 0l165 248l-158 252h89l120 -200h1l127 200h60l-157 -241l170 -259h-90l-130 207l-133 -207h-64z" />
<glyph horiz-adv-x="430" d="M9 500h82l136 -239l134 239h59l-167 -292v-208h-73v203z" />
<glyph horiz-adv-x="448" d="M404 500v-38l-274 -418h274v-44h-362v37l274 419h-266v44h354z" />
<glyph horiz-adv-x="482" d="M140 708l62 16l83 -143l-40 -8zM231 447l-88 -260h172zM201 500h85l169 -500h-75l-52 149h-198l-52 -149h-51z" />
<glyph horiz-adv-x="482" d="M283 721l63 -15l-102 -135l-38 5zM231 447l-88 -260h172zM201 500h85l169 -500h-75l-52 149h-198l-52 -149h-51z" />
<glyph horiz-adv-x="482" d="M262 743l108 -114l-18 -32l-110 97l-110 -97l-19 32l110 114h39zM231 447l-88 -260h172zM201 500h85l169 -500h-75l-52 149h-198l-52 -149h-51z" />
<glyph horiz-adv-x="482" d="M380 671l23 -25q-3 -6 -8.5 -14.5t-27 -22.5t-49.5 -14q-30 0 -79 23t-75 23q-17 0 -32 -9.5t-22 -19.5l-6 -10l-23 25q1 3 3.5 7t11.5 15t19 19t27 15t35 7q33 0 80.5 -23t71.5 -23q16 0 28.5 7t17.5 13zM231 447l-88 -260h172zM201 500h85l169 -500h-75l-52 149h-198 l-52 -149h-51z" />
<glyph horiz-adv-x="482" d="M137 674q13 10 27 10q13 0 26 -10q11 -13 11 -30q0 -16 -11 -29q-13 -10 -26 -10q-14 0 -27 10q-11 11 -11 29q0 19 11 30zM291 674q13 10 26 10t26 -10q12 -12 12 -30q0 -17 -12 -29q-13 -10 -26 -10t-26 10q-11 11 -11 29q0 19 11 30zM231 447l-88 -260h172zM201 500 h85l169 -500h-75l-52 149h-198l-52 -149h-51z" />
<glyph horiz-adv-x="482" d="M302 644q0 34 -17 50.5t-43 16.5q-27 0 -44 -17t-17 -50q0 -34 17 -50.5t44 -16.5t43.5 16.5t16.5 50.5zM331 644q0 -45 -24.5 -69t-64.5 -24t-64.5 24t-24.5 69q0 44 25 69t64 25q38 0 63.5 -25t25.5 -69zM231 447l-88 -260h172zM201 500h85l169 -500h-75l-52 149h-198 l-52 -149h-51z" />
<glyph horiz-adv-x="657" d="M311 456l-146 -264h150v264h-4zM294 500h309v-44h-215v-182h195v-43h-195v-187h231v-44h-304v153h-172l-88 -153h-55z" />
<glyph horiz-adv-x="477" d="M428 465l-9 -42q-71 41 -139 41q-75 0 -116 -54.5t-41 -161.5q0 -106 42.5 -158.5t119.5 -52.5q41 0 76.5 18.5t50.5 36.5l14 18l27 -30q-2 -4 -6 -9.5t-19.5 -21t-34 -27.5t-50 -21.5t-66.5 -10.5l-6 -59l24 -6q24 -6 48 -26t24 -54q0 -45 -26.5 -70.5t-77.5 -25.5 q-30 0 -53 10.5t-31 20.5l-8 11l18 20q22 -32 67 -32q66 0 66 68q0 26 -21 40t-42 17t-21 4l11 83q-97 7 -150.5 75t-53.5 180q0 120 61.5 192t166.5 72q37 0 76 -11t59 -23z" />
<glyph horiz-adv-x="429" d="M131 708l62 16l83 -143l-40 -8zM385 44v-44h-303v500h288v-44h-216v-182h196v-43h-196v-187h231z" />
<glyph horiz-adv-x="429" d="M274 721l63 -15l-102 -135l-38 5zM385 44v-44h-303v500h288v-44h-216v-182h196v-43h-196v-187h231z" />
<glyph horiz-adv-x="429" d="M255 743l108 -114l-18 -32l-110 97l-110 -97l-19 32l110 114h39zM385 44v-44h-303v500h288v-44h-216v-182h196v-43h-196v-187h231z" />
<glyph horiz-adv-x="429" d="M122 674q13 10 26 10q14 0 27 -10q11 -13 11 -30q0 -16 -11 -29q-13 -10 -27 -10q-13 0 -26 10q-11 11 -11 29q0 19 11 30zM276 674q13 10 26 10t26 -10q12 -12 12 -30q0 -17 -12 -29q-13 -10 -26 -10t-26 10q-11 11 -11 29q0 19 11 30zM385 44v-44h-303v500h288v-44 h-216v-182h196v-43h-196v-187h231z" />
<glyph horiz-adv-x="237" d="M12 708l62 16l83 -143l-40 -8zM154 500v-500h-72v500h72z" />
<glyph horiz-adv-x="237" d="M155 721l63 -15l-102 -135l-38 5zM154 500v-500h-72v500h72z" />
<glyph horiz-adv-x="237" d="M138 743l108 -114l-18 -32l-110 97l-110 -97l-19 32l110 114h39zM154 500v-500h-72v500h72z" />
<glyph horiz-adv-x="237" d="M14 674q13 10 26 10q14 0 27 -10q11 -13 11 -30q0 -16 -11 -29q-13 -10 -27 -10q-13 0 -26 10q-11 11 -11 29q0 19 11 30zM168 674q13 10 26 10t26 -10q12 -12 12 -30q0 -17 -12 -29q-13 -10 -26 -10t-26 10q-11 11 -11 29q0 19 11 30zM154 500v-500h-72v500h72z" />
<glyph horiz-adv-x="533" d="M245 455h-91v-187h143v-39h-143v-184h92q80 0 120 49t40 155q0 206 -161 206zM82 0v229h-53v39h53v232h163q114 0 176.5 -64.5t62.5 -186.5t-61.5 -185.5t-176.5 -63.5h-164z" />
<glyph horiz-adv-x="542" d="M417 671l23 -25q-3 -6 -8.5 -14.5t-27 -22.5t-49.5 -14q-30 0 -79 23t-75 23q-17 0 -32 -9.5t-21 -19.5l-7 -10l-23 25q1 3 3.5 7t11.5 15t19 19t27 15t35 7q33 0 80.5 -23t71.5 -23q16 0 29 7t17 13zM460 500v-500h-62l-267 409h-1l5 -30v-379h-53v500h76l253 -392 l-3 21v371h52z" />
<glyph horiz-adv-x="544" d="M166 708l62 16l83 -143l-40 -8zM420 250q0 104 -38.5 160t-110.5 56t-110 -56t-38 -160q0 -106 37.5 -161t110.5 -55t111 55t38 161zM499 250q0 -120 -60.5 -190t-167.5 -70t-166.5 70t-59.5 190q0 119 59.5 189.5t166.5 70.5t167.5 -70.5t60.5 -189.5z" />
<glyph horiz-adv-x="544" d="M309 721l63 -15l-102 -135l-38 5zM420 250q0 104 -38.5 160t-110.5 56t-110 -56t-38 -160q0 -106 37.5 -161t110.5 -55t111 55t38 161zM499 250q0 -120 -60.5 -190t-167.5 -70t-166.5 70t-59.5 190q0 119 59.5 189.5t166.5 70.5t167.5 -70.5t60.5 -189.5z" />
<glyph horiz-adv-x="544" d="M291 743l108 -114l-18 -32l-110 97l-110 -97l-19 32l110 114h39zM420 250q0 104 -38.5 160t-110.5 56t-110 -56t-38 -160q0 -106 37.5 -161t110.5 -55t111 55t38 161zM499 250q0 -120 -60.5 -190t-167.5 -70t-166.5 70t-59.5 190q0 119 59.5 189.5t166.5 70.5 t167.5 -70.5t60.5 -189.5z" />
<glyph horiz-adv-x="544" d="M411 671l23 -25q-3 -6 -8.5 -14.5t-27 -22.5t-49.5 -14q-30 0 -79 23t-75 23q-17 0 -32 -9.5t-21 -19.5l-7 -10l-23 25q1 3 3.5 7t11.5 15t19 19t27 15t35 7q33 0 80.5 -23t71.5 -23q16 0 29 7t17 13zM420 250q0 104 -38.5 160t-110.5 56t-110 -56t-38 -160 q0 -106 37.5 -161t110.5 -55t111 55t38 161zM499 250q0 -120 -60.5 -190t-167.5 -70t-166.5 70t-59.5 190q0 119 59.5 189.5t166.5 70.5t167.5 -70.5t60.5 -189.5z" />
<glyph horiz-adv-x="544" d="M167 674q13 10 27 10q13 0 26 -10q11 -13 11 -30q0 -16 -11 -29q-13 -10 -26 -10q-14 0 -27 10q-11 11 -11 29q0 19 11 30zM321 674q13 10 26 10t26 -10q12 -12 12 -30q0 -17 -12 -29q-13 -10 -26 -10t-26 10q-11 11 -11 29q0 19 11 30zM420 250q0 104 -38.5 160 t-110.5 56t-110 -56t-38 -160q0 -106 37.5 -161t110.5 -55t111 55t38 161zM499 250q0 -120 -60.5 -190t-167.5 -70t-166.5 70t-59.5 190q0 119 59.5 189.5t166.5 70.5t167.5 -70.5t60.5 -189.5z" />
<glyph horiz-adv-x="544" d="M420 250q0 119 -50 174l-159 -378q25 -12 60 -12q73 0 111 55t38 161zM123 250q0 -142 66 -191l161 383q-33 24 -79 24q-72 0 -110 -56t-38 -160zM499 250q0 -120 -60.5 -190t-167.5 -70q-38 0 -79 12l-34 -82l-25 6l35 85q-60 28 -91.5 90t-31.5 149q0 119 59.5 189.5 t166.5 70.5q54 0 99 -20l29 70l25 -6l-32 -76q107 -65 107 -228z" />
<glyph horiz-adv-x="515" d="M169 708l62 16l83 -143l-40 -8zM258 -10q-90 0 -136.5 48.5t-46.5 129.5v332h72v-316q0 -147 119 -147q60 0 90.5 38.5t30.5 108.5v316h53v-332q0 -82 -44.5 -130t-137.5 -48z" />
<glyph horiz-adv-x="515" d="M294 721l63 -15l-102 -135l-38 5zM258 -10q-90 0 -136.5 48.5t-46.5 129.5v332h72v-316q0 -147 119 -147q60 0 90.5 38.5t30.5 108.5v316h53v-332q0 -82 -44.5 -130t-137.5 -48z" />
<glyph horiz-adv-x="515" d="M286 743l108 -114l-18 -32l-110 97l-110 -97l-19 32l110 114h39zM258 -10q-90 0 -136.5 48.5t-46.5 129.5v332h72v-316q0 -147 119 -147q60 0 90.5 38.5t30.5 108.5v316h53v-332q0 -82 -44.5 -130t-137.5 -48z" />
<glyph horiz-adv-x="515" d="M164 674q13 10 26 10q14 0 27 -10q11 -13 11 -30q0 -16 -11 -29q-13 -10 -27 -10q-13 0 -26 10q-11 11 -11 29q0 19 11 30zM318 674q13 10 26 10t26 -10q12 -12 12 -30q0 -17 -12 -29q-13 -10 -26 -10t-26 10q-11 11 -11 29q0 19 11 30zM258 -10q-90 0 -136.5 48.5 t-46.5 129.5v332h72v-316q0 -147 119 -147q60 0 90.5 38.5t30.5 108.5v316h53v-332q0 -82 -44.5 -130t-137.5 -48z" />
<glyph horiz-adv-x="430" d="M267 721l63 -15l-102 -135l-38 5zM9 500h82l136 -239l134 239h59l-167 -292v-208h-73v203z" />
<glyph horiz-adv-x="440" d="M223 372h-58v-254h57q104 0 104 129q0 125 -103 125zM165 500v-85h62q82 0 127 -41t45 -124q0 -47 -15 -82t-40.5 -54t-54.5 -28.5t-61 -9.5h-63v-76h-72v500h72z" />
<glyph horiz-adv-x="430" d="M122 674q13 10 26 10q14 0 27 -10q11 -13 11 -30q0 -16 -11 -29q-13 -10 -27 -10q-13 0 -26 10q-11 11 -11 29q0 19 11 30zM276 674q13 10 26 10t26 -10q12 -12 12 -30q0 -17 -12 -29q-13 -10 -26 -10t-26 10q-11 11 -11 29q0 19 11 30zM9 500h82l136 -239l134 239h59 l-167 -292v-208h-73v203z" />
<glyph horiz-adv-x="482" d="M335 672v-36h-186v36h186zM231 447l-88 -260h172zM201 500h85l169 -500h-75l-52 149h-198l-52 -149h-51z" />
<glyph horiz-adv-x="482" d="M241 620q36 0 59.5 15t29.5 29l5 15v2l45 -6q0 -4 -2 -10.5t-10.5 -24t-22.5 -30.5t-41 -23.5t-63 -10.5t-63 10t-40.5 25t-21.5 29.5t-10 24.5l-2 10l45 6v-2q0 -2 1.5 -6t8 -14.5t15.5 -18t27 -14t40 -6.5zM231 447l-88 -260h172zM201 500h85l169 -500h-75l-52 149 h-198l-52 -149h-51z" />
<glyph horiz-adv-x="482" d="M231 447l-88 -260h172zM201 500h85l169 -500h-32q-15 -10 -30 -23t-33 -45t-18 -67q0 -83 105 -83v-32q-155 0 -155 111q0 77 88 139l-52 149h-198l-52 -149h-51z" />
<glyph horiz-adv-x="477" d="M310 721l63 -15l-102 -135l-38 5zM428 465l-9 -42q-71 41 -139 41q-75 0 -116 -54.5t-41 -161.5q0 -106 42.5 -158.5t119.5 -52.5q41 0 76.5 18.5t50.5 36.5l14 18l27 -30q-2 -4 -6 -10t-20 -21.5t-35 -27.5t-51 -21.5t-68 -9.5q-108 0 -168 68.5t-60 187.5 q0 120 61.5 192t166.5 72q37 0 76 -11t59 -23z" />
<glyph horiz-adv-x="477" d="M245 573l-119 123l29 24l109 -101l111 101l28 -26l-119 -121h-39zM428 465l-9 -42q-71 41 -139 41q-75 0 -116 -54.5t-41 -161.5q0 -106 42.5 -158.5t119.5 -52.5q41 0 76.5 18.5t50.5 36.5l14 18l27 -30q-2 -4 -6 -10t-20 -21.5t-35 -27.5t-51 -21.5t-68 -9.5 q-108 0 -168 68.5t-60 187.5q0 120 61.5 192t166.5 72q37 0 76 -11t59 -23z" />
<glyph horiz-adv-x="533" d="M214 573l-119 123l29 24l109 -101l111 101l28 -26l-119 -121h-39zM245 455h-91v-410h92q80 0 120 49t40 155q0 206 -161 206zM82 0v500h163q114 0 176.5 -64.5t62.5 -186.5t-61.5 -185.5t-176.5 -63.5h-164z" />
<glyph horiz-adv-x="533" d="M245 455h-91v-187h143v-39h-143v-184h92q80 0 120 49t40 155q0 206 -161 206zM82 0v229h-53v39h53v232h163q114 0 176.5 -64.5t62.5 -186.5t-61.5 -185.5t-176.5 -63.5h-164z" />
<glyph horiz-adv-x="429" d="M329 672v-36h-186v36h186zM385 44v-44h-303v500h288v-44h-216v-182h196v-43h-196v-187h231z" />
<glyph horiz-adv-x="429" d="M201 676q11 11 29 11q19 0 30 -10q12 -13 12 -33q0 -18 -12 -32q-14 -11 -30 -11q-18 0 -29 11q-13 13 -13 32t13 32zM385 44v-44h-303v500h288v-44h-216v-182h196v-43h-196v-187h231z" />
<glyph horiz-adv-x="429" d="M385 44v-44h-8q-15 -10 -30 -23t-33 -45t-18 -67q0 -83 105 -83v-32q-155 0 -155 111q0 77 88 139h-252v500h288v-44h-216v-182h196v-43h-196v-187h231z" />
<glyph horiz-adv-x="429" d="M208 573l-119 123l29 24l109 -101l111 101l28 -26l-119 -121h-39zM385 44v-44h-303v500h288v-44h-216v-182h196v-43h-196v-187h231z" />
<glyph horiz-adv-x="517" d="M278 620q36 0 59.5 15t28.5 29l6 15v2l45 -6q0 -4 -2 -10.5t-10.5 -24t-22.5 -30.5t-41 -23.5t-63 -10.5t-63 10t-40.5 25t-21.5 29.5t-10 24.5l-2 10l45 6v-2q0 -2 1.5 -6t8 -14.5t15.5 -18t27 -14t40 -6.5zM448 263v-263h-35l-18 50q-43 -60 -133 -60q-103 0 -160 69 t-57 190q0 122 62 191.5t174 69.5q37 0 76 -11t59 -23l21 -11l-11 -42q-70 41 -138 41q-85 0 -125 -53.5t-40 -161.5q0 -106 40 -159t110 -53q28 0 50.5 9t33.5 21t18.5 24.5t9.5 21.5l2 9v101h-100v40h161z" />
<glyph horiz-adv-x="517" d="M296 -54l2 -2q17 -18 17 -55q0 -45 -23.5 -96t-60.5 -81l-18 19q29 27 44.5 63.5t15.5 70.5q0 12 -1 18q-16 0 -26 9q-11 11 -11 27t11 27q10 9 25 9t25 -9zM448 263v-263h-35l-18 50q-43 -60 -133 -60q-103 0 -160 69t-57 190q0 122 62 191.5t174 69.5q37 0 76 -11 t59 -23l21 -11l-11 -42q-70 41 -138 41q-85 0 -125 -53.5t-40 -161.5q0 -106 40 -159t110 -53q28 0 50.5 9t33.5 21t18.5 24.5t9.5 21.5l2 9v101h-100v40h161z" />
<glyph horiz-adv-x="237" d="M212 672v-36h-186v36h186zM154 500v-500h-72v500h72z" />
<glyph horiz-adv-x="237" d="M154 500v-500h-34q-15 -10 -30 -23t-33 -45t-18 -67q0 -83 105 -83v-32q-155 0 -155 111q0 79 93 142v497h72z" />
<glyph horiz-adv-x="237" d="M89 676q11 11 29 11q19 0 30 -10q12 -13 12 -33q0 -18 -12 -32q-14 -11 -30 -11q-18 0 -29 11q-13 13 -13 32t13 32zM154 500v-500h-72v500h72z" />
<glyph horiz-adv-x="504" d="M228 -54q10 9 25 9t25 -9q19 -18 19 -57q0 -45 -23.5 -96t-60.5 -81l-18 19q29 27 44.5 63.5t15.5 70.5q0 12 -1 18q-16 0 -26 9q-11 11 -11 27t11 27zM82 0v500h72v-261l60 48l169 213h58l-177 -218l202 -282h-91l-165 229l-56 -43v-186h-72z" />
<glyph horiz-adv-x="402" d="M164 721l63 -15l-102 -135l-38 5zM378 44v-44h-296v500h72v-456h224z" />
<glyph horiz-adv-x="402" d="M200 -54q10 9 25 9t25 -9q19 -18 19 -57q0 -45 -23.5 -96t-60.5 -81l-18 19q29 27 44.5 63.5t15.5 70.5q0 12 -1 18q-16 0 -26 9q-11 11 -11 27t11 27zM378 44v-44h-296v500h72v-456h224z" />
<glyph horiz-adv-x="402" d="M99 573l-119 123l29 24l109 -101l111 101l28 -26l-119 -121h-39zM378 44v-44h-296v500h72v-456h224z" />
<glyph horiz-adv-x="420" d="M399 44v-44h-296v190l-48 -34l-19 23l67 47v274h72v-222l94 67l19 -24l-113 -80v-197h224z" />
<glyph horiz-adv-x="542" d="M327 721l63 -15l-102 -135l-38 5zM460 500v-500h-62l-267 409h-1l5 -30v-379h-53v500h76l253 -392l-3 21v371h52z" />
<glyph horiz-adv-x="542" d="M246 -54q10 9 25 9t25 -9q19 -18 19 -57q0 -45 -23.5 -96t-60.5 -81l-18 19q29 27 44.5 63.5t15.5 70.5q0 12 -1 18q-16 0 -26 9q-11 11 -11 27t11 27zM460 500v-500h-62l-267 409h-1l5 -30v-379h-53v500h76l253 -392l-3 21v371h52z" />
<glyph horiz-adv-x="542" d="M271 573l-119 123l29 24l109 -101l111 101l28 -26l-119 -121h-39zM460 500v-500h-62l-267 409h-1l5 -30v-379h-53v500h76l253 -392l-3 21v371h52z" />
<glyph horiz-adv-x="544" d="M364 672v-36h-186v36h186zM420 250q0 104 -38.5 160t-110.5 56t-110 -56t-38 -160q0 -106 37.5 -161t110.5 -55t111 55t38 161zM499 250q0 -120 -60.5 -190t-167.5 -70t-166.5 70t-59.5 190q0 119 59.5 189.5t166.5 70.5t167.5 -70.5t60.5 -189.5z" />
<glyph horiz-adv-x="544" d="M175 590l45 128l52 -13l-63 -129zM304 590l46 128l51 -13l-63 -129zM420 250q0 104 -38.5 160t-110.5 56t-110 -56t-38 -160q0 -106 37.5 -161t110.5 -55t111 55t38 161zM499 250q0 -120 -60.5 -190t-167.5 -70t-166.5 70t-59.5 190q0 119 59.5 189.5t166.5 70.5 t167.5 -70.5t60.5 -189.5z" />
<glyph horiz-adv-x="769" d="M420 250q0 104 -38.5 160t-110.5 56t-110 -56t-38 -160q0 -106 37.5 -161t110.5 -55t111 55t38 161zM727 44v-44h-304v44q-59 -54 -152 -54q-107 0 -166.5 70t-59.5 190q0 119 59.5 189.5t166.5 70.5q92 0 152 -55v45h288v-44h-216v-150q3 -30 3 -32h193v-43h-193 q0 -2 -3 -38v-149h232z" />
<glyph horiz-adv-x="458" d="M255 721l63 -15l-102 -135l-38 5zM207 459h-53v-234h59q49 0 74.5 27t25.5 92q0 115 -106 115zM82 0v500h134q81 0 126.5 -40t45.5 -114q0 -108 -90 -148l124 -198h-83l-111 183h-74v-183h-72z" />
<glyph horiz-adv-x="458" d="M208 -54q10 9 25 9t25 -9q19 -18 19 -57q0 -45 -23.5 -96t-60.5 -81l-18 19q29 27 44.5 63.5t15.5 70.5q0 12 -1 18q-16 0 -26 9q-11 11 -11 27t11 27zM207 459h-53v-234h59q49 0 74.5 27t25.5 92q0 115 -106 115zM82 0v500h134q81 0 126.5 -40t45.5 -114 q0 -108 -90 -148l124 -198h-83l-111 183h-74v-183h-72z" />
<glyph horiz-adv-x="458" d="M195 573l-119 123l29 24l109 -101l111 101l28 -26l-119 -121h-39zM207 459h-53v-234h59q49 0 74.5 27t25.5 92q0 115 -106 115zM82 0v500h134q81 0 126.5 -40t45.5 -114q0 -108 -90 -148l124 -198h-83l-111 183h-74v-183h-72z" />
<glyph horiz-adv-x="412" d="M262 721l63 -15l-102 -135l-38 5zM348 462l-10 -40q-5 5 -14.5 12.5t-39 20t-57.5 12.5q-41 0 -65 -23t-24 -61q0 -34 23.5 -56t57.5 -35.5t67.5 -28.5t57 -44.5t23.5 -74.5q0 -67 -45 -110.5t-117 -43.5q-35 0 -64.5 7t-46.5 17.5t-28.5 21t-15.5 17.5l-5 7l21 39 q4 -7 12.5 -17.5t41.5 -28t75 -17.5q47 0 73 26.5t26 66.5q0 33 -23.5 55t-57 35.5t-66.5 29t-56.5 45t-23.5 73.5q0 65 42.5 104t113.5 39q35 0 66.5 -12t44.5 -24z" />
<glyph horiz-adv-x="412" d="M348 462l-10 -40q-5 5 -14.5 12.5t-39 20t-57.5 12.5q-41 0 -65 -23t-24 -61q0 -34 23.5 -56t57.5 -35.5t67.5 -28.5t57 -44.5t23.5 -74.5q0 -66 -43 -109t-113 -45l-6 -59l24 -6q24 -6 48 -26t24 -54q0 -45 -26.5 -70.5t-77.5 -25.5q-30 0 -53 10.5t-31 20.5l-8 11 l18 20q22 -32 67 -32q66 0 66 68q0 26 -21 40t-42 17t-21 4l11 83q-30 2 -55 10t-40 17.5t-25 19t-14 16.5l-4 6l21 39q4 -7 12.5 -17.5t41.5 -28t75 -17.5q47 0 73 26.5t26 66.5q0 33 -23.5 55t-57 35.5t-66.5 29t-56.5 45t-23.5 73.5q0 65 42.5 104t113.5 39 q35 0 66.5 -12t44.5 -24z" />
<glyph horiz-adv-x="412" d="M200 573l-119 123l29 24l109 -101l111 101l28 -26l-119 -121h-39zM348 462l-10 -40q-5 5 -14.5 12.5t-39 20t-57.5 12.5q-41 0 -65 -23t-24 -61q0 -34 23.5 -56t57.5 -35.5t67.5 -28.5t57 -44.5t23.5 -74.5q0 -67 -45 -110.5t-117 -43.5q-35 0 -64.5 7t-46.5 17.5 t-28.5 21t-15.5 17.5l-5 7l21 39q4 -7 12.5 -17.5t41.5 -28t75 -17.5q47 0 73 26.5t26 66.5q0 33 -23.5 55t-57 35.5t-66.5 29t-56.5 45t-23.5 73.5q0 65 42.5 104t113.5 39q35 0 66.5 -12t44.5 -24z" />
<glyph horiz-adv-x="398" d="M177 -54q11 9 25 9t25 -9q19 -18 19 -57q0 -45 -23.5 -96t-60.5 -81l-18 19q29 27 44.5 63.5t15.5 70.5q0 12 -1 18q-15 0 -26 9q-11 11 -11 27t11 27zM382 500v-44h-146v-456h-73v456h-147v44h366z" />
<glyph horiz-adv-x="398" d="M179 573l-119 123l29 24l109 -101l111 101l28 -26l-119 -121h-39zM382 500v-44h-146v-456h-73v456h-147v44h366z" />
<glyph horiz-adv-x="515" d="M358 672v-36h-186v36h186zM258 -10q-90 0 -136.5 48.5t-46.5 129.5v332h72v-316q0 -147 119 -147q60 0 90.5 38.5t30.5 108.5v316h53v-332q0 -82 -44.5 -130t-137.5 -48z" />
<glyph horiz-adv-x="515" d="M324 644q0 34 -17 50.5t-43 16.5q-27 0 -44 -17t-17 -50q0 -34 17 -50.5t44 -16.5t43.5 16.5t16.5 50.5zM353 644q0 -45 -24.5 -69t-64.5 -24t-64.5 24t-24.5 69q0 44 25 69t64 25q38 0 63.5 -25t25.5 -69zM258 -10q-90 0 -136.5 48.5t-46.5 129.5v332h72v-316 q0 -147 119 -147q60 0 90.5 38.5t30.5 108.5v316h53v-332q0 -82 -44.5 -130t-137.5 -48z" />
<glyph horiz-adv-x="515" d="M164 590l45 128l52 -13l-63 -129zM293 590l46 128l51 -13l-63 -129zM258 -10q-90 0 -136.5 48.5t-46.5 129.5v332h72v-316q0 -147 119 -147q60 0 90.5 38.5t30.5 108.5v316h53v-332q0 -82 -44.5 -130t-137.5 -48z" />
<glyph horiz-adv-x="515" d="M258 -10q-90 0 -136.5 48.5t-46.5 129.5v332h72v-316q0 -147 119 -147q60 0 90.5 38.5t30.5 108.5v316h53v-332q0 -143 -121 -171q-76 -53 -76 -132q0 -83 105 -83v-32q-155 0 -155 111q0 71 75 129h-10z" />
<glyph horiz-adv-x="448" d="M275 721l63 -15l-102 -135l-38 5zM404 500v-38l-274 -418h274v-44h-362v37l274 419h-266v44h354z" />
<glyph horiz-adv-x="448" d="M203 676q11 11 29 11q19 0 30 -10q12 -13 12 -33q0 -18 -12 -32q-14 -11 -30 -11q-18 0 -29 11q-13 13 -13 32t13 32zM404 500v-38l-274 -418h274v-44h-362v37l274 419h-266v44h354z" />
<glyph horiz-adv-x="448" d="M214 573l-119 123l29 24l109 -101l111 101l28 -26l-119 -121h-39zM404 500v-38l-274 -418h274v-44h-362v37l274 419h-266v44h354z" />
<glyph horiz-adv-x="530" d="M416 500v-30l-94 -184q12 3 27 3q62 0 99 -37.5t37 -102.5q0 -74 -46.5 -116.5t-118.5 -42.5q-37 0 -64.5 8t-36.5 16l-9 7l14 42q23 -26 81 -26q107 0 107 112q0 100 -79 100q-27 0 -38 -16v-1l-39 29l94 194h-86q-112 -4 -112 -135v-320h-72v333q0 79 46 123t137 44 h153z" />
<glyph horiz-adv-x="428" d="M131 708l62 16l83 -143l-40 -8zM385 44v-44h-303v500h288v-44h-216v-182h196v-43h-196v-187h231z" />
<glyph horiz-adv-x="428" d="M122 674q13 10 26 10q14 0 27 -10q11 -13 11 -30q0 -16 -11 -29q-13 -10 -27 -10q-13 0 -26 10q-11 11 -11 29q0 19 11 30zM276 674q13 10 26 10t26 -10q12 -12 12 -30q0 -17 -12 -29q-13 -10 -26 -10t-26 10q-11 11 -11 29q0 19 11 30zM385 44v-44h-303v500h288v-44 h-216v-182h196v-43h-196v-187h231z" />
<glyph horiz-adv-x="538" d="M363 500v-43h-135v-200q6 6 17.5 14.5t46 23t68.5 14.5q69 0 98 -31t29 -97v-33q0 -88 -31.5 -122t-87.5 -34q-25 0 -44.5 7.5t-26.5 14.5l-7 8l5 34q22 -25 57 -25q63 0 63 103v32q0 55 -18 74.5t-64 19.5q-26 0 -51 -10.5t-36 -19.5t-18 -17v-213h-73v457h-136v43h344z " />
<glyph horiz-adv-x="352" d="M234 721l63 -15l-102 -135l-38 5zM341 456h-187v-456h-72v500h259v-44z" />
<glyph horiz-adv-x="481" d="M379 267v-43h-255q4 -93 46.5 -140t116.5 -47q41 0 76.5 18t50.5 36l15 18l23 -35l-6 -9t-19.5 -20.5t-34 -25.5t-49.5 -20t-65 -9q-108 0 -170.5 67.5t-62.5 185.5q0 119 65 193t170 74q39 0 78 -15.5t58 -30.5l20 -16l-11 -44q-7 7 -20 17t-49.5 26.5t-68.5 16.5 q-72 0 -115 -50t-48 -147h255z" />
<glyph horiz-adv-x="412" d="M348 462l-10 -40q-5 5 -14.5 12.5t-39 20t-57.5 12.5q-41 0 -65 -23t-24 -61q0 -34 23.5 -56t57.5 -35.5t67.5 -28.5t57 -44.5t23.5 -74.5q0 -67 -45 -110.5t-117 -43.5q-35 0 -64.5 7t-46.5 17.5t-28.5 21t-15.5 17.5l-5 7l21 39q4 -7 12.5 -17.5t41.5 -28t75 -17.5 q47 0 73 26.5t26 66.5q0 33 -23.5 55t-57 35.5t-66.5 29t-56.5 45t-23.5 73.5q0 65 42.5 104t113.5 39q35 0 66.5 -12t44.5 -24z" />
<glyph horiz-adv-x="237" d="M154 500v-500h-72v500h72z" />
<glyph horiz-adv-x="237" d="M15 674q13 10 27 10q13 0 26 -10q11 -13 11 -30q0 -16 -11 -29q-13 -10 -26 -10q-14 0 -27 10q-11 11 -11 29q0 19 11 30zM169 674q13 10 26 10t26 -10q12 -12 12 -30q0 -17 -12 -29q-13 -10 -26 -10t-26 10q-11 11 -11 29q0 19 11 30zM154 500v-500h-72v500h72z" />
<glyph horiz-adv-x="323" d="M31 61q20 -27 64 -27q70 0 70 117v349h72v-349q0 -88 -33 -124.5t-93 -36.5q-33 0 -57 8t-32 16l-7 9z" />
<glyph horiz-adv-x="723" d="M483 262h-56v-222h58q119 0 119 115q0 107 -121 107zM355 0v456h-141q-1 -225 -41.5 -343.5t-109.5 -118.5q-12 0 -21.5 1.5t-13.5 2.5l-3 2l5 50q9 -3 23 -3q111 0 111 453h263v-198h56q93 0 143.5 -36.5t50.5 -109.5q0 -75 -48 -115.5t-142 -40.5h-132z" />
<glyph horiz-adv-x="746" d="M506 262h-55v-222h57q119 0 119 115q0 107 -121 107zM378 0v236h-224v-236h-72v500h72v-221h224v221h73v-198h55q93 0 143.5 -36.5t50.5 -109.5q0 -75 -48 -115.5t-142 -40.5h-132z" />
<glyph horiz-adv-x="560" d="M360 500v-43h-135v-200q6 6 17.5 14.5t46 23t68.5 14.5q69 0 98.5 -31t29.5 -97v-181h-73v166q0 55 -18 74.5t-64 19.5q-26 0 -51 -10.5t-36 -19.5t-18 -17v-213h-73v457h-136v43h344z" />
<glyph horiz-adv-x="504" d="M280 721l63 -15l-102 -135l-38 5zM82 0v500h72v-261l60 48l169 213h58l-177 -218l202 -282h-91l-165 229l-56 -43v-186h-72z" />
<glyph horiz-adv-x="546" d="M169 708l62 16l83 -143l-40 -8zM464 500v-500h-72v375l4 35h-1l-240 -400l-4 -10h-69v500h72v-380l-3 -31h1l239 401l5 10h68z" />
<glyph horiz-adv-x="480" d="M262 620q36 0 59.5 15t28.5 29l6 15v2l45 -6q0 -4 -2 -10.5t-10.5 -24t-22.5 -30.5t-41 -23.5t-63 -10.5t-63 10t-40.5 25t-21.5 29.5t-10 24.5l-2 10l45 6v-2q0 -2 1.5 -6t8 -14.5t15.5 -18t27 -14t40 -6.5zM276 189l117 311h57l-148 -362q-33 -81 -71 -114.5t-87 -33.5 q-21 0 -38.5 4.5t-25.5 9.5l-7 4l11 51q23 -18 61 -18q27 0 49.5 16t45.5 60l-207 383h84z" />
<glyph horiz-adv-x="521" d="M154 500v-456h212v456h73v-500h-146l-8 -161h-47l-11 161h-145v500h72z" />
<glyph horiz-adv-x="482" d="M231 447l-88 -260h172zM201 500h85l169 -500h-75l-52 149h-198l-52 -149h-51z" />
<glyph horiz-adv-x="450" d="M209 262h-54v-222h56q120 0 120 114q0 58 -31 83t-91 25zM351 500v-44h-196v-154h54q93 0 144 -36.5t51 -109.5q0 -75 -48.5 -115.5t-143.5 -40.5h-130v500h269z" />
<glyph horiz-adv-x="458" d="M154 276h88q27 0 51.5 22.5t24.5 71.5q0 90 -97 90h-67v-184zM246 239h-92v-198h68q62 0 90.5 24.5t28.5 79.5q0 47 -26 70.5t-69 23.5zM82 0v500h138q81 0 124.5 -35t43.5 -91q0 -73 -74 -111q45 -13 72 -44t27 -77q0 -67 -48 -104.5t-143 -37.5h-140z" />
<glyph horiz-adv-x="352" d="M341 456h-187v-456h-72v500h259v-44z" />
<glyph horiz-adv-x="515" d="M347 456h-151q-4 -283 -65 -412h216v412zM144 500h275v-456h62l-11 -174h-47l-11 130h-312l-18 -130h-43l-4 174h44q33 65 49 167.5t16 288.5z" />
<glyph horiz-adv-x="429" d="M385 44v-44h-303v500h288v-44h-216v-182h196v-43h-196v-187h231z" />
<glyph horiz-adv-x="714" d="M384 500v-206h71l136 206h61l-152 -212l175 -288h-85l-145 250h-61v-250h-73v250h-62l-125 -250h-85l154 275l-138 225h60l120 -206h76v206h73z" />
<glyph horiz-adv-x="411" d="M73 425l-9 41q59 44 132 44q75 0 115.5 -35.5t40.5 -95.5q0 -79 -84 -120q98 -23 98 -119q0 -66 -48 -108t-129 -42q-37 0 -67.5 8.5t-48 20t-29.5 23.5t-16 20l-4 9l26 33l5 -7.5t14 -16t25 -20.5t37 -16.5t49 -7.5q52 0 79 27.5t27 78.5q0 93 -93 93l-75 -3v44l79 -3 q29 1 54.5 28t25.5 74q0 92 -93 92q-26 0 -54 -10.5t-42 -20.5z" />
<glyph horiz-adv-x="546" d="M464 500v-500h-72v375l4 35h-1l-240 -400l-4 -10h-69v500h72v-380l-3 -31h1l239 401l5 10h68z" />
<glyph horiz-adv-x="546" d="M274 615q36 0 56.5 15.5t23.5 30.5l2 15v5l60 -6q0 -4 -1.5 -10.5t-10.5 -24t-22.5 -30.5t-42 -23.5t-65.5 -10.5t-65 10t-41.5 25t-22 29.5t-10.5 24.5l-2 10l60 6v-5q0 -2 0.5 -6.5t5 -15t12 -18.5t24.5 -14.5t39 -6.5zM464 500v-500h-72v375l4 35h-1l-240 -400l-4 -10 h-69v500h72v-380l-3 -31h1l239 401l5 10h68z" />
<glyph horiz-adv-x="504" d="M82 0v500h72v-261l60 48l169 213h58l-177 -218l202 -282h-91l-165 229l-56 -43v-186h-72z" />
<glyph horiz-adv-x="510" d="M164 500h263v-500h-72v456h-141q-1 -225 -41.5 -343.5t-109.5 -118.5q-12 0 -21.5 1.5t-13.5 2.5l-3 2l5 50q9 -3 23 -3q111 0 111 453z" />
<glyph horiz-adv-x="693" d="M608 500l3 -500h-71l-3 413l-171 -413h-59l-171 413l-1 -413h-53l3 500h89l175 -412h1l173 412h85z" />
<glyph horiz-adv-x="533" d="M451 500v-500h-73v236h-224v-236h-72v500h72v-221h224v221h73z" />
<glyph horiz-adv-x="544" d="M420 250q0 104 -38.5 160t-110.5 56t-110 -56t-38 -160q0 -106 37.5 -161t110.5 -55t111 55t38 161zM499 250q0 -120 -60.5 -190t-167.5 -70t-166.5 70t-59.5 190q0 119 59.5 189.5t166.5 70.5t167.5 -70.5t60.5 -189.5z" />
<glyph horiz-adv-x="521" d="M439 500v-500h-73v456h-212v-456h-72v500h357z" />
<glyph horiz-adv-x="423" d="M207 459h-53v-249h53q104 0 104 126q0 123 -104 123zM82 0v500h134q82 0 127 -40.5t45 -120.5q0 -87 -50.5 -128t-120.5 -41h-63v-170h-72z" />
<glyph horiz-adv-x="477" d="M428 465l-9 -42q-71 41 -139 41q-75 0 -116 -54.5t-41 -161.5q0 -106 42.5 -158.5t119.5 -52.5q41 0 76.5 18.5t50.5 36.5l14 18l27 -30q-2 -4 -6 -10t-20 -21.5t-35 -27.5t-51 -21.5t-68 -9.5q-108 0 -168 68.5t-60 187.5q0 120 61.5 192t166.5 72q37 0 76 -11t59 -23z " />
<glyph horiz-adv-x="398" d="M382 500v-44h-146v-456h-73v456h-147v44h366z" />
<glyph horiz-adv-x="480" d="M276 189l117 311h57l-148 -362q-33 -81 -71 -114.5t-87 -33.5q-21 0 -38.5 4.5t-25.5 9.5l-7 4l11 51q23 -18 61 -18q27 0 49.5 16t45.5 60l-207 383h84z" />
<glyph horiz-adv-x="597" d="M109 250q0 -76 38 -112t115 -37v301q-78 -2 -115.5 -38t-37.5 -114zM488 252q0 77 -38 112.5t-116 37.5v-301q78 2 116 38t38 113zM334 500v-61q107 -2 167 -47t60 -140q0 -94 -60.5 -140.5t-166.5 -48.5v-63h-72v63q-107 2 -167 48t-60 139q0 94 60 140.5t167 48.5v61 h72z" />
<glyph horiz-adv-x="461" d="M22 0l165 248l-158 252h89l120 -200h1l127 200h60l-157 -241l170 -259h-90l-130 207l-133 -207h-64z" />
<glyph horiz-adv-x="535" d="M154 500v-456h212v456h73v-456h61l-12 -174h-47l-11 130h-348v500h72z" />
<glyph horiz-adv-x="475" d="M393 500v-500h-72v209q-44 -34 -129 -34q-130 0 -130 141v184h72v-174q0 -56 19.5 -79t64.5 -23q60 0 103 27v249h72z" />
<glyph horiz-adv-x="705" d="M389 500v-456h161v456h72v-500h-540v500h72v-456h162v456h73z" />
<glyph horiz-adv-x="718" d="M622 500v-456h58l-12 -174h-47l-10 130h-529v500h72v-456h162v456h73v-456h161v456h72z" />
<glyph horiz-adv-x="521" d="M280 262h-56v-222h58q119 0 119 115q0 107 -121 107zM152 0v456h-136v44h208v-198h56q93 0 143.5 -36.5t50.5 -109.5q0 -75 -48 -115.5t-142 -40.5h-132z" />
<glyph horiz-adv-x="634" d="M552 500v-500h-72v500h72zM210 262h-56v-222h58q119 0 119 115q0 107 -121 107zM82 0v500h72v-198h56q93 0 143.5 -36.5t50.5 -109.5q0 -75 -48 -115.5t-142 -40.5h-132z" />
<glyph horiz-adv-x="450" d="M210 262h-56v-222h58q119 0 119 115q0 107 -121 107zM82 0v500h72v-198h56q93 0 143.5 -36.5t50.5 -109.5q0 -75 -48 -115.5t-142 -40.5h-132z" />
<glyph horiz-adv-x="469" d="M71 425l-11 41q63 44 143 44q110 0 165.5 -67.5t55.5 -189.5q0 -119 -63 -191t-168 -72q-34 0 -64.5 7.5t-49.5 19t-33 22.5t-20 19l-6 7l25 38q5 -7 15 -18t46 -29.5t76 -18.5q72 0 114.5 48.5t46.5 144.5h-247v43h247q-3 100 -40 146t-110 46q-32 0 -62.5 -10 t-44.5 -20z" />
<glyph horiz-adv-x="743" d="M619 250q0 104 -38.5 160.5t-110.5 56.5q-71 0 -110 -57t-39 -160q0 -105 38.5 -161t110.5 -56q73 0 111 56t38 161zM698 250q0 -120 -60.5 -190t-167.5 -70q-101 0 -160.5 63.5t-65.5 173.5h-90v-227h-72v500h72v-230h90q5 110 65 175t161 65q107 0 167.5 -70.5 t60.5 -189.5z" />
<glyph horiz-adv-x="463" d="M125 349q0 -50 26.5 -79t61.5 -29h95v218h-94q-33 0 -61 -30t-28 -80zM381 500v-500h-73v198h-96l-95 -198h-74l109 207q-43 15 -71 50.5t-28 89.5q0 73 45.5 113t109.5 40h173z" />
<glyph horiz-adv-x="495" d="M262 262h-62v-222h63q60 0 86.5 27.5t26.5 87.5q0 57 -28 82t-86 25zM354 444v-46h-154v-97h62q188 0 188 -145q0 -156 -184 -156h-139v398h-111v46h111v56h73v-56h154z" />
<glyph horiz-adv-x="336" d="M279 578h41l4 -124h-170v-454h-72v500h187z" />
<glyph horiz-adv-x="792" d="M740 265v-43h-190v-222h-72v500h293v-44h-221v-191h190zM344 265v-43h-190v-222h-72v500h293v-44h-221v-191h190z" />
<glyph horiz-adv-x="633" d="M550 500v-500h-72v500h72zM344 265v-43h-190v-222h-72v500h293v-44h-221v-191h190z" />
<glyph horiz-adv-x="794" d="M774 44v-44h-296v500h72v-456h224zM344 265v-43h-190v-222h-72v500h293v-44h-221v-191h190z" />
<glyph horiz-adv-x="535" d="M433 500v-500h-67v500h67zM167 500v-500h-67v500h67zM29 674q13 10 27 10q13 0 26 -10q11 -13 11 -30q0 -16 -11 -29q-13 -10 -26 -10q-14 0 -27 10q-11 11 -11 29q0 19 11 30zM168 674q13 10 26 10q14 0 27 -10q11 -13 11 -30q0 -16 -11 -29q-13 -10 -27 -10 q-13 0 -26 10q-11 11 -11 29q0 19 11 30zM311 674q12 10 26 10q13 0 26 -10q11 -13 11 -30q0 -16 -11 -29q-13 -10 -26 -10q-14 0 -26 10q-12 12 -12 29q0 18 12 30zM450 674q12 10 26 10q13 0 26 -10q11 -13 11 -30q0 -16 -11 -29q-13 -10 -26 -10q-14 0 -26 10 q-12 12 -12 29q0 18 12 30z" />
<glyph horiz-adv-x="703" d="M428 592l-125 -351h228zM481 660l6 -41l194 -619h-80l-58 200h-253q-26 -76 -53.5 -129.5t-57 -84.5t-58 -47.5t-62.5 -24.5l-26 43q62 15 112.5 71t95.5 190l140 388q-142 -4 -217 -52t-75 -131q0 -48 23 -101l-49 -14q-27 64 -27 118q0 104 94 163.5t267 60.5 q63 0 84 10z" />
<glyph horiz-adv-x="799" d="M427 562q0 -33 -0.5 -102t-0.5 -104h119q35 0 68.5 30t33.5 97q0 61 -36.5 92t-97.5 31q-44 0 -86 1v-45zM425 315q-1 -143 -5 -271h94q162 0 162 143q0 64 -35 96t-92 32h-124zM515 650q98 0 151.5 -44.5t53.5 -117.5q0 -98 -94 -147q57 -16 91 -56t34 -101 q0 -88 -58.5 -136t-176.5 -48h-170q5 127 5 562v45q-123 0 -192 -56.5t-69 -136.5q0 -53 29 -99l-42 -20q-37 58 -37 121q0 97 83.5 165.5t227.5 68.5h3q6 49 21 65l58 -5q-5 -27 -6 -60h88z" />
<glyph horiz-adv-x="578" d="M495 356l-36 21q28 18 45 51t17 68q0 48 -36 80.5t-112 32.5q-99 0 -161.5 -85.5t-62.5 -258.5q0 -337 211 -337q53 0 95.5 20t58.5 40l16 19l28 -32q-2 -4 -6.5 -10.5t-22 -23t-39.5 -29.5t-60 -23.5t-82 -10.5q-134 0 -207 98t-73 287q0 188 84 292t216 104 q103 0 153.5 -45t50.5 -111q0 -43 -21 -83t-56 -64z" />
<glyph horiz-adv-x="891" d="M549 602h-122v-40q0 -335 -7 -514h130q212 0 212 275q0 279 -213 279zM375 715l58 -5q-5 -27 -6 -60h122q140 0 217.5 -84.5t77.5 -242.5q0 -157 -76.5 -240t-217.5 -83h-204q5 127 5 562v45q-123 0 -192 -56.5t-69 -136.5q0 -53 29 -99l-42 -20q-37 58 -37 121 q0 97 83.5 165.5t227.5 68.5h3q6 49 21 65z" />
<glyph horiz-adv-x="534" d="M374 288v-46l-112 1q-40 -4 -70 -39t-30 -110q0 -78 42.5 -117t117.5 -39q32 0 60 7.5t45 18t29.5 21.5t17.5 19l5 7l25 -33q-2 -4 -6 -9.5t-20 -21t-36 -27t-56 -21t-77 -9.5q-101 0 -161 51.5t-60 146.5q0 69 31.5 112.5t77.5 63.5q-54 20 -91.5 65.5t-37.5 114.5 q0 99 59.5 157t179.5 58q108 0 167 -46t59 -111q0 -60 -48 -108l-38 19q35 36 35 81q0 49 -44.5 84t-123.5 35q-170 0 -170 -169q0 -68 34.5 -111.5t80.5 -46.5z" />
<glyph horiz-adv-x="684" d="M389 0h-75v569q0 23 7 38q-104 0 -166 -47.5t-62 -130.5q0 -49 24 -107l-49 -14q-27 63 -27 123q0 100 77.5 159.5t202.5 59.5h349v-48h-281v-259h242v-46h-242v-297z" />
<glyph horiz-adv-x="640" d="M495 356l-36 21q28 18 45 51t17 68q0 48 -36 80.5t-112 32.5q-99 0 -161.5 -85.5t-62.5 -258.5q0 -337 211 -337q79 0 139 45v237h-133v43h197v-467h-37l-27 124v7q-63 -39 -151 -39q-134 0 -207 98t-73 287q0 188 84 292t216 104q103 0 153.5 -45t50.5 -111 q0 -43 -21 -83t-56 -64z" />
<glyph horiz-adv-x="857" d="M389 650v-292h298v204q0 129 23 153l58 -5q-6 -38 -6 -148v-562h-75v312h-298v-121q0 -113 -41 -157t-117 -44q-21 0 -40 3.5t-27 7.5l-9 4l12 43q21 -10 54 -10q93 0 93 153v378q0 23 7 38q-104 0 -166 -47.5t-62 -130.5q0 -49 24 -107l-49 -14q-27 63 -27 123 q0 100 77.5 159.5t202.5 59.5h68z" />
<glyph horiz-adv-x="485" d="M389 191q0 -113 -41 -157t-117 -44q-21 0 -40 3.5t-27 7.5l-9 4l12 43q21 -10 54 -10q93 0 93 153v378q0 23 7 38q-104 0 -166 -47.5t-62 -130.5q0 -49 24 -107l-49 -14q-27 63 -27 123q0 100 77.5 159.5t202.5 59.5h68v-459z" />
<glyph horiz-adv-x="548" d="M461 650v-549q0 -122 -63 -191t-160 -69q-95 0 -145.5 48t-50.5 117q0 74 53 129l39 -17q-42 -44 -42 -104q0 -53 36.5 -89t104.5 -36t110.5 55t42.5 147v478q0 23 7 38q-104 0 -166 -47.5t-62 -130.5q0 -49 24 -107l-48 -14q-28 65 -28 123q0 100 77.5 159.5t202.5 59.5 h68z" />
<glyph horiz-adv-x="844" d="M389 0h-75v569q0 23 7 38q-104 0 -166 -47.5t-62 -130.5q0 -49 24 -107l-49 -14q-27 63 -27 123q0 100 77.5 159.5t202.5 59.5h68v-354l80 70l219 284h61l-233 -296l217 -292q77 -107 153 -107q12 0 22.5 3.5t15.5 7.5l5 3l9 -34q-23 -22 -73 -22q-118 0 -199 118 l-202 271l-75 -63v-239z" />
<glyph horiz-adv-x="690" d="M694 99l43 -6v-8q0 -138 -102 -138q-45 0 -171 26.5t-148 26.5q-20 0 -32 -2q-30 -8 -60 -8l-3 48h2q3 0 7.5 0.5t6.5 0.5q77 12 77 152v378q0 23 7 38q-104 0 -166 -47.5t-62 -130.5q0 -49 24 -107l-49 -14q-27 63 -27 123q0 100 77.5 159.5t202.5 59.5h68v-459 q0 -98 -37 -148q21 -3 131.5 -25.5t143.5 -22.5q68 0 67 104z" />
<glyph horiz-adv-x="1128" d="M1031 650l3 -650h-74l-3 557h-1l-230 -557h-61l-221 557h-1l-1 -408q0 -115 -35 -176.5t-87 -77.5l-9 47q32 13 52.5 64.5t21.5 142.5l3 457q-145 -4 -220 -51.5t-75 -131.5q0 -44 23 -101l-48 -14q-27 64 -27 119q0 104 93.5 163t264.5 60h18q47 1 68 10l5 -28l219 -539 l234 557h88z" />
<glyph horiz-adv-x="944" d="M850 650v-650h-66l-341 546l-1 -397q0 -115 -35 -176.5t-87 -77.5l-9 47q32 13 52.5 64.5t21.5 142.5l3 457q-145 -4 -220 -51.5t-75 -131.5q0 -44 23 -101l-48 -14q-27 64 -27 119q0 104 93.5 163t264.5 60q45 0 72 10l9 -33l318 -513l-3 24v512h55z" />
<glyph horiz-adv-x="674" d="M281 348l-36 -20q-35 16 -63 44q-43 -45 -43 -115q0 -95 56 -156t144 -61q93 0 147.5 75.5t54.5 209.5t-54 209t-144 75q-74 0 -114.5 -39t-40.5 -89q0 -88 93 -133zM63 255q0 46 17.5 85t34 56.5t33.5 28.5q-10 28 -10 59q0 73 54.5 124t153.5 51q123 0 199.5 -93.5 t76.5 -242.5t-75.5 -241t-208.5 -92q-124 0 -199.5 77t-75.5 188z" />
<glyph horiz-adv-x="688" d="M434 606h-72v-44q0 -196 -1 -292h73q140 0 140 171q0 165 -140 165zM310 715l58 -5q-4 -27 -6 -60h81q100 0 155.5 -52t55.5 -154q0 -112 -62 -164t-148 -52h-84q-2 -171 -5 -228h-74q6 127 6 562v45q-85 0 -139.5 -39.5t-54.5 -98.5q0 -45 35 -90l-42 -20 q-45 57 -45 113q0 75 70.5 126.5t175.5 51.5h3q6 50 20 65z" />
<glyph horiz-adv-x="631" d="M575 -57l43 -6v-5q0 -65 -30.5 -92.5t-77.5 -27.5q-33 0 -62 11t-53 33t-40.5 41.5t-38.5 49.5t-34 44q-21 1 -44 6t-41.5 11t-33 11.5t-23.5 10.5l-10 4l5 47q30 10 60 10q61 0 114 -50q88 7 139 81.5t51 202.5q0 134 -54.5 209t-144.5 75q-80 0 -133 -55.5t-53 -139.5 q0 -128 113 -177l-33 -24q-131 52 -131 206q0 105 68.5 172.5t172.5 67.5q123 0 199.5 -93.5t76.5 -242.5q0 -132 -60.5 -220.5t-168.5 -107.5q8 -10 28.5 -37.5t31 -39.5t28 -29t34 -24t34.5 -7q27 0 47.5 19.5t20.5 65.5z" />
<glyph horiz-adv-x="776" d="M434 606h-72v-44q0 -166 -1 -248h82q60 0 95.5 43t35.5 118q0 64 -36.5 97.5t-103.5 33.5zM310 715l58 -5q-4 -27 -6 -60h81q99 0 155 -45.5t56 -125.5q0 -68 -35 -119t-89 -75l176 -223q38 -50 78.5 -78.5t74.5 -28.5q12 0 22.5 3.5t15.5 7.5l5 3l9 -34q-23 -22 -73 -22 q-110 0 -199 118l-188 238h-90q-2 -178 -6 -269h-74q6 127 6 562v45q-85 0 -139.5 -39.5t-54.5 -98.5q0 -45 35 -90l-42 -20q-45 57 -45 113q0 75 70.5 126.5t175.5 51.5h3q6 50 20 65z" />
<glyph horiz-adv-x="510" d="M412 406l-38 19q35 36 35 80t-36 76t-92 32q-58 0 -90 -34.5t-32 -100.5q0 -40 23 -72t57 -52.5t74 -45.5t74 -49.5t57 -65.5t23 -93q0 -97 -58.5 -153t-153.5 -56q-98 0 -151 47t-53 114q0 66 50 118l38 -17q-40 -40 -40 -91q0 -50 40 -86.5t109 -36.5q67 0 105.5 41 t38.5 107q0 39 -23 71t-57 53t-74 46t-74 49t-57 63.5t-23 88.5q0 99 51.5 150t142.5 51q81 0 130.5 -44t49.5 -104q0 -59 -46 -105z" />
<glyph horiz-adv-x="535" d="M342 0h-76v558q0 35 19 57q-93 27 -130 27q-73 0 -72 -80l-43 3v6q0 112 97 112q16 0 33.5 -2t42 -8.5t36 -9.5t44.5 -13t39 -12q3 1 10 1v-4q66 -19 104 -19q76 0 75 81l43 -7v-6q0 -111 -97 -111q-44 0 -125 24v-597z" />
<glyph horiz-adv-x="848" d="M538 -10q-110 0 -167 60t-57 162v357q0 23 7 38q-104 0 -166 -47.5t-62 -130.5q0 -49 24 -107l-49 -14q-27 63 -27 123q0 100 77.5 159.5t202.5 59.5h68v-421q0 -91 40 -139.5t117 -48.5q79 0 120 49.5t41 138.5v421h55v-438q0 -102 -56 -162t-168 -60z" />
<glyph horiz-adv-x="838" d="M385 660l4 -27l184 -577l192 594h56l-216 -650h-88l-199 606q-105 -4 -165.5 -51t-60.5 -127q0 -48 24 -106l-48 -14q-27 66 -27 121q0 100 77.5 160t201.5 61q42 0 65 10z" />
<glyph horiz-adv-x="1138" d="M1065 650h56l-175 -650h-70l-162 556l-160 -556h-70l-167 606q-104 -5 -164.5 -52t-60.5 -126q0 -48 24 -106l-48 -14q-27 66 -27 121q0 100 77.5 160t201.5 61q42 0 65 10l3 -21l145 -550l160 561h66l162 -562z" />
<glyph horiz-adv-x="840" d="M380 660l7 -26l160 -246l158 262h63l-192 -308l181 -266q42 -64 73 -92t65 -28q11 0 21 3t15 7l5 3l9 -34q-23 -21 -73 -21q-56 0 -99.5 28t-83.5 94l-165 250l-180 -286h-67l217 332l-181 274q-103 -5 -162 -52t-59 -126q0 -48 24 -106l-48 -14q-27 66 -27 121 q0 100 77.5 160t201.5 61q37 0 60 10z" />
<glyph horiz-adv-x="799" d="M380 660l7 -27l171 -303l179 320h60l-212 -376v-274h-76v269l-191 337q-105 -4 -165.5 -51t-60.5 -127q0 -48 24 -106l-48 -14q-27 66 -27 121q0 100 77.5 160t201.5 61q37 0 60 10z" />
<glyph horiz-adv-x="547" d="M500 99l43 -6v-8q0 -139 -112 -139q-43 0 -171 27t-149 27q-35 0 -65 -10l-6 48q150 188 373 564h-344v48h436v-41q-8 -13 -41 -69t-45 -76t-43.5 -71t-48.5 -77t-47 -70t-52.5 -73t-51 -63.5t-55.5 -63.5q25 -2 147 -26.5t159 -24.5q73 0 73 104z" />
<glyph horiz-adv-x="534" d="M168 843l62 16l83 -143l-40 -8zM374 288v-46l-112 1q-40 -4 -70 -39t-30 -110q0 -78 42.5 -117t117.5 -39q32 0 60 7.5t45 18t29.5 21.5t17.5 19l5 7l25 -33q-2 -4 -6 -9.5t-20 -21t-36 -27t-56 -21t-77 -9.5q-101 0 -161 51.5t-60 146.5q0 69 31.5 112.5t77.5 63.5 q-54 20 -91.5 65.5t-37.5 114.5q0 99 59.5 157t179.5 58q108 0 167 -46t59 -111q0 -60 -48 -108l-38 19q35 36 35 81q0 49 -44.5 84t-123.5 35q-170 0 -170 -169q0 -68 34.5 -111.5t80.5 -46.5z" />
<glyph horiz-adv-x="534" d="M164 809q13 10 26 10q14 0 27 -10q11 -13 11 -30q0 -16 -11 -29q-13 -10 -27 -10q-13 0 -26 10q-11 11 -11 29q0 19 11 30zM318 809q13 10 26 10t26 -10q12 -12 12 -30q0 -17 -12 -29q-13 -10 -26 -10t-26 10q-11 11 -11 29q0 19 11 30zM374 288v-46l-112 1 q-40 -4 -70 -39t-30 -110q0 -78 42.5 -117t117.5 -39q32 0 60 7.5t45 18t29.5 21.5t17.5 19l5 7l25 -33q-2 -4 -6 -9.5t-20 -21t-36 -27t-56 -21t-77 -9.5q-101 0 -161 51.5t-60 146.5q0 69 31.5 112.5t77.5 63.5q-54 20 -91.5 65.5t-37.5 114.5q0 99 59.5 157t179.5 58 q108 0 167 -46t59 -111q0 -60 -48 -108l-38 19q35 36 35 81q0 49 -44.5 84t-123.5 35q-170 0 -170 -169q0 -68 34.5 -111.5t80.5 -46.5z" />
<glyph horiz-adv-x="722" d="M521 697l43 -7v-6q0 -111 -97 -111q-44 0 -125 24v-271q6 8 21.5 22t58 33t89.5 19q85 0 121 -40t36 -124v-49q0 -111 -39 -154t-106 -43q-31 0 -55 9.5t-32 19.5l-9 10l14 33q23 -30 66 -30q85 0 85 139v50q0 73 -24 99.5t-85 26.5q-33 0 -66.5 -15t-48.5 -27t-26 -24 v-281h-76v558q0 35 19 57q-93 27 -130 27q-73 0 -72 -80l-43 3v6q0 112 97 112q16 0 33.5 -2t42 -8.5t36 -9.5t44.5 -13t39 -12q3 1 10 1v-4q66 -19 104 -19q76 0 75 81z" />
<glyph horiz-adv-x="629" d="M493 856l63 -15l-102 -135l-38 5zM626 650v-48h-237v-411q0 -113 -41 -157t-117 -44q-21 0 -40 3.5t-27 7.5l-9 4l12 43q21 -10 54 -10q93 0 93 153v378q0 23 7 38q-104 0 -166 -47.5t-62 -130.5q0 -49 24 -107l-49 -14q-27 63 -27 123q0 100 77.5 159.5t202.5 59.5h305z " />
<glyph horiz-adv-x="595" d="M495 356l-36 21q28 18 45 51t17 68q0 48 -36 80.5t-112 32.5q-99 0 -161.5 -85.5t-62.5 -258.5v-4h328v-46h-327q15 -287 210 -287q53 0 95.5 20t58.5 40l16 19l28 -32q-2 -4 -6.5 -10.5t-22 -23t-39.5 -29.5t-60 -23.5t-82 -10.5q-134 0 -207 98t-73 287q0 188 84 292 t216 104q103 0 153.5 -45t50.5 -111q0 -43 -21 -83t-56 -64z" />
<glyph horiz-adv-x="510" d="M412 406l-38 19q35 36 35 80t-36 76t-92 32q-58 0 -90 -34.5t-32 -100.5q0 -40 23 -72t57 -52.5t74 -45.5t74 -49.5t57 -65.5t23 -93q0 -97 -58.5 -153t-153.5 -56q-98 0 -151 47t-53 114q0 66 50 118l38 -17q-40 -40 -40 -91q0 -50 40 -86.5t109 -36.5q67 0 105.5 41 t38.5 107q0 39 -23 71t-57 53t-74 46t-74 49t-57 63.5t-23 88.5q0 99 51.5 150t142.5 51q81 0 130.5 -44t49.5 -104q0 -59 -46 -105z" />
<glyph horiz-adv-x="485" d="M389 191q0 -113 -41 -157t-117 -44q-21 0 -40 3.5t-27 7.5l-9 4l12 43q21 -10 54 -10q93 0 93 153v378q0 23 7 38q-104 0 -166 -47.5t-62 -130.5q0 -49 24 -107l-49 -14q-27 63 -27 123q0 100 77.5 159.5t202.5 59.5h68v-459z" />
<glyph horiz-adv-x="485" d="M402 809q13 10 26 10t26 -10q12 -12 12 -30q0 -17 -12 -29q-13 -10 -26 -10t-26 10q-11 11 -11 29q0 19 11 30zM248 809q13 10 26 10q14 0 27 -10q11 -13 11 -30q0 -16 -11 -29q-13 -10 -27 -10q-13 0 -26 10q-11 11 -11 29q0 19 11 30zM389 191q0 -113 -41 -157 t-117 -44q-21 0 -40 3.5t-27 7.5l-9 4l12 43q21 -10 54 -10q93 0 93 153v378q0 23 7 38q-104 0 -166 -47.5t-62 -130.5q0 -49 24 -107l-49 -14q-27 63 -27 123q0 100 77.5 159.5t202.5 59.5h68v-459z" />
<glyph horiz-adv-x="560" d="M461 650v-549q0 -122 -63 -191t-160 -69q-95 0 -145.5 48t-50.5 117q0 74 53 129l39 -17q-42 -44 -42 -104q0 -53 36.5 -89t104.5 -36t110.5 55t42.5 147v478q0 23 7 38q-104 0 -166 -47.5t-62 -130.5q0 -49 24 -107l-48 -14q-28 65 -28 123q0 100 77.5 159.5t202.5 59.5 h68z" />
<glyph horiz-adv-x="966" d="M679 346h-77v-302h79q161 0 161 155q0 147 -163 147zM602 650v-262h77q114 0 176.5 -47t62.5 -140q0 -96 -59 -148.5t-175 -52.5h-157v602h-158q0 -153 -16 -275t-41.5 -197.5t-59.5 -126t-67.5 -70.5t-68.5 -20q-13 0 -23.5 1.5t-14.5 3.5l-4 1l3 52q12 -4 26 -4 q24 0 46.5 13t46.5 41t44.5 78t37 118t26.5 168t12 222q-101 0 -162 -47.5t-61 -129.5q0 -50 24 -108l-49 -14q-28 66 -28 124q0 100 76 159t200 59h286z" />
<glyph horiz-adv-x="1126" d="M839 346h-77v-302h79q161 0 161 155q0 147 -163 147zM389 650v-292h298v204q0 129 23 153l58 -5q-6 -38 -6 -148v-174h77q114 0 176.5 -47t62.5 -140q0 -96 -59 -148.5t-175 -52.5h-157v312h-298v-121q0 -113 -41 -157t-117 -44q-21 0 -40 3.5t-27 7.5l-9 4l12 43 q21 -10 54 -10q93 0 93 153v378q0 23 7 38q-104 0 -166 -47.5t-62 -130.5q0 -49 24 -107l-49 -14q-27 63 -27 123q0 100 77.5 159.5t202.5 59.5h68z" />
<glyph horiz-adv-x="754" d="M521 697l43 -7v-6q0 -111 -97 -111q-44 0 -125 24v-271q6 8 21.5 22t58 33t89.5 19q85 0 121 -40t36 -124v-236h-76v221q0 73 -24 99.5t-85 26.5q-33 0 -66.5 -15t-48.5 -27t-26 -24v-281h-76v558q0 35 19 57q-93 27 -130 27q-73 0 -72 -80l-43 3v6q0 112 97 112 q16 0 33.5 -2t42 -8.5t36 -9.5t44.5 -13t39 -12q3 1 10 1v-4q66 -19 104 -19q76 0 75 81z" />
<glyph horiz-adv-x="844" d="M547 856l63 -15l-102 -135l-38 5zM389 0h-75v569q0 23 7 38q-104 0 -166 -47.5t-62 -130.5q0 -49 24 -107l-49 -14q-27 63 -27 123q0 100 77.5 159.5t202.5 59.5h68v-354l80 70l219 284h61l-233 -296l217 -292q77 -107 153 -107q12 0 22.5 3.5t15.5 7.5l5 3l9 -34 q-23 -22 -73 -22q-118 0 -199 118l-202 271l-75 -63v-239z" />
<glyph horiz-adv-x="872" d="M434 843l62 16l83 -143l-40 -8zM777 650l-1 -2l2 2v-650h-76v518l4 37l-316 -544l-5 -11h-71v569q0 23 7 38q-104 0 -166 -47.5t-62 -130.5q0 -49 24 -107l-49 -14q-27 63 -27 123q0 100 77.5 159.5t202.5 59.5h68v-523l-5 -33h1l317 545l4 11h71z" />
<glyph horiz-adv-x="830" d="M572 755q23 0 41 6t27.5 14.5t15.5 17.5t8 15l2 6v2l45 -6q0 -4 -2 -10.5t-10.5 -24t-22.5 -30.5t-41 -23.5t-63 -10.5t-63 10t-40.5 24.5t-21.5 29.5t-10 25l-2 10l45 6v-2q0 -2 1.5 -6t8 -14.5t15.5 -18t27 -14t40 -6.5zM380 660l8 -28l201 -412l154 430h59l-185 -488 q-9 -113 -70 -192.5t-162 -79.5q-86 0 -139 56.5t-53 130.5q0 68 46 114l38 -16q-36 -36 -36 -90q0 -59 41.5 -104t106.5 -45q67 0 112.5 48.5t63.5 131.5l-251 490q-103 -5 -162.5 -52.5t-59.5 -126.5q0 -48 24 -105l-48 -14q-27 66 -27 121q0 100 77.5 160t201.5 61 q37 0 60 10z" />
<glyph horiz-adv-x="842" d="M695 715l58 -5q-6 -38 -6 -148v-562h-182l-10 -211h-48l-11 211h-272l-3 47q93 0 93 154v368q0 23 7 38q-104 0 -166 -47.5t-62 -130.5q0 -49 24 -107l-49 -14q-27 63 -27 123q0 100 77.5 159.5t202.5 59.5h68v-449q0 -105 -42 -153h324l1 514q0 129 23 153z" />
<glyph horiz-adv-x="703" d="M428 592l-125 -351h228zM481 660l6 -41l194 -619h-80l-58 200h-253q-26 -76 -53.5 -129.5t-57 -84.5t-58 -47.5t-62.5 -24.5l-26 43q62 15 112.5 71t95.5 190l140 388q-142 -4 -217 -52t-75 -131q0 -48 23 -101l-49 -14q-27 64 -27 118q0 104 94 163.5t267 60.5 q63 0 84 10z" />
<glyph horiz-adv-x="752" d="M465 346h-76v-302h78q161 0 161 155q0 147 -163 147zM641 650v-48h-252v-214h75q115 0 178 -47t63 -140q0 -96 -60 -148.5t-176 -52.5h-155v569q0 23 7 38q-104 0 -166 -47.5t-62 -130.5q0 -49 24 -107l-49 -14q-28 65 -28 123q0 100 77.5 159t202.5 60h321z" />
<glyph horiz-adv-x="799" d="M427 562q0 -33 -0.5 -102t-0.5 -104h119q35 0 68.5 30t33.5 97q0 61 -36.5 92t-97.5 31q-44 0 -86 1v-45zM425 315q-1 -143 -5 -271h94q162 0 162 143q0 64 -35 96t-92 32h-124zM515 650q98 0 151.5 -44.5t53.5 -117.5q0 -98 -94 -147q57 -16 91 -56t34 -101 q0 -88 -58.5 -136t-176.5 -48h-170q5 127 5 562v45q-123 0 -192 -56.5t-69 -136.5q0 -53 29 -99l-42 -20q-37 58 -37 121q0 97 83.5 165.5t227.5 68.5h3q6 49 21 65l58 -5q-5 -27 -6 -60h88z" />
<glyph horiz-adv-x="629" d="M626 650v-48h-237v-411q0 -113 -41 -157t-117 -44q-21 0 -40 3.5t-27 7.5l-9 4l12 43q21 -10 54 -10q93 0 93 153v378q0 23 7 38q-104 0 -166 -47.5t-62 -130.5q0 -49 24 -107l-49 -14q-27 63 -27 123q0 100 77.5 159.5t202.5 59.5h305z" />
<glyph horiz-adv-x="728" d="M544 602h-177q-3 -209 -31.5 -335.5t-76.5 -218.5h285v554zM695 48l-12 -217h-49l-11 169h-405l-18 -169h-45l-5 217h55q48 91 77 218t32 341q-101 -2 -161 -49.5t-60 -128.5q0 -49 24 -107l-49 -14q-28 65 -28 123q0 100 77.5 159.5t202.5 59.5h299v-602h76z" />
<glyph horiz-adv-x="534" d="M374 288v-46l-112 1q-40 -4 -70 -39t-30 -110q0 -78 42.5 -117t117.5 -39q32 0 60 7.5t45 18t29.5 21.5t17.5 19l5 7l25 -33q-2 -4 -6 -9.5t-20 -21t-36 -27t-56 -21t-77 -9.5q-101 0 -161 51.5t-60 146.5q0 69 31.5 112.5t77.5 63.5q-54 20 -91.5 65.5t-37.5 114.5 q0 99 59.5 157t179.5 58q108 0 167 -46t59 -111q0 -60 -48 -108l-38 19q35 36 35 81q0 49 -44.5 84t-123.5 35q-170 0 -170 -169q0 -68 34.5 -111.5t80.5 -46.5z" />
<glyph horiz-adv-x="1119" d="M364 660l3 -13l159 -273h97v276h75v-275h93l179 275h63l-195 -285l185 -289q40 -65 71.5 -92.5t66.5 -27.5q11 0 21 3t15 7l5 3l10 -34q-23 -21 -74 -21q-57 0 -101.5 27.5t-82.5 93.5l-174 292h-82v-327h-75v327h-84l-166 -327h-88l195 354l-152 253h-7 q-105 -2 -167 -49t-62 -129q0 -49 24 -107l-48 -14q-28 65 -28 123q0 98 73.5 157t189.5 61v1h16q27 1 45 10z" />
<glyph horiz-adv-x="558" d="M210 257v48l97 -4q35 1 65.5 53.5t30.5 126.5q0 61 -35 96t-98 35q-71 0 -110.5 -33.5t-39.5 -81.5q0 -42 28 -76l-37 -18q-39 45 -39 98q0 65 55 111.5t147 46.5q96 0 151.5 -48t55.5 -124q0 -68 -32.5 -120t-76.5 -80q63 -14 101 -60t38 -118q0 -92 -61.5 -155.5 t-181.5 -63.5q-108 0 -168 52t-60 124q0 63 47 112l38 -17q-35 -37 -35 -85q0 -56 45.5 -96.5t124.5 -40.5q86 0 127 47.5t41 125.5q0 69 -33.5 109t-92.5 40z" />
<glyph horiz-adv-x="872" d="M777 650l-1 -2l2 2v-650h-76v518l4 37l-316 -544l-5 -11h-71v569q0 23 7 38q-104 0 -166 -47.5t-62 -130.5q0 -49 24 -107l-49 -14q-27 63 -27 123q0 100 77.5 159.5t202.5 59.5h68v-523l-5 -33h1l317 545l4 11h71z" />
<glyph horiz-adv-x="872" d="M546 750q23 0 39.5 6.5t24.5 15t12.5 17.5t5.5 15v7v5l60 -6q0 -4 -1.5 -10.5t-10.5 -24t-22.5 -30.5t-42 -23.5t-65.5 -10.5t-65 10t-41.5 24.5t-22 29.5t-10.5 25l-2 10l60 6v-5q0 -2 0.5 -6.5t5 -15t12 -18.5t24.5 -14.5t39 -6.5zM777 650l-1 -2l2 2v-650h-76v518 l4 37l-316 -544l-5 -11h-71v569q0 23 7 38q-104 0 -166 -47.5t-62 -130.5q0 -49 24 -107l-49 -14q-27 63 -27 123q0 100 77.5 159.5t202.5 59.5h68v-523l-5 -33h1l317 545l4 11h71z" />
<glyph horiz-adv-x="844" d="M389 0h-75v569q0 23 7 38q-104 0 -166 -47.5t-62 -130.5q0 -49 24 -107l-49 -14q-27 63 -27 123q0 100 77.5 159.5t202.5 59.5h68v-354l80 70l219 284h61l-233 -296l217 -292q77 -107 153 -107q12 0 22.5 3.5t15.5 7.5l5 3l9 -34q-23 -22 -73 -22q-118 0 -199 118 l-202 271l-75 -63v-239z" />
<glyph horiz-adv-x="697" d="M602 650v-650h-75v602h-158q0 -153 -16 -275t-41.5 -197.5t-59.5 -126t-67.5 -70.5t-68.5 -20q-13 0 -23.5 1.5t-14.5 3.5l-4 1l3 52q12 -4 26 -4q24 0 46.5 13t46.5 41t44.5 78t37 118t26.5 168t12 222q-101 0 -162 -47.5t-61 -129.5q0 -50 24 -108l-49 -14 q-28 66 -28 124q0 100 76 159t200 59h286z" />
<glyph horiz-adv-x="1128" d="M1031 650l3 -650h-74l-3 557h-1l-230 -557h-61l-221 557h-1l-1 -408q0 -115 -35 -176.5t-87 -77.5l-9 47q32 13 52.5 64.5t21.5 142.5l3 457q-145 -4 -220 -51.5t-75 -131.5q0 -44 23 -101l-48 -14q-27 64 -27 119q0 104 93.5 163t264.5 60h18q47 1 68 10l5 -28l219 -539 l234 557h88z" />
<glyph horiz-adv-x="857" d="M389 650v-292h298v204q0 129 23 153l58 -5q-6 -38 -6 -148v-562h-75v312h-298v-121q0 -113 -41 -157t-117 -44q-21 0 -40 3.5t-27 7.5l-9 4l12 43q21 -10 54 -10q93 0 93 153v378q0 23 7 38q-104 0 -166 -47.5t-62 -130.5q0 -49 24 -107l-49 -14q-27 63 -27 123 q0 100 77.5 159.5t202.5 59.5h68z" />
<glyph horiz-adv-x="674" d="M281 348l-36 -20q-35 16 -63 44q-43 -45 -43 -115q0 -95 56 -156t144 -61q93 0 147.5 75.5t54.5 209.5t-54 209t-144 75q-74 0 -114.5 -39t-40.5 -89q0 -88 93 -133zM63 255q0 46 17.5 85t34 56.5t33.5 28.5q-10 28 -10 59q0 73 54.5 124t153.5 51q123 0 199.5 -93.5 t76.5 -242.5t-75.5 -241t-208.5 -92q-124 0 -199.5 77t-75.5 188z" />
<glyph horiz-adv-x="842" d="M389 0h-75v569q0 23 7 38q-104 0 -166 -47.5t-62 -130.5q0 -49 24 -107l-49 -14q-28 65 -28 123q0 100 77.5 159t202.5 60h427v-650h-75v602h-283v-602z" />
<glyph horiz-adv-x="688" d="M434 606h-72v-44q0 -196 -1 -292h73q140 0 140 171q0 165 -140 165zM310 715l58 -5q-4 -27 -6 -60h81q100 0 155.5 -52t55.5 -154q0 -112 -62 -164t-148 -52h-84q-2 -171 -5 -228h-74q6 127 6 562v45q-85 0 -139.5 -39.5t-54.5 -98.5q0 -45 35 -90l-42 -20 q-45 57 -45 113q0 75 70.5 126.5t175.5 51.5h3q6 50 20 65z" />
<glyph horiz-adv-x="578" d="M495 356l-36 21q28 18 45 51t17 68q0 48 -36 80.5t-112 32.5q-99 0 -161.5 -85.5t-62.5 -258.5q0 -337 211 -337q53 0 95.5 20t58.5 40l16 19l28 -32q-2 -4 -6.5 -10.5t-22 -23t-39.5 -29.5t-60 -23.5t-82 -10.5q-134 0 -207 98t-73 287q0 188 84 292t216 104 q103 0 153.5 -45t50.5 -111q0 -43 -21 -83t-56 -64z" />
<glyph horiz-adv-x="461" d="M268 0h-76v558q0 35 19 57q-93 27 -130 27q-73 0 -72 -80l-43 3v6q0 112 97 112q16 0 33.5 -2t42 -8.5t36 -9.5t44.5 -13t39 -12q3 1 10 1v-4q66 -19 104 -19q76 0 75 81l43 -7v-6q0 -111 -97 -111q-44 0 -125 24v-597z" />
<glyph horiz-adv-x="830" d="M380 660l8 -28l201 -412l154 430h59l-185 -488q-9 -113 -70 -192.5t-162 -79.5q-86 0 -139 56.5t-53 130.5q0 68 46 114l38 -16q-36 -36 -36 -90q0 -59 41.5 -104t106.5 -45q67 0 112.5 48.5t63.5 131.5l-251 490q-103 -5 -162.5 -52.5t-59.5 -126.5q0 -48 24 -105 l-48 -14q-27 66 -27 121q0 100 77.5 160t201.5 61q37 0 60 10z" />
<glyph horiz-adv-x="745" d="M281 335l-36 -21q-55 27 -80 61q-26 -30 -26 -86q0 -80 52.5 -120.5t139.5 -47.5q2 116 2 441v5q-69 -7 -107 -36.5t-38 -71.5q0 -26 8.5 -47t24 -36t29 -23.5t31.5 -17.5zM612 345q0 107 -56 160.5t-147 61.5v-5q0 -270 -4 -441q93 9 150 64t57 160zM356 715l58 -5 q-5 -35 -5 -100q79 -6 141 -35t102.5 -89t40.5 -143q0 -120 -80 -188.5t-209 -76.5l-3 -78h-74l3 78q-119 8 -193 62t-74 149q0 63 24.5 97t52.5 46q-2 9 -2 30q0 61 53.5 100.5t142.5 47.5q3 83 22 105z" />
<glyph horiz-adv-x="840" d="M380 660l7 -26l160 -246l158 262h63l-192 -308l181 -266q42 -64 73 -92t65 -28q11 0 21 3t15 7l5 3l9 -34q-23 -21 -73 -21q-56 0 -99.5 28t-83.5 94l-165 250l-180 -286h-67l217 332l-181 274q-103 -5 -162 -52t-59 -126q0 -48 24 -106l-48 -14q-27 66 -27 121 q0 100 77.5 160t201.5 61q37 0 60 10z" />
<glyph horiz-adv-x="856" d="M695 715l58 -5q-6 -38 -6 -148v-514h76l-13 -217h-49l-12 169h-525l-3 47q93 0 93 154v368q0 23 7 38q-104 0 -166 -47.5t-62 -130.5q0 -49 24 -107l-49 -14q-27 63 -27 123q0 100 77.5 159.5t202.5 59.5h68v-449q0 -105 -42 -153h324l1 514q0 129 23 153z" />
<glyph horiz-adv-x="808" d="M387 660v-240q0 -75 27 -106.5t86 -31.5q35 0 68.5 9t48 16.5t21.5 12.5v242q0 127 23 153l58 -5q-5 -38 -5 -148l-1 -562h-75v275q-6 -5 -18.5 -12.5t-55.5 -20t-91 -12.5q-161 0 -161 179v197q-102 -6 -161 -52.5t-59 -125.5q0 -48 24 -106l-48 -14q-27 66 -27 121 q0 100 77.5 160t201.5 61q44 0 67 10z" />
<glyph horiz-adv-x="1071" d="M389 201q0 -105 -42 -153h256v602h76v-602h222v514q0 128 24 153l57 -5q-5 -38 -5 -148v-562h-753l-3 47q93 0 93 154v368q0 23 7 38q-104 0 -166 -47.5t-62 -130.5q0 -49 24 -107l-49 -14q-27 63 -27 123q0 100 77.5 159.5t202.5 59.5h68v-449z" />
<glyph horiz-adv-x="1085" d="M925 715l57 -5q-5 -38 -5 -148v-514h69l-11 -217h-50l-11 169h-750l-3 47q93 0 93 154v368q0 23 7 38q-104 0 -166 -47.5t-62 -130.5q0 -49 24 -107l-49 -14q-27 63 -27 123q0 100 77.5 159.5t202.5 59.5h68v-449q0 -105 -42 -153h256v602h76v-602h222v514q0 128 24 153z " />
<glyph horiz-adv-x="595" d="M100 181l36 -21q-28 -18 -45 -51t-17 -68q0 -48 36 -80.5t112 -32.5q99 0 161.5 85.5t62.5 258.5v4h-328v46h327q-15 287 -210 287q-34 0 -63.5 -8t-48.5 -19.5t-32.5 -23.5t-19.5 -20l-6 -8l-28 32q2 4 6.5 10.5t22 23t39.5 29.5t60 23.5t82 10.5q134 0 207 -98t73 -287 q0 -188 -84 -292t-216 -104q-103 0 -153.5 45t-50.5 111q0 43 21 83t56 64z" />
<glyph horiz-adv-x="1118" d="M989 324q0 138 -52 213.5t-147 75.5t-146.5 -75.5t-51.5 -213.5q0 -139 51.5 -213.5t146.5 -74.5q96 0 147.5 74.5t51.5 213.5zM389 191q0 -113 -41 -157t-117 -44q-21 0 -40 3.5t-27 7.5l-9 4l12 43q21 -10 54 -10q93 0 93 153v378q0 23 7 38q-104 0 -166 -47.5 t-62 -130.5q0 -49 24 -107l-49 -14q-27 63 -27 123q0 100 77.5 159.5t202.5 59.5h68v-305h122q5 146 79 230t200 84q131 0 206 -90t75 -245q0 -156 -74.5 -245t-206.5 -89q-126 0 -199.5 82t-79.5 227h-122v-108z" />
<glyph horiz-adv-x="567" d="M150 456q0 -69 34 -108t82 -39h129l1 253v44h-130q-45 0 -80.5 -40.5t-35.5 -109.5zM-40 -101l-19 44q37 9 68.5 36.5t68.5 88.5l126 202q-56 17 -92.5 64t-36.5 119q0 93 55.5 145t132.5 52h136q6 50 20 65l58 -5q-6 -38 -6 -148v-562h-76v262h-124l-132 -225 q-37 -68 -78.5 -98t-100.5 -40z" />
<glyph horiz-adv-x="685" d="M407 345h-85v-301h87q80 0 116 37.5t36 117.5q0 77 -37.5 111.5t-116.5 34.5zM521 645l43 -7v-5q0 -75 -37 -103.5t-103 -28.5q-39 0 -102 9v-122h85q231 0 231 -187q0 -201 -226 -201h-166v520q-38 4 -55 4q-111 0 -108 -95l-43 2v5q0 75 37 104t104 29q21 0 65 -4v123 h76v-133q52 -7 86 -7q55 0 84.5 21t28.5 76z" />
<glyph horiz-adv-x="607" d="M545 650l12 100h43l4 -149h-215v-410q0 -113 -41 -157t-117 -44q-21 0 -40 3.5t-27 7.5l-9 4l12 43q21 -10 54 -10q93 0 93 153v378q0 23 7 38q-104 0 -166 -47.5t-62 -130.5q0 -49 24 -107l-49 -14q-28 65 -28 123q0 100 77.5 159t202.5 60h225z" />
</font>
</defs>
</svg>
